<svg width="24" height="24" viewBox="0 0 24 24" fill="none" xmlns="http://www.w3.org/2000/svg">
<path d="M19 20H5V19.625C5 18.4647 5.46094 17.3519 6.28141 16.5314C7.10188 15.7109 8.21468 15.25 9.375 15.25H14.625C15.7853 15.25 16.8981 15.7109 17.7186 16.5314C18.5391 17.3519 19 18.4647 19 19.625V20ZM12 13.5C11.3106 13.5 10.6279 13.3642 9.99091 13.1004C9.35395 12.8365 8.7752 12.4498 8.28769 11.9623C7.80018 11.4748 7.41347 10.896 7.14963 10.2591C6.8858 9.62213 6.75 8.93944 6.75 8.25C6.75 7.56056 6.8858 6.87787 7.14963 6.24091C7.41347 5.60395 7.80018 5.0252 8.28769 4.53769C8.7752 4.05018 9.35395 3.66347 9.99091 3.39963C10.6279 3.1358 11.3106 3 12 3C13.3924 3 14.7277 3.55312 15.7123 4.53769C16.6969 5.52226 17.25 6.85761 17.25 8.25C17.25 9.64239 16.6969 10.9777 15.7123 11.9623C14.7277 12.9469 13.3924 13.5 12 13.5Z" fill="#0D477C"/>
</svg>
