<svg width="16" height="16" viewBox="0 0 16 16" fill="none" xmlns="http://www.w3.org/2000/svg">
<g opacity="0.9">
<path d="M11.5355 4.46449L10.75 5.25005C10.1138 4.61382 9.27675 4.21786 8.38138 4.12963C7.48601 4.04139 6.58774 4.26634 5.83963 4.76615C5.09152 5.26596 4.53985 6.00971 4.27863 6.87066C4.01741 7.73161 4.06279 8.65651 4.40704 9.48775C4.7513 10.319 5.37312 11.0052 6.16657 11.4293C6.96001 11.8535 7.87599 11.9894 8.75842 11.814C9.64086 11.6385 10.4352 11.1625 11.006 10.4671C11.5768 9.77161 11.8888 8.89975 11.8889 8.00004H13C13 9.15682 12.5989 10.2778 11.865 11.172C11.1312 12.0662 10.11 12.6783 8.9754 12.9039C7.84086 13.1296 6.66316 12.9549 5.64298 12.4096C4.6228 11.8643 3.82326 10.9821 3.38059 9.91338C2.93792 8.84466 2.87951 7.65551 3.21531 6.54854C3.55111 5.44158 4.26035 4.4853 5.22217 3.84264C6.184 3.19998 7.33891 2.9107 8.49011 3.02409C9.64131 3.13748 10.7176 3.64653 11.5355 4.46449Z" fill="white" stroke="white" stroke-width="0.25"/>
</g>
</svg>
