<svg width="18" height="18" viewBox="0 0 18 18" fill="none" xmlns="http://www.w3.org/2000/svg">
<path d="M14.6569 3.34319L13.4 4.60008C12.3821 3.58212 11.0428 2.94858 9.61021 2.8074C8.17761 2.66623 6.74038 3.02615 5.5434 3.82585C4.34643 4.62554 3.46377 5.81553 3.04581 7.19306C2.62785 8.57058 2.70046 10.0504 3.25127 11.3804C3.80207 12.7104 4.79699 13.8083 6.06651 14.4869C7.33602 15.1656 8.80158 15.3831 10.2135 15.1024C11.6254 14.8216 12.8962 14.06 13.8096 12.9473C14.7229 11.8346 15.2221 10.4396 15.2222 9.00007H17C17 10.8509 16.3582 12.6445 15.184 14.0752C14.0098 15.5059 12.3759 16.4852 10.5606 16.8463C8.74537 17.2073 6.86105 16.9278 5.22877 16.0553C3.59648 15.1828 2.31721 13.7714 1.60894 12.0614C0.90067 10.3515 0.807213 8.44881 1.3445 6.67767C1.88178 4.90653 3.01656 3.37648 4.55548 2.34822C6.0944 1.31996 7.94225 0.857114 9.78418 1.03854C11.6261 1.21997 13.3481 2.03444 14.6569 3.34319Z" fill="#3E3E3E" stroke="#3E3E3E" stroke-width="0.25"/>
</svg>
