<svg width="24" height="16" viewBox="0 0 24 16" fill="none" xmlns="http://www.w3.org/2000/svg">
<path d="M24 0.00012207H0V16.0001H24V0.00012207Z" fill="#ECECEC"/>
<path d="M4.10573 3.89596C4.09238 4.17703 4.06412 4.45721 4.02105 4.73528C4.00559 4.82462 3.98872 4.91236 3.97485 5.00012C4.32402 4.95502 4.67754 4.95502 5.02672 5.00012C5.00977 4.91236 4.99589 4.82462 4.98052 4.73528C4.93766 4.45725 4.9104 4.17703 4.89889 3.89596C5.26807 3.91342 5.63553 3.95718 5.99848 4.02686C5.95738 3.67691 5.95738 3.32335 5.99848 2.9734C5.63552 3.04308 5.26806 3.08685 4.89889 3.10438C4.91325 2.73358 4.95599 2.3644 5.02672 2.00012C4.67742 2.04323 4.32415 2.04323 3.97485 2.00012C4.04203 2.36503 4.08574 2.73388 4.10573 3.10438C3.73452 3.08685 3.36503 3.04308 3 2.9734C3.0451 3.32311 3.0451 3.67716 3 4.02686C3.36503 3.95718 3.73452 3.91343 4.10573 3.89596Z" fill="#D50037"/>
<path d="M19.1057 3.89596C19.0924 4.17703 19.0641 4.45721 19.021 4.73528C19.0056 4.82462 18.9887 4.91236 18.9748 5.00012C19.324 4.95502 19.6775 4.95502 20.0267 5.00012C20.0098 4.91236 19.9959 4.82462 19.9805 4.73528C19.9377 4.45725 19.9104 4.17703 19.8989 3.89596C20.2681 3.91342 20.6355 3.95718 20.9985 4.02686C20.9574 3.67691 20.9574 3.32335 20.9985 2.9734C20.6355 3.04308 20.2681 3.08685 19.8989 3.10438C19.9132 2.73358 19.956 2.3644 20.0267 2.00012C19.6774 2.04323 19.3241 2.04323 18.9748 2.00012C19.042 2.36503 19.0857 2.73388 19.1057 3.10438C18.7345 3.08685 18.365 3.04308 18 2.9734C18.0451 3.32311 18.0451 3.67716 18 4.02686C18.365 3.95718 18.7345 3.91343 19.1057 3.89596Z" fill="#D50037"/>
<path d="M4.89984 12.1049C4.9112 11.8237 4.93847 11.5433 4.9815 11.2651C4.99689 11.1773 5.01077 11.0879 5.02773 11.0001C4.67838 11.0454 4.32468 11.0454 3.97533 11.0001C3.98922 11.0879 4.00609 11.1773 4.02156 11.2651C4.0648 11.5433 4.09308 11.8237 4.10628 12.1049C3.73502 12.0859 3.36545 12.0421 3 11.974C3.04513 12.3233 3.04513 12.677 3 13.0264C3.36525 12.9572 3.73492 12.9139 4.10628 12.8969C4.08628 13.2671 4.04255 13.6356 3.97533 14.0001C4.32481 13.957 4.67825 13.957 5.02773 14.0001C4.95697 13.6362 4.91421 13.2674 4.89984 12.8969C5.26916 12.9139 5.6368 12.9572 5.99998 13.0264C5.95885 12.6768 5.95885 12.3236 5.99998 11.974C5.6366 12.0421 5.26906 12.0859 4.89984 12.1049Z" fill="#D50037"/>
<path d="M19.8998 12.1049C19.9112 11.8237 19.9385 11.5433 19.9815 11.2651C19.9969 11.1773 20.0108 11.0879 20.0277 11.0001C19.6784 11.0454 19.3247 11.0454 18.9753 11.0001C18.9892 11.0879 19.0061 11.1773 19.0216 11.2651C19.0648 11.5433 19.0931 11.8237 19.1063 12.1049C18.735 12.0859 18.3654 12.0421 18 11.974C18.0451 12.3233 18.0451 12.677 18 13.0264C18.3653 12.9572 18.7349 12.9139 19.1063 12.8969C19.0863 13.2671 19.0425 13.6356 18.9753 14.0001C19.3248 13.957 19.6782 13.957 20.0277 14.0001C19.957 13.6362 19.9142 13.2674 19.8998 12.8969C20.2692 12.9139 20.6368 12.9572 21 13.0264C20.9588 12.6768 20.9588 12.3236 21 11.974C20.6366 12.0421 20.2691 12.0859 19.8998 12.1049Z" fill="#D50037"/>
<path d="M13 0.00012207H11V16.0001H13V0.00012207Z" fill="#D50037"/>
<path d="M24 7.00012H0V9.00012H24V7.00012Z" fill="#D50037"/>
</svg>
