<svg width="24" height="15" viewBox="0 0 24 15" fill="none" xmlns="http://www.w3.org/2000/svg">
<path d="M24 5H0V10H24V5Z" fill="#ECECEC"/>
<path d="M24 0H0V5H24V0Z" fill="#F0953E"/>
<path d="M24 10H0V15H24V10Z" fill="#3B8916"/>
<path d="M12.499 6C12.2023 6.0002 11.9124 6.08837 11.6658 6.25335C11.4192 6.41834 11.2271 6.65273 11.1138 6.92689C11.0004 7.20106 10.971 7.50268 11.029 7.79361C11.0871 8.08454 11.2301 8.35173 11.44 8.56137C11.65 8.771 11.9173 8.91369 12.2083 8.97137C12.4994 9.02906 12.8009 8.99915 13.0749 8.88543C13.3489 8.77172 13.5831 8.57931 13.7477 8.33253C13.9124 8.08575 14.0002 7.79568 14 7.49901C13.9997 7.1012 13.8414 6.71978 13.5599 6.43867C13.2784 6.15756 12.8968 5.99976 12.499 6ZM12.498 6.14569L12.4601 6.9002L12.501 7.3293L12.539 6.9002L12.501 6.14569C12.5397 6.14564 12.5783 6.14763 12.6168 6.15166L12.6148 6.15566C12.6144 6.17257 12.6206 6.18895 12.6322 6.20128C12.6438 6.21362 12.6598 6.22091 12.6767 6.22157C12.6919 6.22127 12.7065 6.21541 12.7177 6.20512C12.7289 6.19483 12.7359 6.1808 12.7375 6.16567C12.7749 6.17228 12.8119 6.18094 12.8483 6.19162L12.6168 6.91016L12.5429 7.33529L12.6926 6.92814L12.8523 6.19162C12.8882 6.20357 12.9242 6.21354 12.9601 6.22754C12.9573 6.23454 12.9556 6.24194 12.9551 6.24947C12.9552 6.26601 12.962 6.28182 12.9737 6.29343C12.9855 6.30503 13.0015 6.31147 13.018 6.31134C13.0301 6.31109 13.0419 6.30739 13.052 6.30068C13.062 6.29396 13.07 6.28451 13.0749 6.27344C13.1088 6.28943 13.1418 6.30736 13.1757 6.32734L12.7655 6.95808L12.5839 7.35327L12.8343 6.99998L13.1786 6.32932C13.2096 6.34726 13.2416 6.36724 13.2735 6.38722C13.266 6.39641 13.2613 6.40753 13.2599 6.41928C13.2585 6.43104 13.2605 6.44296 13.2656 6.45364C13.2708 6.46431 13.2788 6.47331 13.2889 6.47957C13.2989 6.48583 13.3106 6.4891 13.3224 6.489C13.3321 6.48942 13.3418 6.48725 13.3504 6.48269C13.359 6.47813 13.3662 6.47135 13.3713 6.46306C13.4012 6.48901 13.4291 6.51497 13.4551 6.54093L12.8962 7.04587L12.6198 7.37924L12.9521 7.10377L13.4581 6.54291C13.484 6.57081 13.51 6.59677 13.5339 6.62671C13.5269 6.63253 13.5213 6.63987 13.5175 6.64817C13.5137 6.65647 13.5118 6.66552 13.512 6.67465C13.512 6.69088 13.5184 6.70646 13.5298 6.71803C13.5412 6.7296 13.5566 6.73623 13.5729 6.73652C13.5862 6.73685 13.5992 6.73262 13.6098 6.72452C13.6319 6.75529 13.6522 6.78728 13.6707 6.82032L13 7.16365L12.6467 7.41515L13.0389 7.23549L13.6727 6.82232C13.6936 6.85824 13.7106 6.8962 13.7275 6.92814C13.7164 6.93373 13.7069 6.94226 13.7003 6.95281C13.6936 6.96336 13.6899 6.97555 13.6896 6.98804C13.6897 7.00426 13.696 7.01982 13.7074 7.03139C13.7188 7.04295 13.7343 7.04959 13.7505 7.04986C13.7589 7.05015 13.7672 7.04807 13.7744 7.04388C13.7864 7.0798 13.7974 7.11372 13.8064 7.1497L13.0689 7.30535L12.6647 7.45507L13.0898 7.38321L13.8084 7.15369C13.8173 7.18562 13.8264 7.22553 13.8334 7.26146C13.8182 7.26305 13.8042 7.27031 13.7942 7.28179C13.7842 7.29327 13.7789 7.30811 13.7794 7.32333C13.7797 7.33982 13.7865 7.35552 13.7983 7.36709C13.81 7.37866 13.8258 7.38516 13.8423 7.38521H13.8483C13.8517 7.42236 13.853 7.45967 13.8523 7.49697L13.0998 7.46104L12.6687 7.49901L13.0998 7.54091L13.8523 7.50099C13.853 7.53895 13.8517 7.57693 13.8483 7.61475H13.8423C13.8259 7.61513 13.8103 7.62175 13.7986 7.63324C13.7869 7.64474 13.7801 7.66025 13.7794 7.67662C13.7796 7.69152 13.7849 7.70589 13.7946 7.71721C13.8043 7.72854 13.8176 7.73608 13.8323 7.7385C13.8253 7.77641 13.8173 7.81234 13.8084 7.84826L13.5519 7.76644L13.0898 7.61673L12.6647 7.54489L13.0689 7.6946L13.8064 7.85229C13.7979 7.88841 13.7866 7.92378 13.7725 7.95806L13.7645 7.95608H13.7505C13.7423 7.95585 13.7341 7.95728 13.7264 7.96029C13.7188 7.9633 13.7118 7.96784 13.7059 7.97362C13.7 7.9794 13.6954 7.98631 13.6922 7.99393C13.6891 8.00154 13.6875 8.00972 13.6876 8.01796C13.6875 8.02633 13.6896 8.0346 13.6936 8.04192C13.6965 8.05152 13.7025 8.0599 13.7106 8.06583L13.7156 8.06782L13.7216 8.07182L13.7256 8.07584C13.7096 8.10977 13.6916 8.1437 13.6727 8.17564L13.0399 7.76644H13.0389L12.6467 7.58679H12.6487L12.8543 7.73053L13 7.83431L13.6707 8.17763C13.6507 8.21156 13.6308 8.2455 13.6088 8.27544C13.5979 8.26901 13.5855 8.26557 13.5729 8.26547C13.5648 8.2652 13.5568 8.26655 13.5493 8.26944C13.5418 8.27232 13.535 8.27667 13.5292 8.28225C13.5235 8.28784 13.5189 8.29454 13.5157 8.30193C13.5126 8.30933 13.511 8.31728 13.511 8.32531C13.5105 8.33457 13.5124 8.3438 13.5164 8.35216C13.5204 8.36052 13.5264 8.36776 13.5339 8.37323C13.509 8.40118 13.484 8.42914 13.4581 8.45505L12.9521 7.89618L12.6208 7.62072L12.8962 7.95408L13.4551 8.45907C13.4298 8.48549 13.4028 8.51016 13.3743 8.53291C13.3634 8.52366 13.3496 8.5187 13.3354 8.51892C13.3191 8.51934 13.3036 8.52599 13.2921 8.53751C13.2806 8.54902 13.2739 8.56452 13.2735 8.5808C13.2733 8.59034 13.275 8.59983 13.2784 8.60874C13.2455 8.62872 13.2116 8.65069 13.1786 8.67261L12.8343 8.00196L12.5839 7.64668L12.7645 8.03988L13.1747 8.67461C13.1418 8.69259 13.1088 8.71053 13.0749 8.72652C13.0706 8.71517 13.063 8.70543 13.053 8.69864C13.0429 8.69184 13.0311 8.68834 13.019 8.68861C13.0025 8.68883 12.9868 8.69539 12.9751 8.70692C12.9634 8.71845 12.9566 8.73406 12.9561 8.75049C12.9565 8.75859 12.9578 8.76663 12.9601 8.77441C12.9248 8.78704 12.8888 8.7977 12.8523 8.80634L12.6926 8.06782L12.5429 7.66666V7.66466L12.6168 8.0898L12.8483 8.80839C12.812 8.81921 12.775 8.82719 12.7375 8.83229C12.7348 8.81801 12.7273 8.80509 12.7162 8.79566C12.7051 8.78623 12.6912 8.78085 12.6767 8.78043C12.6686 8.78025 12.6607 8.78165 12.6532 8.78457C12.6458 8.7875 12.639 8.79187 12.6332 8.79744C12.6275 8.80301 12.6229 8.80968 12.6197 8.81704C12.6165 8.8244 12.6149 8.83231 12.6148 8.84032V8.84829C12.577 8.85227 12.539 8.85426 12.501 8.85426L12.539 8.10176L12.499 7.67064L12.4601 8.10176L12.498 8.85426C12.4593 8.85428 12.4207 8.85229 12.3822 8.84829V8.84032C12.3817 8.8241 12.3748 8.80874 12.363 8.79755C12.3513 8.78635 12.3356 8.78021 12.3194 8.78043C12.3048 8.78086 12.2909 8.78625 12.2798 8.79568C12.2688 8.8051 12.2612 8.81801 12.2585 8.83229C12.2221 8.82643 12.1861 8.81846 12.1507 8.80839L12.3822 8.0898L12.4541 7.66666L12.3044 8.06782L12.1467 8.80634C12.1108 8.79837 12.0749 8.78642 12.0379 8.77441C12.041 8.7668 12.0427 8.75869 12.043 8.75049C12.0426 8.73436 12.0361 8.71898 12.0247 8.70748C12.0134 8.69598 11.9982 8.68923 11.982 8.68861C11.9697 8.68883 11.9576 8.69249 11.9472 8.69918C11.9368 8.70588 11.9285 8.71535 11.9232 8.72652C11.8902 8.71053 11.8563 8.69259 11.8234 8.67461L12.2335 8.03988L12.4132 7.64668L12.1637 7.99996L11.8204 8.67261C11.7875 8.65069 11.7545 8.63071 11.7236 8.60874C11.7315 8.59922 11.7357 8.58718 11.7355 8.57481C11.7359 8.55827 11.7297 8.54228 11.7183 8.5303C11.7069 8.51833 11.6912 8.51136 11.6747 8.51094C11.6654 8.51079 11.6561 8.51289 11.6478 8.51706C11.6394 8.52124 11.6322 8.52736 11.6268 8.5349C11.5975 8.51117 11.5694 8.48585 11.5429 8.45907L12.1038 7.95408L12.3793 7.62072L12.0469 7.89618L11.5409 8.45505C11.513 8.42914 11.488 8.39918 11.4631 8.37323C11.4704 8.36711 11.4764 8.35949 11.4805 8.35088C11.4846 8.34227 11.4869 8.33286 11.4871 8.32331C11.487 8.3153 11.4853 8.30739 11.4821 8.30003C11.479 8.29267 11.4744 8.28602 11.4686 8.28044C11.4629 8.27487 11.4561 8.2705 11.4486 8.26758C11.4412 8.26466 11.4332 8.26325 11.4252 8.26343C11.4122 8.26341 11.3994 8.26686 11.3882 8.27344C11.366 8.24279 11.3457 8.2108 11.3274 8.17763L12 7.83231L12.3503 7.58679L11.9581 7.76644L11.3254 8.17564C11.3064 8.1437 11.2915 8.11176 11.2745 8.07584C11.2862 8.07196 11.2964 8.06446 11.3036 8.05441C11.3107 8.04437 11.3145 8.0323 11.3144 8.01995C11.3146 8.01159 11.3132 8.00325 11.3101 7.99547C11.307 7.98769 11.3024 7.9806 11.2965 7.97464C11.2906 7.96867 11.2836 7.96396 11.2759 7.96077C11.2682 7.95758 11.2598 7.95599 11.2515 7.95608C11.2425 7.95605 11.2337 7.95809 11.2256 7.96205C11.2136 7.92812 11.2016 7.8902 11.1906 7.85229L11.9292 7.6946L12.3353 7.54489L11.9082 7.61673L11.1896 7.84826C11.1796 7.81234 11.1727 7.77641 11.1647 7.7365C11.1795 7.73506 11.1933 7.72811 11.2033 7.71703C11.2132 7.70594 11.2187 7.69153 11.2186 7.67662C11.2185 7.66024 11.212 7.64455 11.2004 7.63296C11.1888 7.62137 11.1731 7.61483 11.1567 7.61475H11.1497C11.1477 7.57883 11.1447 7.5409 11.1447 7.50099L11.8982 7.54091L12.3284 7.49901L11.8982 7.46104L11.1447 7.49697C11.1447 7.46105 11.1477 7.42113 11.1497 7.38521H11.1607C11.1689 7.38533 11.177 7.38383 11.1845 7.38076C11.1921 7.3777 11.199 7.37314 11.2047 7.36737C11.2105 7.3616 11.215 7.35472 11.2181 7.34716C11.2212 7.33959 11.2227 7.33149 11.2226 7.32333C11.2226 7.3076 11.2166 7.29246 11.2058 7.28098C11.1951 7.26949 11.1804 7.26252 11.1647 7.26146C11.1727 7.22553 11.1796 7.18562 11.1896 7.15369L11.9082 7.38321L12.3353 7.45507L11.9292 7.30535L11.1906 7.14772C11.2016 7.10975 11.2136 7.07383 11.2256 7.0399C11.233 7.04228 11.2407 7.04361 11.2485 7.04388C11.2567 7.04392 11.2647 7.04234 11.2723 7.03925C11.2798 7.03615 11.2866 7.0316 11.2924 7.02585C11.2981 7.0201 11.3027 7.01326 11.3058 7.00573C11.3089 6.99821 11.3105 6.99014 11.3104 6.982C11.3106 6.97006 11.3071 6.95837 11.3005 6.94841C11.2939 6.93846 11.2845 6.93069 11.2735 6.92614C11.2895 6.89017 11.3064 6.85625 11.3254 6.82232L11.9581 7.23549L12.3523 7.41515L12 7.16365L11.3274 6.82032C11.3463 6.78839 11.3673 6.75645 11.3893 6.72252C11.3941 6.72723 11.3999 6.7309 11.4063 6.73331C11.4126 6.73572 11.4194 6.73681 11.4262 6.73652C11.4425 6.73627 11.4581 6.72967 11.4696 6.71812C11.4812 6.70657 11.4878 6.69098 11.488 6.67465C11.4868 6.65576 11.4786 6.638 11.4651 6.62473C11.488 6.59678 11.513 6.57081 11.5399 6.54291L12.0459 7.10377L12.3793 7.37924L12.1038 7.04587L11.5429 6.54093C11.5708 6.51497 11.5978 6.48902 11.6268 6.46505C11.6323 6.47252 11.6395 6.47857 11.6479 6.48274C11.6562 6.4869 11.6654 6.48904 11.6747 6.489C11.683 6.48901 11.6913 6.48735 11.699 6.48412C11.7067 6.4809 11.7136 6.47619 11.7195 6.47025C11.7253 6.4643 11.7299 6.45725 11.733 6.44951C11.7361 6.44176 11.7377 6.43347 11.7375 6.42513C11.7367 6.41155 11.7323 6.39845 11.7246 6.38722C11.7565 6.36924 11.7875 6.34726 11.8204 6.32932L12.1637 6.99998L12.4132 7.35128L12.2335 6.95808L11.8234 6.32734C11.8563 6.30736 11.8892 6.2894 11.9221 6.27344C11.9267 6.28512 11.9346 6.29516 11.945 6.30227C11.9553 6.30938 11.9675 6.31324 11.9801 6.31334C11.9962 6.31355 12.0117 6.30738 12.0233 6.29617C12.0349 6.28496 12.0416 6.26963 12.0419 6.25351C12.0419 6.24471 12.0405 6.23595 12.0379 6.22754C12.0729 6.21354 12.1108 6.20357 12.1467 6.19162L12.3064 6.92814L12.4561 7.33529L12.3832 6.91016L12.1517 6.19162C12.1878 6.18084 12.2244 6.17218 12.2615 6.16567C12.2636 6.18144 12.2717 6.1958 12.2841 6.20578C12.2965 6.21576 12.3122 6.22059 12.3281 6.21931C12.344 6.21803 12.3587 6.21071 12.3694 6.19887C12.38 6.18702 12.3857 6.17156 12.3852 6.15566V6.14967C12.4227 6.14633 12.4604 6.14501 12.498 6.14569Z" fill="#16007E"/>
<path d="M12.5009 7.27545C12.5454 7.27565 12.5887 7.28901 12.6255 7.31385C12.6624 7.33868 12.691 7.37388 12.7078 7.41499C12.7246 7.45609 12.7289 7.50125 12.72 7.54477C12.7111 7.58829 12.6896 7.62822 12.658 7.65948C12.6265 7.69075 12.5864 7.71195 12.5428 7.72042C12.4992 7.72889 12.4541 7.72425 12.4131 7.70707C12.3722 7.6899 12.3372 7.66095 12.3127 7.62391C12.2882 7.58688 12.2752 7.54342 12.2754 7.49901C12.2755 7.46951 12.2815 7.44033 12.2929 7.41313C12.3043 7.38593 12.3209 7.36124 12.3419 7.34048C12.3628 7.31972 12.3876 7.3033 12.4149 7.29214C12.4422 7.28098 12.4714 7.27531 12.5009 7.27545Z" fill="#ECECEC"/>
<path d="M12.5018 7.32734C12.5244 7.32723 12.5469 7.33159 12.5678 7.34017C12.5887 7.34875 12.6077 7.36138 12.6238 7.37733C12.6398 7.39328 12.6526 7.41224 12.6613 7.43313C12.67 7.45401 12.6744 7.4764 12.6745 7.49902C12.6749 7.53363 12.6651 7.5676 12.6462 7.59659C12.6273 7.62559 12.6002 7.64829 12.5683 7.66181C12.5365 7.67532 12.5013 7.67903 12.4673 7.67247C12.4333 7.66591 12.4021 7.64938 12.3775 7.62498C12.353 7.60057 12.3363 7.5694 12.3295 7.53545C12.3228 7.5015 12.3263 7.46631 12.3396 7.43437C12.353 7.40243 12.3755 7.37519 12.4044 7.35612C12.4333 7.33706 12.4672 7.32704 12.5018 7.32734Z" fill="#16007E"/>
</svg>
