<svg width="24" height="16" viewBox="0 0 24 16" fill="none" xmlns="http://www.w3.org/2000/svg">
<path d="M24 0H0V16H24V0Z" fill="#F70000"/>
<path d="M4.5385 4.25858L3.9995 2.59998L3.4607 4.25858H1.7168L3.1276 5.28367L2.5888 6.94207L3.9995 5.91718L5.4104 6.94218L4.8715 5.28367L6.2824 4.25858H4.5385Z" fill="#ECD000"/>
<path d="M9.38109 4.41224L9.46199 4.98794L9.73489 4.47463L10.3073 4.57554L9.90349 4.15743L10.1764 3.64424L9.65399 3.89904L9.25019 3.48083L9.33109 4.05654L8.80859 4.31133L9.38109 4.41224Z" fill="#ECD000"/>
<path d="M7.88085 2.88127L8.18025 3.37957L8.23085 2.80047L8.79725 2.66967L8.26215 2.44257L8.31285 1.86346L7.93155 2.30217L7.39645 2.07507L7.69585 2.57336L7.31445 3.01207L7.88085 2.88127Z" fill="#ECD000"/>
<path d="M8.28153 7.45117L7.91883 7.90547L7.37473 7.70087L7.69473 8.18618L7.33203 8.64047L7.89253 8.48618L8.21243 8.97137L8.23883 8.39077L8.79923 8.23637L8.25513 8.03187L8.28153 7.45117Z" fill="#ECD000"/>
<path d="M10.3525 6.32646L9.77183 6.34676L9.57303 5.80066L9.41283 6.35926L8.83203 6.37956L9.31383 6.70456L9.15363 7.26316L9.61163 6.90536L10.0933 7.23036L9.89463 6.68426L10.3525 6.32646Z" fill="#ECD000"/>
</svg>
