<svg width="24" height="16" viewBox="0 0 24 16" fill="none" xmlns="http://www.w3.org/2000/svg">
<path d="M24 0.00012207H0V16.0001H24V0.00012207Z" fill="#ECECEC"/>
<path d="M24 0.00012207H8V16.0001H24V0.00012207Z" fill="#2A680B"/>
<path d="M16.6013 3.66179C17.5133 3.66027 18.4052 3.92932 19.1641 4.43491C19.9231 4.94049 20.515 5.65988 20.865 6.50201C21.215 7.34414 21.3072 8.27114 21.1301 9.16573C20.9531 10.0603 20.5146 10.8823 19.8701 11.5276C19.2257 12.1728 18.4043 12.6124 17.51 12.7907C16.6156 12.969 15.6885 12.878 14.8459 12.5291C14.0033 12.1803 13.2832 11.5893 12.7766 10.831C12.27 10.0727 11.9997 9.18113 12 8.26918C11.9994 7.66448 12.118 7.0656 12.349 6.50675C12.5799 5.9479 12.9188 5.44004 13.3461 5.01217C13.7734 4.5843 14.2808 4.24482 14.8393 4.01312C15.3979 3.78141 15.9966 3.66203 16.6013 3.66179Z" fill="#ECECEC"/>
<path d="M14.9769 4.06345C15.6014 3.50958 16.3761 3.15326 17.203 3.03951C18.0299 2.92576 18.872 3.05968 19.6228 3.42437C20.3737 3.78905 20.9996 4.36813 21.4215 5.08841C21.8433 5.8087 22.0422 6.63785 21.9929 7.47112C21.9437 8.30438 21.6485 9.10436 21.1448 9.76995C20.6411 10.4355 19.9513 10.9369 19.1627 11.2106C18.3742 11.4843 17.5222 11.5181 16.7144 11.3078C15.9066 11.0974 15.1793 10.6524 14.6244 10.0288C14.2537 9.61498 13.9687 9.13187 13.7857 8.60735C13.6027 8.08282 13.5253 7.52726 13.5581 6.97269C13.5909 6.41812 13.7331 5.87553 13.9766 5.37621C14.2201 4.87689 14.5601 4.43073 14.9769 4.06345Z" fill="#2A680B"/>
<path d="M20.0371 5.21013L18.6348 5.82303L18.9432 6.52775L20.0371 5.21013Z" fill="#ECECEC"/>
<path d="M20.0377 5.21013L19.2639 6.53403L18.6016 6.14478L20.0377 5.21013Z" fill="#ECECEC"/>
<path d="M20.2169 7.00642L19.1959 5.85675L18.627 6.36842L20.2169 7.00642Z" fill="#ECECEC"/>
<path d="M20.2177 7.00644L18.7188 6.67528L18.882 5.9274L20.2177 7.00644Z" fill="#ECECEC"/>
<path d="M18.2793 4.82091L18.4307 6.35041L19.1928 6.27664L18.2793 4.82091Z" fill="#ECECEC"/>
<path d="M18.2793 4.82091L19.2987 5.96981L18.7219 6.47911L18.2793 4.82091Z" fill="#ECECEC"/>
<path d="M18.5664 7.72997L19.341 6.40216L18.6786 6.01606L18.5664 7.72997Z" fill="#ECECEC"/>
<path d="M18.5671 7.72999L18.4141 6.19972L19.1768 6.12359L18.5671 7.72999Z" fill="#ECECEC"/>
<path d="M17.3691 6.38102L18.8665 6.70904L19.0274 5.96117L17.3691 6.38102Z" fill="#ECECEC"/>
<path d="M17.3691 6.38101L18.7715 5.76498L19.0776 6.4697L17.3691 6.38101Z" fill="#ECECEC"/>
</svg>
