<svg width="24" height="16" viewBox="0 0 24 16" fill="none" xmlns="http://www.w3.org/2000/svg">
<path d="M24 0H0V16H24V0Z" fill="#F70000"/>
<path d="M7.89489 4C8.68608 3.99969 9.4596 4.23402 10.1176 4.67336C10.7756 5.11269 11.2885 5.73729 11.5915 6.46817C11.8945 7.19904 11.974 8.00338 11.8198 8.77941C11.6656 9.55544 11.2848 10.2683 10.7255 10.8279C10.1661 11.3874 9.45337 11.7686 8.6774 11.923C7.90143 12.0775 7.09709 11.9984 6.36609 11.6957C5.63509 11.393 5.01029 10.8802 4.5707 10.2224C4.13111 9.56458 3.89648 8.79115 3.89648 7.99996C3.89687 6.93949 4.3182 5.92254 5.06792 5.17253C5.81764 4.42252 6.83442 4.0008 7.89489 4Z" fill="#ECECEC"/>
<path d="M8.8956 4.7981C9.52896 4.79777 10.1482 4.98531 10.675 5.33695C11.2017 5.68859 11.6124 6.18854 11.855 6.7736C12.0976 7.35865 12.1612 8.0025 12.0378 8.62372C11.9145 9.24494 11.6096 9.81562 11.1619 10.2636C10.7142 10.7115 10.1436 11.0166 9.52246 11.1403C8.90129 11.264 8.25741 11.2007 7.67224 10.9584C7.08707 10.716 6.5869 10.3056 6.23501 9.77904C5.88311 9.25244 5.6953 8.6333 5.69531 7.99995C5.69531 7.15103 6.03243 6.33686 6.63256 5.73644C7.23269 5.13602 8.04669 4.79851 8.8956 4.7981Z" fill="#F70000"/>
<path d="M11.2754 7.99986L13.1755 8.61932L13.4844 7.66479L11.2754 7.99986Z" fill="#ECECEC"/>
<path d="M11.2754 7.99986L13.1755 7.38367L13.4844 8.33493L11.2754 7.99986Z" fill="#ECECEC"/>
<path d="M12.6562 6.09735V8.09876H13.6557L12.6562 6.09735Z" fill="#ECECEC"/>
<path d="M12.6562 6.09735L13.8306 7.71548L13.024 8.30307L12.6562 6.09735Z" fill="#ECECEC"/>
<path d="M12.6562 9.9057L13.8306 8.2843L13.024 7.69672L12.6562 9.9057Z" fill="#ECECEC"/>
<path d="M12.6562 9.90568V7.901H13.6557L12.6562 9.90568Z" fill="#ECECEC"/>
<path d="M14.8914 6.8288L12.9922 7.44172L13.3011 8.39298L14.8914 6.8288Z" fill="#ECECEC"/>
<path d="M14.8933 6.8288L13.7189 8.44366L12.9082 7.85608L14.8933 6.8288Z" fill="#ECECEC"/>
<path d="M14.8933 9.17832L13.7189 7.55939L12.9082 8.14697L14.8933 9.17832Z" fill="#ECECEC"/>
<path d="M14.8914 9.17833L12.9922 8.55887L13.3011 7.6076L14.8914 9.17833Z" fill="#ECECEC"/>
</svg>
