<svg width="24" height="16" viewBox="0 0 24 16" fill="none" xmlns="http://www.w3.org/2000/svg">
<path d="M0 16.0001L24 16.0001L24 9.15527e-05L1.39876e-06 8.94546e-05L0 16.0001Z" fill="#ECECEC"/>
<path d="M24 14.8571V13.7143L0 13.7143V14.8571L24 14.8571Z" fill="#CC0000"/>
<path d="M24 12.5714V11.4286L0 11.4286V12.5714L24 12.5714Z" fill="#CC0000"/>
<path d="M24 10.2857V9.14285L0 9.14285V10.2857L24 10.2857Z" fill="#CC0000"/>
<path d="M24 8V6.85715L0 6.85715V8L24 8Z" fill="#CC0000"/>
<path d="M24 5.71426V4.57141L0 4.57141V5.71426L24 5.71426Z" fill="#CC0000"/>
<path d="M24 3.42856V2.28571L0 2.28571V3.42856L24 3.42856Z" fill="#CC0000"/>
<path d="M24 1.14285V0L0 0V1.14285L24 1.14285Z" fill="#CC0000"/>
<path d="M12 0H0V9H12V0Z" fill="#0C106C"/>
<path d="M8.31049 4.27558L9.40072 3.85367L8.23537 3.94646L9.03457 3.09328L8.02488 3.68255L8.37473 2.5671L7.72072 3.53607L7.55191 2.37927L7.38312 3.53607L6.72912 2.5671L7.07896 3.68255L6.06928 3.09328L6.86848 3.94646L5.70312 3.85367L6.79336 4.27558L5.70312 4.69759L6.86848 4.6047L6.06928 5.45798L7.07896 4.86863L6.72912 5.98416L7.38312 5.01511L7.55191 6.17191L7.72072 5.01511L8.37473 5.98416L8.02488 4.86863L9.03457 5.45798L8.23537 4.6047L9.40072 4.69759L8.31049 4.27558Z" fill="#FCC600"/>
<path d="M3.7584 4.2756C3.75853 3.93872 3.84276 3.60721 4.00346 3.31113C4.16415 3.01504 4.39624 2.76377 4.67863 2.58009C4.96103 2.39641 5.2848 2.28615 5.62061 2.25929C5.95641 2.23243 6.29362 2.28983 6.60162 2.42628C6.26155 2.18244 5.86082 2.03708 5.4435 2.0062C5.02617 1.97533 4.60841 2.06012 4.23615 2.25126C3.86389 2.44241 3.55155 2.7325 3.33346 3.08964C3.11537 3.44678 3 3.85713 3 4.2756C3 4.69406 3.11537 5.10443 3.33346 5.46158C3.55155 5.81871 3.86389 6.10879 4.23615 6.29993C4.60841 6.49108 5.02617 6.57589 5.4435 6.54501C5.86082 6.51414 6.26155 6.36878 6.60162 6.12493C6.29362 6.26139 5.95641 6.31879 5.62061 6.29193C5.2848 6.26507 4.96101 6.15481 4.67861 5.97113C4.39622 5.78745 4.16415 5.53617 4.00346 5.24009C3.84276 4.94401 3.75853 4.61248 3.7584 4.2756Z" fill="#FCC600"/>
</svg>
