<svg width="22" height="14" viewBox="0 0 22 14" fill="none" xmlns="http://www.w3.org/2000/svg">
<path d="M22 0H0V14H22V0Z" fill="#003399"/>
<path d="M11.0002 2L10.8447 2.48106H10.3413L10.7486 2.77839L10.593 3.25944L11.0002 2.96212L11.4074 3.25944L11.2519 2.77839L11.6591 2.48106H11.1558L11.0002 2Z" fill="#FFCC00"/>
<path d="M8.82948 2.58453L8.67402 3.06559H8.17065L8.57784 3.36292L8.4223 3.84398L8.82948 3.54665L9.23674 3.84398L9.08121 3.36292L9.48839 3.06559H8.98502L8.82948 2.58453Z" fill="#FFCC00"/>
<path d="M7.24061 4.18121L7.08516 4.66227H6.58179L6.98897 4.9596L6.83343 5.44066L7.24061 5.14333L7.64788 5.44066L7.49234 4.9596L7.89952 4.66227H7.39615L7.24061 4.18121Z" fill="#FFCC00"/>
<path d="M6.6589 7.32463L7.06608 7.62187L6.91054 7.14081L7.31781 6.84357H6.81444L6.6589 6.36243L6.50336 6.84357H6L6.40718 7.14081L6.25172 7.62187L6.6589 7.32463Z" fill="#FFCC00"/>
<path d="M7.39615 9.02476L7.24061 8.5437L7.08516 9.02476H6.58179L6.98897 9.32209L6.83343 9.80315L7.24061 9.50582L7.64788 9.80315L7.49234 9.32209L7.89952 9.02476H7.39615Z" fill="#FFCC00"/>
<path d="M8.98502 10.6214L8.82948 10.1404L8.67402 10.6214H8.17065L8.57784 10.9188L8.4223 11.3998L8.82948 11.1025L9.23674 11.3998L9.08121 10.9188L9.48839 10.6214H8.98502Z" fill="#FFCC00"/>
<path d="M11.4074 11.9999L11.0002 11.7027L10.593 12L10.7486 11.519L10.3413 11.2216H10.8447L11.0002 10.7405L11.1558 11.2216H11.6591L11.2519 11.519L11.4074 11.9999Z" fill="#FFCC00"/>
<path d="M13.3258 10.6214L13.1703 10.1404L13.0148 10.6214H12.5115L12.9187 10.9188L12.7631 11.3998L13.1703 11.1025L13.5776 11.3998L13.422 10.9188L13.8292 10.6214H13.3258Z" fill="#FFCC00"/>
<path d="M14.915 9.02476L14.7594 8.5437L14.604 9.02476H14.1006L14.5078 9.32209L14.3522 9.80315L14.7594 9.50582L15.1667 9.80315L15.0111 9.32209L15.4183 9.02476H14.915Z" fill="#FFCC00"/>
<path d="M15.9999 6.84357H15.4966L15.341 6.36243L15.1855 6.84357H14.6821L15.0894 7.14081L14.9339 7.62187L15.341 7.32463L15.7482 7.62187L15.5927 7.14081L15.9999 6.84357Z" fill="#FFCC00"/>
<path d="M14.3522 5.44066L14.7594 5.14333L15.1667 5.44066L15.0111 4.9596L15.4183 4.66227H14.915L14.7594 4.18121L14.604 4.66227H14.1006L14.5078 4.9596L14.3522 5.44066Z" fill="#FFCC00"/>
<path d="M13.1703 2.58453L13.0148 3.06559H12.5115L12.9187 3.36292L12.7631 3.84398L13.1703 3.54665L13.5776 3.84398L13.422 3.36292L13.8292 3.06559H13.3258L13.1703 2.58453Z" fill="#FFCC00"/>
</svg>
