<svg width="24" height="16" viewBox="0 0 24 16" fill="none" xmlns="http://www.w3.org/2000/svg">
<path d="M0 0.00012207H24V16.0001H0V0.00012207Z" fill="#DA2032"/>
<path d="M8 0.00012207H16V16.0001H8V0.00012207Z" fill="#0066B3"/>
<path d="M2.40039 7.33366H3.30948V11.6005H2.40039V7.33366ZM5.4913 7.33366H6.40039V11.6005H5.4913V7.33366ZM3.4913 11.0671L4.40039 11.6005L5.30948 11.0671H3.4913ZM3.4913 10.5338H5.30948V10.8893H3.4913V10.5338ZM3.4913 7.33366L4.40039 7.86701L5.30948 7.33366H3.4913ZM3.4913 8.04479H5.30948V8.40036H3.4913V8.04479ZM4.8322 8.68577C4.89984 8.77565 4.93641 8.88427 4.9366 8.99586C4.93674 9.28554 4.69662 9.52044 4.40038 9.52052C4.28708 9.52053 4.17842 9.56455 4.09831 9.64288C4.01819 9.72122 3.97318 9.82747 3.97316 9.93825C3.97318 10.049 4.0182 10.1553 4.09832 10.2336C4.17843 10.3119 4.28708 10.356 4.40038 10.356C4.90244 10.356 5.30947 9.95799 5.30947 9.46706C5.30947 9.14072 5.12587 8.84078 4.8322 8.68577ZM4.40038 9.76047C4.4486 9.76047 4.49485 9.7792 4.52895 9.81254C4.56304 9.84588 4.5822 9.8911 4.5822 9.93825C4.5822 9.9854 4.56304 10.0306 4.52895 10.064C4.49485 10.0973 4.4486 10.116 4.40038 10.116C4.35216 10.116 4.30591 10.0973 4.27182 10.064C4.23772 10.0306 4.21856 9.9854 4.21856 9.93825C4.21856 9.8911 4.23772 9.84588 4.27182 9.81254C4.30591 9.7792 4.35216 9.76047 4.40038 9.76047Z" fill="#FFD900"/>
<path d="M3.96858 10.2484C3.90094 10.1585 3.86437 10.0499 3.86418 9.9383C3.86405 9.64862 4.10417 9.41372 4.4004 9.41365C4.5137 9.41364 4.62236 9.36962 4.70248 9.29128C4.78259 9.21294 4.82761 9.1067 4.82762 8.99591C4.8276 8.88513 4.78259 8.77889 4.70247 8.70056C4.62235 8.62222 4.5137 8.57821 4.4004 8.5782C3.89835 8.5782 3.49131 8.97618 3.49131 9.46711C3.49131 9.79345 3.67491 10.0934 3.96858 10.2484ZM4.4004 9.1737C4.35218 9.1737 4.30593 9.15497 4.27184 9.12163C4.23774 9.08828 4.21858 9.04307 4.21858 8.99591C4.21858 8.94876 4.23774 8.90354 4.27184 8.8702C4.30593 8.83686 4.35218 8.81813 4.4004 8.81813C4.44862 8.81813 4.49487 8.83686 4.52897 8.8702C4.56307 8.90354 4.58222 8.94876 4.58222 8.99591C4.58222 9.04307 4.56307 9.08828 4.52897 9.12163C4.49487 9.15497 4.44862 9.1737 4.4004 9.1737ZM3.40221 6.15867C3.40154 6.16515 3.40093 6.17164 3.40039 6.17814C3.40039 6.43747 3.50575 6.68617 3.69328 6.86955C3.88082 7.05292 4.13518 7.15594 4.40039 7.15594C4.66561 7.15594 4.91996 7.05292 5.1075 6.86955C5.29504 6.68617 5.4004 6.43747 5.4004 6.17814C5.40045 6.17221 5.40045 6.16628 5.4004 6.16036C5.31552 6.35049 5.17578 6.51229 4.99829 6.62595C4.8208 6.73962 4.61327 6.80021 4.4011 6.8003C4.1888 6.79999 3.9812 6.73911 3.80377 6.62513C3.62633 6.51115 3.48676 6.34902 3.40217 6.15862L3.40221 6.15867Z" fill="#FFD900"/>
<path d="M4.4011 6.62253C4.80276 6.62253 5.12837 6.30414 5.12837 5.91139C5.12837 5.51865 4.80276 5.20026 4.4011 5.20026C3.99944 5.20026 3.67383 5.51865 3.67383 5.91139C3.67383 6.30414 3.99944 6.62253 4.4011 6.62253Z" fill="#FFD900"/>
<path d="M4.47748 3.60046C4.38712 3.64055 4.35336 3.71284 4.34608 3.78484C4.34154 3.84547 4.3689 3.91375 4.37163 3.97304C4.37163 4.07507 4.26366 4.10867 4.26366 4.2543C4.26366 4.30434 4.31094 4.35949 4.31094 4.48938C4.30276 4.55756 4.26385 4.57294 4.22003 4.57827C4.19592 4.57827 4.17279 4.5689 4.15575 4.55223C4.1387 4.53556 4.12912 4.51295 4.12912 4.48938C4.12919 4.46659 4.1382 4.4447 4.1543 4.42822C4.15717 4.42504 4.16027 4.42207 4.16357 4.41933C4.1843 4.39889 4.21276 4.39097 4.21257 4.33702C4.21257 4.30928 4.19421 4.28404 4.17666 4.23493C4.16012 4.18729 4.17212 4.10764 4.21148 4.06062C4.14785 4.08462 4.10863 4.14427 4.08863 4.19778C4.06754 4.26356 4.0859 4.30144 4.05699 4.35611C4.03936 4.39149 4.01836 4.40616 3.99845 4.43567C3.9749 4.46785 3.94727 4.5431 3.94727 4.57804C3.94727 4.6364 3.95902 4.6942 3.98187 4.74812C4.00471 4.80205 4.03819 4.85104 4.0804 4.89232C4.12261 4.93359 4.17272 4.96633 4.22786 4.98866C4.28301 5.011 4.34212 5.02249 4.40181 5.02249C4.52236 5.02249 4.63798 4.97567 4.72322 4.89232C4.80846 4.80896 4.85635 4.69591 4.85635 4.57804C4.85635 4.5431 4.82908 4.46785 4.80554 4.43567C4.78563 4.40616 4.76426 4.39149 4.74663 4.35611C4.71808 4.30144 4.73645 4.26356 4.71535 4.19778C4.69535 4.14427 4.65608 4.08464 4.59248 4.06062C4.63185 4.10764 4.64385 4.18729 4.6273 4.23493C4.60966 4.284 4.59112 4.30925 4.59112 4.33702C4.59112 4.39097 4.61939 4.39889 4.64012 4.41933C4.64342 4.42207 4.64652 4.42504 4.64939 4.42822C4.66549 4.4447 4.67451 4.46659 4.67457 4.48938C4.67457 4.51295 4.665 4.53556 4.64795 4.55223C4.6309 4.5689 4.60777 4.57827 4.58366 4.57827C4.53339 4.57205 4.4973 4.54911 4.49276 4.48938C4.49276 4.31824 4.56766 4.30733 4.56766 4.18069C4.56766 3.99987 4.40183 3.91427 4.40183 3.78207C4.40183 3.73727 4.41256 3.66091 4.47746 3.60046H4.47748Z" fill="#FFD900"/>
</svg>
