<svg width="24" height="16" viewBox="0 0 24 16" fill="none" xmlns="http://www.w3.org/2000/svg">
<path d="M0 0H24V16H0V0Z" fill="#00AFCA"/>
<path d="M12.0049 8.42024C12.958 8.42024 13.7306 7.64764 13.7306 6.69458C13.7306 5.74153 12.958 4.96893 12.0049 4.96893C11.0519 4.96893 10.2793 5.74153 10.2793 6.69458C10.2793 7.64764 11.0519 8.42024 12.0049 8.42024Z" fill="#FEC50C"/>
<path d="M12.0044 4.73361C12.107 4.73232 12.1454 4.6682 12.1454 4.59125C12.1454 4.48864 12.0044 4 12.0044 4C12.0044 4 11.8633 4.48864 11.8633 4.59125C11.8633 4.6682 11.9018 4.73361 12.0044 4.73361Z" fill="#FEC50C"/>
<path d="M11.6965 10.4327C11.6503 10.4352 11.6054 10.4412 11.5614 10.4553C11.5011 10.4635 11.4434 10.4844 11.3835 10.4942L11.3596 10.4981L11.3194 10.5019C11.322 10.513 11.3237 10.5242 11.3237 10.5353C11.3237 10.5468 11.3224 10.5579 11.3194 10.5673C11.3168 10.5763 11.3087 10.5874 11.3023 10.5943C11.2938 10.6037 11.2848 10.6118 11.2741 10.6169C11.2638 10.6221 11.2523 10.6242 11.2407 10.6251C11.2292 10.6255 11.2172 10.6251 11.2061 10.6208C11.1946 10.6169 11.1839 10.6097 11.174 10.6011C11.1621 10.6041 11.1497 10.6062 11.1381 10.6075C11.1262 10.6088 11.115 10.6088 11.1044 10.6075C11.0924 10.6041 11.08 10.6003 11.0685 10.5956C11.0568 10.5907 11.0457 10.5849 11.0351 10.578C10.9915 10.6037 10.9428 10.628 10.9163 10.6729C10.9013 10.6935 10.8983 10.717 10.8949 10.7413C10.8927 10.7713 10.9004 10.8029 10.9133 10.8307C10.918 10.8388 10.9218 10.8012 10.9364 10.7961C10.9607 10.776 10.9911 10.7614 11.0219 10.7533C11.0479 10.74 11.0445 10.7542 11.0338 10.7747C11.0313 10.7854 11.0167 10.826 11.0364 10.8055C11.1232 10.767 11.2194 10.7593 11.313 10.752C11.4489 10.7379 11.5853 10.7349 11.7217 10.7332C11.8499 10.7349 11.9782 10.7366 12.1064 10.7413C12.1676 10.7431 12.2291 10.7567 12.2894 10.7465C12.3039 10.7426 12.3266 10.7418 12.3352 10.7332C12.3078 10.7174 12.2757 10.717 12.2454 10.7131H12.0008C11.9329 10.7063 11.8619 10.7054 11.7978 10.6798C11.7807 10.6729 11.7649 10.6567 11.7486 10.6742C11.7242 10.6828 11.6982 10.6887 11.6725 10.6905C11.6276 10.6939 11.5827 10.6845 11.5413 10.6678C11.5712 10.6263 11.6071 10.59 11.64 10.5515C11.6135 10.5472 11.5879 10.5417 11.5614 10.5353C11.608 10.5032 11.6511 10.4669 11.6965 10.4327Z" fill="#FEC50C"/>
<path d="M13.6932 10.8758C13.6003 10.9315 13.5294 10.8326 13.4517 10.803C13.3962 10.8331 13.391 10.9339 13.3392 10.9816C13.2772 11.0522 13.2012 10.9619 13.2069 10.8923C13.1327 10.9548 13.0952 11.0965 12.9753 11.0776C12.9185 11.0312 12.8763 10.9339 12.8328 11.0447C12.7974 11.0988 12.7032 11.1759 12.6544 11.0941C12.6393 11.0219 12.6031 10.937 12.5638 11.0517C12.5368 11.1328 12.4503 11.1925 12.3665 11.157C12.3207 11.1195 12.4033 10.9809 12.345 10.9908C12.2577 11.0484 12.207 11.1916 12.0853 11.1801C12.0381 11.1271 12.114 11.0372 12.0622 10.9783C12.001 11.0569 11.9331 11.1719 11.8273 11.1801C11.7761 11.1387 11.8293 11.0198 11.7966 11.0022C11.688 11.0673 11.5735 11.1834 11.4369 11.1471C11.4901 10.9435 11.7125 10.8721 11.8995 10.8562C12.2213 10.8166 12.5598 10.8894 12.8694 10.7732C12.9194 10.7428 13.0406 10.6996 12.9975 10.629C12.9593 10.5733 13.0969 10.5951 13.1102 10.5299C13.102 10.4475 13.1733 10.4588 13.2431 10.4516C13.5557 10.4381 13.8645 10.504 14.1762 10.5151C14.1998 10.667 14.0313 10.7737 13.8956 10.7268C13.8309 10.7373 13.7337 10.5778 13.7527 10.6938C13.7397 10.7547 13.7488 10.8351 13.6932 10.8758V10.8758ZM11.0333 10.5648C11.1056 10.631 11.1564 10.5523 11.224 10.5235C11.4509 10.4455 11.6489 10.3091 11.8441 10.1729C11.9623 10.075 12.0648 9.94809 12.2237 9.91635C12.5335 9.82269 12.8628 9.83405 13.1738 9.74761C13.4106 9.42339 13.8128 9.30772 14.1497 9.12135C14.2254 9.09784 14.2546 9.03558 14.2788 8.96683C14.4074 8.76381 14.5826 8.58391 14.7898 8.46102C14.8878 8.40745 15.0048 8.3766 15.1158 8.4011C15.1078 8.53329 15.032 8.65045 14.9404 8.74187C15.0154 8.74023 15.0797 8.69289 15.1555 8.69556C15.1814 8.83122 15.0349 8.90222 14.957 8.98669C15.0004 8.99678 15.1667 9.00936 15.0761 9.05285C14.9606 9.13301 14.8287 9.18804 14.7221 9.28113C14.8204 9.2988 14.8316 9.31971 14.7316 9.35529C14.6775 9.39199 14.5733 9.40482 14.5633 9.47632C14.6376 9.52199 14.529 9.56734 14.4872 9.58219C14.4071 9.60084 14.323 9.63561 14.4294 9.69642C14.3891 9.75719 14.3028 9.77016 14.2324 9.76414C14.2538 9.83301 14.2847 9.91008 14.1953 9.94046C13.995 10.0919 13.7598 10.2021 13.5079 10.2273C13.8226 10.2515 14.1467 10.1931 14.4156 10.022C14.4511 9.98 14.6372 9.9349 14.5331 9.8996C14.4841 9.87921 14.379 9.85655 14.3719 9.81917C14.5175 9.72932 14.701 9.76128 14.8577 9.7079C14.8618 9.65718 14.7385 9.67129 14.6926 9.65974C14.583 9.65077 14.5895 9.62281 14.6951 9.61244C14.8288 9.57705 14.9801 9.57008 15.0926 9.48293C15.001 9.44052 14.8859 9.47786 14.7882 9.44323C14.9538 9.37077 15.1491 9.36349 15.2977 9.25465C15.3654 9.17936 15.211 9.20288 15.166 9.20472C15.0743 9.22068 15.0319 9.17678 15.1361 9.13868C15.314 9.00752 15.5393 8.92232 15.6642 8.73216C15.6938 8.68959 15.7339 8.56134 15.6395 8.60747C15.5153 8.64876 15.4061 8.78832 15.2646 8.74515C15.5434 8.52912 15.8086 8.28318 15.9991 7.98423C16.0089 7.898 15.8736 7.88868 15.8384 7.95637C15.6593 8.12892 15.4972 8.3326 15.2679 8.44078C15.4875 8.22884 15.6691 7.97789 15.8275 7.7178C15.8614 7.64043 15.9527 7.5474 15.9032 7.46151C15.8233 7.39542 15.7234 7.45592 15.6819 7.535C15.5427 7.71673 15.437 7.92885 15.258 8.07686C15.4147 7.77777 15.577 7.45937 15.581 7.11438C15.5805 7.04336 15.5662 6.93875 15.4698 6.95201C15.3933 6.96572 15.4115 7.08016 15.3799 7.13804C15.3105 7.37373 15.278 7.62898 15.1356 7.83535C15.1676 7.64383 15.2237 7.44418 15.1807 7.25078C15.1606 7.16435 15.021 7.20153 15.039 7.28707C14.8722 8.13174 14.3054 8.87048 13.5642 9.29782C13.2248 9.48985 12.8457 9.61365 12.46 9.66977C12.3562 9.69249 12.244 9.67916 12.1449 9.71453C11.9046 9.89879 11.7591 10.2071 11.4548 10.3037C11.3185 10.3714 11.1407 10.3852 11.0432 10.5119C11.0347 10.5281 11.0329 10.5468 11.0332 10.5648" fill="#FEC50C"/>
<path d="M11.9442 9.70871C11.8993 9.79021 11.8729 9.88388 11.8152 9.95685C11.6415 9.79883 11.3898 9.80404 11.1695 9.79353C10.9877 9.78382 10.7899 9.76704 10.6493 9.63737C10.5013 9.51614 10.3805 9.35875 10.2151 9.26039C10.0642 9.21935 9.912 9.168 9.79065 9.06454C9.53132 8.85315 9.3828 8.53951 9.1294 8.32153C9.08109 8.27397 9.02412 8.23712 8.97 8.19677C8.91857 8.20931 8.94185 8.3203 8.87891 8.26372C8.84467 8.23936 8.75902 8.23698 8.7513 8.27102C8.82878 8.37311 8.90633 8.48968 8.91707 8.62025C8.86423 8.62567 8.77028 8.6091 8.74409 8.62877C8.81426 8.73394 8.9042 8.82722 9.0064 8.90148C8.95738 8.90935 8.86079 8.90507 8.842 8.92482C8.94344 9.00749 9.05221 9.09198 9.18504 9.11322C9.21223 9.14906 9.14528 9.21826 9.20158 9.24886C9.23422 9.2622 9.34194 9.28452 9.26775 9.32165C9.21683 9.35595 9.23572 9.43592 9.30084 9.43412C9.34201 9.45516 9.43444 9.4603 9.44167 9.49671C9.40518 9.53384 9.29164 9.57787 9.38828 9.61265C9.47856 9.66272 9.58152 9.69524 9.68461 9.6988C9.63287 9.74233 9.56913 9.76703 9.51588 9.80798C9.75379 9.94748 10.0175 10.0392 10.2781 10.1276C10.3819 10.1622 10.4868 10.1946 10.5944 10.2149C10.2819 10.1969 9.97979 10.1044 9.69515 9.97771C9.54762 9.91301 9.39909 9.85049 9.2479 9.79476C9.31419 9.76026 9.39087 9.75183 9.45963 9.72198C9.31691 9.69338 9.16099 9.68401 9.03553 9.60556C9.05477 9.57124 9.12766 9.56962 9.16797 9.55216C9.24378 9.53399 9.29081 9.51196 9.18391 9.50537C9.07611 9.47611 8.95248 9.48925 8.85748 9.42421C8.8636 9.38522 8.96302 9.39882 9.00351 9.38198C9.0545 9.37322 9.11119 9.36588 9.15194 9.33157C8.98529 9.26248 8.76731 9.31144 8.63677 9.16427C8.60667 9.10819 8.73026 9.15336 8.76545 9.14402C8.85488 9.14402 8.95099 9.17244 9.03615 9.13638C8.79332 9.02977 8.53321 8.92996 8.34801 8.73276C8.32745 8.70105 8.26584 8.61444 8.31555 8.60374C8.45969 8.62281 8.56403 8.78012 8.71821 8.75564C8.73869 8.72803 8.62864 8.68278 8.60117 8.64331C8.37637 8.45041 8.15819 8.24106 8.00063 7.98838C7.98979 7.90399 8.12243 7.89135 8.15735 7.95652C8.32927 8.12211 8.48458 8.31533 8.69871 8.42837C8.77468 8.46522 8.65507 8.38477 8.63915 8.35559C8.44129 8.12584 8.25294 7.88318 8.11466 7.61259C8.0899 7.56383 8.04889 7.47554 8.12294 7.44958C8.19698 7.41249 8.27045 7.46303 8.30798 7.52663C8.45345 7.71009 8.56049 7.92815 8.7417 8.081C8.58732 7.78141 8.42249 7.46605 8.4185 7.12131C8.42213 7.05449 8.42643 6.9534 8.51705 6.95614C8.59314 6.9446 8.58112 7.04202 8.60606 7.08847C8.68103 7.34174 8.71372 7.61586 8.86413 7.83947C8.83091 7.6516 8.78201 7.45811 8.81449 7.26712C8.82198 7.2044 8.89258 7.18542 8.93867 7.22333C8.97592 7.31452 8.98368 7.42713 9.01763 7.52461C9.21078 8.18537 9.64446 8.76651 10.2096 9.15651C10.6751 9.47574 11.2275 9.66631 11.7912 9.69954C11.8421 9.70398 11.8933 9.70552 11.9443 9.70865" fill="#FEC50C"/>
<path d="M11.2276 10.5839C11.2444 10.5839 11.2579 10.5703 11.2579 10.5536C11.2579 10.5368 11.2444 10.5232 11.2276 10.5232C11.2109 10.5232 11.1973 10.5368 11.1973 10.5536C11.1973 10.5703 11.2109 10.5839 11.2276 10.5839Z" fill="#FEC50C"/>
<path d="M11.2253 10.5611C11.2321 10.5611 11.2376 10.5555 11.2376 10.5487C11.2376 10.5419 11.2321 10.5363 11.2253 10.5363C11.2184 10.5363 11.2129 10.5419 11.2129 10.5487C11.2129 10.5555 11.2184 10.5611 11.2253 10.5611Z" fill="#FEC50C" stroke="#00AFCA" stroke-width="0.1905"/>
<path d="M1.92152 1.16677C1.92152 1.16677 1.76776 1.03756 1.71554 1.10237C1.63154 1.20661 1.97378 1.72586 1.97378 1.90871C1.97378 2.20886 1.77351 2.29047 1.52621 2.33334C1.36028 2.36211 1.09007 2.32131 1.09007 2.32131C1.14095 2.25294 1.17404 2.23279 1.25977 2.22734C1.16433 2.17779 1.06714 2.07022 1.06714 1.90279C1.06714 1.64458 1.17343 1.53815 1.17343 1.24706C1.17343 1.08557 1.04102 0.880005 1.04102 0.880005C1.27508 0.903429 1.39108 1.12015 1.32508 1.29335C1.36233 1.29871 1.39615 1.29031 1.42521 1.26279C1.44233 1.31079 1.41529 1.36652 1.37908 1.41453C1.40825 1.43012 1.42967 1.42077 1.47613 1.41117C1.47172 1.46065 1.44209 1.51319 1.36957 1.56266C1.57999 1.50802 1.70946 1.65468 1.70946 1.80822C1.70946 1.92418 1.6282 2.0073 1.54876 2.0073C1.52309 2.0073 1.48538 1.99673 1.46412 1.98084C1.44911 2.01276 1.45684 2.05548 1.47228 2.0874C1.41407 2.07201 1.37711 2.03743 1.40341 1.96546C1.35869 1.96135 1.32313 1.94625 1.29893 1.91746C1.32345 1.88606 1.36065 1.86798 1.40341 1.86945C1.37085 1.80225 1.40714 1.76465 1.46002 1.73415C1.46002 1.73415 1.42639 1.86945 1.51226 1.86945C1.55087 1.86945 1.58605 1.85687 1.58605 1.79996C1.58605 1.75041 1.54274 1.68177 1.4426 1.68614C1.34247 1.6905 1.26129 1.75518 1.26129 1.91503C1.26129 2.06249 1.38023 2.13583 1.53697 2.14057C1.67829 2.14494 1.78496 2.06838 1.78496 1.92257C1.78496 1.72852 1.50484 1.2862 1.50484 1.11329C1.50484 0.983525 1.62151 0.911109 1.73567 0.911109C1.8837 0.911109 2.00859 1.05769 2.00859 1.05769L1.92164 1.16673L1.92152 1.16677Z" fill="#FEC50C"/>
<path d="M1.95329 4.67428C1.95329 4.9986 1.66212 5.16529 1.43332 5.16529C1.12507 5.16529 0.960938 4.98099 0.960938 4.73972C0.960938 4.60296 0.985994 4.51715 1.04905 4.38625C1.04905 4.38625 1.55753 3.3288 1.7555 2.91981C1.78019 2.8688 1.78816 2.81072 1.78816 2.7256C1.78816 2.59413 1.66064 2.48668 1.52692 2.48338C1.40503 2.48034 1.27223 2.59701 1.27223 2.72997C1.27223 2.89146 1.35601 2.96346 1.44203 2.96346C1.54788 2.96346 1.59006 2.91994 1.59006 2.84562C1.59006 2.79383 1.56505 2.77143 1.5291 2.77143C1.43831 2.77143 1.4638 2.89363 1.4638 2.89363C1.41871 2.88376 1.38166 2.83768 1.40284 2.78015C1.36861 2.77258 1.3377 2.75423 1.31468 2.72778C1.33902 2.70418 1.36694 2.68597 1.40284 2.67978C1.38158 2.60957 1.40999 2.57528 1.47142 2.56085C1.45902 2.58784 1.4586 2.61269 1.46271 2.63613C1.5594 2.60863 1.70761 2.65239 1.70761 2.81943C1.70761 2.98527 1.59251 3.12491 1.37671 3.09002C1.42804 3.11456 1.45415 3.16478 1.45943 3.22094C1.42023 3.20568 1.37671 3.2035 1.37671 3.2035C1.40195 3.24798 1.43699 3.28634 1.43548 3.3737C1.39548 3.3555 1.35831 3.32182 1.30705 3.34314C1.38753 3.5015 1.28865 3.71933 1.03711 3.77086C1.12918 3.66294 1.17425 3.54643 1.17425 3.43043C1.17425 3.0545 1.06977 2.99131 1.06977 2.72995C1.06977 2.62059 1.12598 2.50252 1.23739 2.42226V2.42663C1.16375 2.4069 1.11659 2.37064 1.08947 2.32138C1.25771 2.27367 1.50227 2.27455 1.63356 2.32621C1.78451 2.3437 1.88988 2.45949 1.92092 2.51828C1.95196 2.57699 2.01227 2.78952 1.92092 2.98087C1.82092 3.19027 1.34953 4.18982 1.20255 4.50403C1.17139 4.57067 1.15247 4.64136 1.15247 4.71788C1.15247 4.91036 1.32879 4.97756 1.42895 4.97756C1.54868 4.97756 1.67059 4.88636 1.67059 4.77244C1.67059 4.70027 1.63139 4.6568 1.5748 4.6568C1.43947 4.6568 1.44769 4.77192 1.47467 4.84446C1.39044 4.80659 1.34148 4.73899 1.35494 4.66771C1.30726 4.66116 1.26187 4.63856 1.21998 4.59132C1.25294 4.54972 1.29313 4.51825 1.35494 4.51713C1.32795 4.40654 1.40198 4.35977 1.47467 4.33384C1.45167 4.415 1.43659 4.50841 1.5748 4.50841C1.6756 4.50841 1.75492 4.52587 1.8012 4.59134C1.80392 4.50404 1.81208 4.15926 1.81208 4.15926C1.8179 4.02969 1.63867 4.03339 1.52475 4.07197C1.56774 3.92273 1.65592 3.84205 1.85998 3.86248C1.81044 3.84176 1.75766 3.79515 1.75766 3.70536C1.75769 3.58387 1.85625 3.44928 1.92096 3.40949L1.95331 4.6743L1.95329 4.67428Z" fill="#FEC50C"/>
</svg>
