<svg width="23" height="14" viewBox="0 0 23 14" fill="none" xmlns="http://www.w3.org/2000/svg">
<path d="M22.4 11.2001H0V12.1334H22.4V11.2001Z" fill="#CB001C"/>
<path d="M22.4 13.0667H0V14H22.4V13.0667Z" fill="#CB001C"/>
<path d="M22.4 10.2667H0V11.2001H22.4V10.2667Z" fill="white"/>
<path d="M22.4 12.1334H0V13.0668H22.4V12.1334Z" fill="white"/>
<path d="M22.4 9.33337H0V10.2667H22.4V9.33337Z" fill="#CB001C"/>
<path d="M22.4 8.40009H0V9.33342H22.4V8.40009Z" fill="white"/>
<path d="M22.4 7.46674H0V8.40007H22.4V7.46674Z" fill="#CB001C"/>
<path d="M22.4 6.53339H0V7.46672H22.4V6.53339Z" fill="white"/>
<path d="M22.4 5.60004H0V6.53337H22.4V5.60004Z" fill="#CB001C"/>
<path d="M22.4 4.66675H0V5.60008H22.4V4.66675Z" fill="white"/>
<path d="M22.4 3.7334H0V4.66673H22.4V3.7334Z" fill="#CB001C"/>
<path d="M22.4 2.80005H0V3.73338H22.4V2.80005Z" fill="white"/>
<path d="M22.4 1.8667H0V2.80003H22.4V1.8667Z" fill="#CB001C"/>
<path d="M22.4 0.933411H0V1.86674H22.4V0.933411Z" fill="white"/>
<path d="M22.4 6.10352e-05H0V0.933394H22.4V6.10352e-05Z" fill="#CB001C"/>
<path d="M12.1333 6.10352e-05H0V8.40006H12.1333V6.10352e-05Z" fill="#2A3560"/>
<path d="M2.48593 0.829712L2.68422 1.4662H3.31844L2.8049 1.85643L2.99917 2.48897L2.48593 2.09876L1.97242 2.48897L2.17328 1.85643L1.65918 1.4662H2.28795L2.48593 0.829712Z" fill="white"/>
<path d="M2.48593 3.31854L2.68422 3.95235H3.31844L2.8049 4.34336L2.99917 4.9778L2.48593 4.58618L1.97242 4.9778L2.17328 4.34336L1.65918 3.95235H2.28795L2.48593 3.31854Z" fill="white"/>
<path d="M2.48593 5.8075L2.68422 6.43842H3.31844L2.8049 6.83009L2.99917 7.46676L2.48593 7.07205L1.97242 7.46676L2.17328 6.83009L1.65918 6.43842H2.28795L2.48593 5.8075Z" fill="white"/>
<path d="M4.97917 1.6593L5.16847 2.29313H5.80721L5.29593 2.68534L5.48813 3.31856L4.97917 2.92755L4.46761 3.31856L4.66037 2.68534L4.14795 2.29313H4.78467L4.97917 1.6593Z" fill="white"/>
<path d="M4.97917 4.14819L5.16847 4.78076H5.80721L5.29593 5.17611L5.48813 5.80745L4.97917 5.42211L4.46761 5.80745L4.66037 5.17611L4.14795 4.78076H4.78467L4.97917 4.14819Z" fill="white"/>
<path d="M7.46373 0.829712L7.66201 1.4662H8.29622L7.78328 1.85643L7.98127 2.48897L7.46373 2.09876L6.95652 2.48897L7.15107 1.85643L6.63696 1.4662H7.26946L7.46373 0.829712Z" fill="white"/>
<path d="M7.46373 3.31854L7.66201 3.95235H8.29622L7.78328 4.34336L7.98127 4.9778L7.46373 4.58618L6.95652 4.9778L7.15107 4.34336L6.63696 3.95235H7.26946L7.46373 3.31854Z" fill="white"/>
<path d="M7.46373 5.8075L7.66201 6.43842H8.29622L7.78328 6.83009L7.98127 7.46676L7.46373 7.07205L6.95652 7.46676L7.15107 6.83009L6.63696 6.43842H7.26946L7.46373 5.8075Z" fill="white"/>
<path d="M9.95407 1.6593L10.1485 2.29313H10.785L10.2696 2.68534L10.4672 3.31856L9.95407 2.92755L9.44382 3.31856L9.64144 2.68534L9.12573 2.29313H9.75933L9.95407 1.6593Z" fill="white"/>
<path d="M9.95407 4.14819L10.1485 4.78076H10.785L10.2696 5.17611L10.4672 5.80745L9.95407 5.42211L9.44382 5.80745L9.64144 5.17611L9.12573 4.78076H9.75933L9.95407 4.14819Z" fill="white"/>
</svg>
