<svg width="24" height="15" viewBox="0 0 24 15" fill="none" xmlns="http://www.w3.org/2000/svg">
<path d="M24 0.00012207H0V15.0001H24V0.00012207Z" fill="#ECECEC"/>
<path d="M24 0.00012207H0V5.00012H24V0.00012207Z" fill="#BD1032"/>
<path d="M24 10.0001H0V15.0001H24V10.0001Z" fill="#050505"/>
<path d="M14.4469 6.55245C14.4153 6.53687 14.3861 6.51751 14.3601 6.49488C14.3401 6.46765 14.3518 6.46764 14.4303 6.48882C14.4843 6.50766 14.5429 6.51281 14.5999 6.50374C14.6569 6.49467 14.7102 6.4717 14.7539 6.4373L14.8339 6.37973L14.9274 6.42216C14.9647 6.44004 15.0055 6.45134 15.0475 6.45546C15.1077 6.42567 15.1526 6.37561 15.1726 6.31603C15.1709 6.27064 15.2076 6.28274 15.226 6.33123C15.2355 6.35193 15.2401 6.3742 15.2395 6.39661C15.239 6.41903 15.2332 6.4411 15.2227 6.46138C15.2122 6.48165 15.197 6.4997 15.1783 6.51435C15.1596 6.52899 15.1378 6.5399 15.1142 6.54639C15.0596 6.55829 15.0023 6.55405 14.9507 6.53429C14.864 6.50395 14.8506 6.50395 14.804 6.53429C14.7528 6.5684 14.6918 6.58827 14.6284 6.5915C14.565 6.59472 14.5019 6.58116 14.4469 6.55245Z" fill="#439B4C"/>
<path d="M14.7941 6.26154C14.7534 6.19151 14.7322 6.11346 14.7324 6.03426C14.744 6.0009 14.7558 5.99485 14.7875 6.00393C14.8442 6.02208 14.8576 6.05544 14.8508 6.17672C14.8408 6.26758 14.8275 6.29793 14.7941 6.26154Z" fill="#439B4C"/>
<path d="M10.6737 6.15247C10.662 6.22525 10.8155 6.40401 10.8856 6.43738C10.8372 6.45554 10.7804 6.44948 10.737 6.47074C10.4968 6.69196 9.61591 7.46791 9.45575 7.65584C9.93127 7.66492 10.4585 7.64674 10.9056 7.63161C10.9056 7.33761 11.2109 7.31938 11.4161 7.21331C11.5212 7.36485 11.7865 7.35579 11.8215 7.58011V8.56213H7.75418C7.73855 8.63629 7.70596 8.70664 7.65851 8.76864C7.61106 8.83064 7.54979 8.8829 7.4787 8.92204C7.40762 8.96117 7.32827 8.9863 7.24581 8.99582C7.16336 9.00535 7.07961 8.99905 7 8.97733C7.12514 8.85915 7.3304 8.81671 7.4054 8.65609C7.4346 8.38139 7.34683 8.10696 7.16016 7.88923C7.31497 7.83968 7.46067 7.76918 7.5923 7.68011C7.45384 8.07413 7.96432 8.03169 8.3481 8.02261C8.35972 7.88923 8.35305 7.73165 8.24133 7.70737C8.3947 7.6568 8.53256 7.57366 8.64339 7.46489V7.99834C9.55257 7.99834 10.5318 7.98925 11.4594 7.98925C11.4594 7.8256 11.5079 7.55885 11.3643 7.55885C11.2243 7.55885 11.3577 7.90135 11.2492 7.90135H9.07376C9.07376 7.82562 9.07209 7.67097 9.07209 7.56188C9.16383 7.47699 9.15554 7.48614 9.78284 6.91024C9.84622 6.85569 10.2883 6.49496 10.6737 6.15247Z" fill="#439B4C"/>
<path d="M16.1094 6.14038C16.251 6.23121 16.4053 6.30458 16.5682 6.35857C16.5448 6.42832 16.4781 6.45555 16.4598 6.53136V8.02263C16.6683 8.06197 16.7117 7.95894 16.8118 7.90136C16.8368 8.13779 17.0036 8.37421 17.0003 8.56214H16.1094V6.14038Z" fill="#439B4C"/>
<path d="M14.9252 6.94052C14.9252 6.94052 15.2455 6.69198 15.2455 6.68291V7.98323H15.4808C15.4808 7.48616 15.4741 6.98296 15.4741 6.52229C15.5943 6.435 15.7029 6.33531 15.7978 6.22525V8.55911H13.7591C13.7274 8.07416 13.7224 7.57398 14.343 7.68013V7.48003C14.323 7.44977 14.2896 7.48919 14.283 7.44977C14.3831 7.35581 14.4148 7.33454 14.68 7.1224C14.68 7.37698 14.685 7.98323 14.685 7.98323H14.9219C14.9219 7.98323 14.9252 6.97086 14.9252 6.94052ZM14.1578 7.96809C14.2012 8.0287 14.3514 8.02566 14.343 7.92564C14.3197 7.84378 14.1228 7.87716 14.1578 7.96809Z" fill="#439B4C"/>
<path d="M8.25184 8.72281C8.28452 8.723 8.31581 8.73486 8.33891 8.75584C8.36201 8.77683 8.37509 8.80525 8.3753 8.83493C8.37548 8.84971 8.37242 8.86437 8.36628 8.87805C8.36014 8.89174 8.35103 8.90416 8.33953 8.91462C8.32804 8.92507 8.3144 8.93333 8.29934 8.93891C8.28428 8.9445 8.26811 8.94728 8.25184 8.94713C8.23536 8.94747 8.21901 8.94482 8.20367 8.93934C8.18833 8.93386 8.1743 8.92565 8.16248 8.91521C8.15067 8.90476 8.14129 8.89229 8.13485 8.8785C8.12842 8.86472 8.12506 8.84991 8.125 8.83493C8.12571 8.80486 8.13943 8.77623 8.16316 8.75525C8.18689 8.73427 8.21873 8.72263 8.25184 8.72281Z" fill="#439B4C"/>
<path d="M12.0977 6.14331C12.2401 6.23298 12.3942 6.30629 12.5564 6.36152C12.5331 6.43127 12.4664 6.45547 12.4463 6.53431V8.02255C12.6565 8.06499 12.6983 7.95884 12.7967 7.90429C12.8251 8.13769 12.9903 8.37414 12.9835 8.5651H12.0977V6.14331Z" fill="#439B4C"/>
</svg>
