<svg width="24" height="16" viewBox="0 0 24 16" fill="none" xmlns="http://www.w3.org/2000/svg">
<path d="M24 0.00012207H0V16.0001H24V0.00012207Z" fill="#3C9242"/>
<path d="M3 7.99973L11.9977 14.0001L21 7.99973L11.9977 2.00012L3 7.99973Z" fill="#EDC226"/>
<path d="M16 8.00327C15.9994 8.79423 15.7642 9.56724 15.3244 10.2246C14.8845 10.882 14.2596 11.3942 13.5287 11.6964C12.7978 11.9987 11.9937 12.0775 11.218 11.9229C10.4423 11.7683 9.72985 11.3871 9.17073 10.8277C8.61161 10.2682 8.2309 9.55556 8.07672 8.77977C7.92255 8.00399 8.00185 7.19992 8.30456 6.46918C8.60728 5.73845 9.11984 5.11387 9.77746 4.67439C10.4351 4.23491 11.2082 4.00025 11.9992 4.00009C12.5248 4.00011 13.0452 4.10368 13.5308 4.30489C14.0163 4.50611 14.4575 4.80102 14.829 5.17278C15.2005 5.54454 15.4952 5.98585 15.6961 6.47152C15.897 6.95718 16.0003 7.47768 16 8.00327Z" fill="#2D146E"/>
<path d="M9.71416 6.28715C9.25356 6.28784 8.79356 6.32038 8.33744 6.38454C8.25098 6.58267 8.17996 6.78719 8.125 6.99627C8.64988 6.90568 9.18152 6.86 9.71416 6.85972C11.9688 6.85683 14.1443 7.69021 15.82 9.19866C15.8859 8.99217 15.9335 8.78026 15.9621 8.56541C14.2143 7.09129 12.0006 6.28412 9.71416 6.28715Z" fill="#ECECEC"/>
<path fill-rule="evenodd" clip-rule="evenodd" d="M8.58593 6.83258C8.63163 6.82167 8.67169 6.79431 8.6985 6.75572C8.7253 6.71712 8.73695 6.67 8.73121 6.62337C8.72548 6.57673 8.70276 6.53384 8.6674 6.5029C8.63205 6.47195 8.58654 6.45512 8.53956 6.45561C8.51601 6.45925 8.49343 6.46763 8.47323 6.48026C8.45302 6.49289 8.43561 6.5095 8.42202 6.52908C8.40843 6.54865 8.39897 6.57078 8.3942 6.59412C8.38942 6.61746 8.38943 6.64153 8.39425 6.66487C8.39559 6.68855 8.40163 6.71171 8.41204 6.73302C8.42245 6.75433 8.43701 6.77335 8.45486 6.78897C8.47271 6.80459 8.4935 6.81649 8.516 6.82398C8.5385 6.83147 8.56228 6.83439 8.58593 6.83258ZM8.57789 6.76307C8.60599 6.75579 8.63033 6.7382 8.64602 6.71378C8.66171 6.68936 8.6676 6.65992 8.66254 6.63134C8.66214 6.61676 8.65883 6.6024 8.65281 6.58912C8.64678 6.57584 8.63814 6.5639 8.62743 6.55401C8.61671 6.54411 8.60413 6.53644 8.59042 6.53148C8.5767 6.52652 8.56214 6.52437 8.54757 6.52512C8.53331 6.52805 8.51975 6.53375 8.50769 6.54191C8.49564 6.55008 8.48531 6.56054 8.4773 6.5727C8.46928 6.58485 8.46375 6.59848 8.461 6.61277C8.45825 6.62707 8.45836 6.64177 8.4613 6.65603C8.4631 6.6855 8.47626 6.71312 8.49801 6.73308C8.51976 6.75305 8.54838 6.76379 8.57789 6.76307Z" fill="#3C9242"/>
<path fill-rule="evenodd" clip-rule="evenodd" d="M8.897 6.7998L8.96568 6.79343L8.95612 6.65285L9.11107 6.64247C9.14226 6.6389 9.17095 6.62365 9.19137 6.59981C9.2118 6.57597 9.22246 6.5453 9.22122 6.51393C9.21838 6.48252 9.2035 6.45342 9.17969 6.43274C9.15589 6.41205 9.125 6.40138 9.0935 6.40295L8.87305 6.41809L8.897 6.7998ZM8.95128 6.58262L9.09824 6.57305C9.11104 6.57136 9.12275 6.56492 9.13103 6.55502C9.13932 6.54511 9.14356 6.53247 9.14296 6.51957C9.1428 6.51333 9.1414 6.5072 9.13879 6.50153C9.13619 6.49586 9.13247 6.49077 9.12784 6.48659C9.12321 6.48241 9.11777 6.4792 9.11187 6.47718C9.10596 6.47516 9.09972 6.47437 9.0935 6.47484L8.94492 6.48277L8.95128 6.58262Z" fill="#3C9242"/>
<path d="M9.21788 6.7767C9.21469 6.7224 9.20833 6.60342 9.12525 6.60743L9.02148 6.61463C9.13965 6.60743 9.14919 6.72797 9.15557 6.78072" fill="#3C9242"/>
<path fill-rule="evenodd" clip-rule="evenodd" d="M9.38139 6.76949L9.55867 6.76549C9.58037 6.76536 9.60181 6.76092 9.62178 6.75244C9.64175 6.74396 9.65985 6.7316 9.67501 6.71608C9.69017 6.70055 9.70209 6.68217 9.7101 6.662C9.7181 6.64183 9.72204 6.62028 9.72165 6.59859L9.71836 6.54429C9.71723 6.5011 9.69921 6.46009 9.66815 6.43007C9.63709 6.40005 9.59548 6.38342 9.55228 6.38376L9.375 6.38777L9.38139 6.76949ZM9.44852 6.69688L9.55228 6.69442C9.56582 6.69437 9.57921 6.6916 9.59166 6.68628C9.60411 6.68096 9.61536 6.67319 9.62475 6.66344C9.63414 6.65368 9.64149 6.64214 9.64634 6.6295C9.65118 6.61685 9.65342 6.60336 9.65295 6.58983V6.55549C9.65239 6.52878 9.64137 6.50335 9.62225 6.48468C9.60314 6.46601 9.57745 6.45558 9.55073 6.45565L9.44532 6.45811L9.44852 6.69688Z" fill="#3C9242"/>
<path d="M9.86133 6.76472L10.2064 6.77698L10.2097 6.70501L9.9333 6.69521L9.93657 6.59872L10.1549 6.60444V6.53983L9.93984 6.53166V6.45642L10.2031 6.46542V6.39346L9.87688 6.38202L9.86133 6.76472Z" fill="#3C9242"/>
<path d="M10.3477 6.78442L10.4131 6.79014L10.4351 6.53011L10.4867 6.79668L10.5488 6.80241L10.6461 6.5481L10.6232 6.80896L10.6878 6.81467L10.7214 6.43443L10.6281 6.42626L10.5276 6.67975L10.4752 6.41236L10.3795 6.405L10.3477 6.78442Z" fill="#3C9242"/>
<path d="M11.1348 6.87351L11.421 6.92094L11.4291 6.85716L11.2132 6.82036L11.228 6.73531L11.4071 6.76557L11.4144 6.70015L11.2403 6.67072L11.2484 6.6102L11.4594 6.647L11.4676 6.5824L11.1961 6.53497L11.1348 6.87351Z" fill="#3C9242"/>
<path fill-rule="evenodd" clip-rule="evenodd" d="M11.8594 7.01545L11.9264 7.03384L11.9648 6.89728L12.1101 6.934C12.1411 6.94233 12.1742 6.93801 12.2021 6.92199C12.2299 6.90597 12.2503 6.87956 12.2587 6.84855C12.2655 6.81769 12.2604 6.78541 12.2444 6.75816C12.2284 6.73091 12.2027 6.71071 12.1724 6.7016L11.9616 6.64731L11.8594 7.01545ZM11.9839 6.82696L12.1245 6.86449C12.1306 6.86624 12.137 6.86671 12.1432 6.86586C12.1495 6.86502 12.1555 6.86287 12.1609 6.85958C12.1663 6.85628 12.171 6.85189 12.1746 6.8467C12.1783 6.84151 12.1807 6.83562 12.182 6.82941C12.1853 6.81702 12.1837 6.80381 12.1774 6.79261C12.1712 6.78141 12.1608 6.77311 12.1485 6.76948L12.0063 6.73275L11.9839 6.82696Z" fill="#3C9242"/>
<path fill-rule="evenodd" clip-rule="evenodd" d="M12.3281 7.13998L12.3967 7.16075L12.4399 7.02664L12.582 7.07211C12.6124 7.08187 12.6454 7.0792 12.6739 7.06469C12.7023 7.05018 12.7238 7.025 12.7337 6.99466C12.7386 6.97978 12.7405 6.96407 12.7393 6.94845C12.7381 6.93282 12.7338 6.9176 12.7267 6.90364C12.7195 6.88968 12.7097 6.87728 12.6978 6.86713C12.6858 6.85698 12.672 6.84931 12.6571 6.84453L12.4463 6.77829L12.3281 7.13998ZM12.4607 6.95876L12.6012 7.0035C12.6136 7.00692 12.6268 7.00543 12.6381 6.99932C12.6494 6.99321 12.658 6.98295 12.6619 6.97071C12.6641 6.96464 12.6651 6.95817 12.6646 6.95172C12.6642 6.94526 12.6624 6.93898 12.6594 6.93326C12.6564 6.92754 12.6522 6.92251 12.6472 6.91851C12.6421 6.91451 12.6362 6.91162 12.6299 6.91003L12.491 6.8653L12.4607 6.95876Z" fill="#3C9242"/>
<path d="M12.637 7.23745C12.6546 7.18553 12.6897 7.0721 12.613 7.04741L12.5156 7.01544C12.6274 7.05216 12.5922 7.16558 12.5747 7.21824" fill="#3C9242"/>
<path fill-rule="evenodd" clip-rule="evenodd" d="M12.949 7.35009C12.9948 7.36416 13.0442 7.35965 13.0867 7.33753C13.1291 7.31542 13.1612 7.27748 13.1759 7.23192C13.1867 7.21034 13.1929 7.18673 13.194 7.16261C13.1952 7.13849 13.1912 7.11439 13.1825 7.09188C13.1737 7.06937 13.1604 7.04894 13.1432 7.03192C13.1261 7.0149 13.1056 7.00167 13.083 6.99308C13.0605 6.98448 13.0363 6.98073 13.0122 6.98204C12.9881 6.98335 12.9645 6.9897 12.943 7.00069C12.9215 7.01168 12.9025 7.02705 12.8874 7.04582C12.8722 7.06459 12.8611 7.08636 12.8548 7.10968C12.8357 7.15408 12.8348 7.20424 12.8525 7.24925C12.8701 7.29427 12.9048 7.33051 12.949 7.35009ZM12.973 7.28303C13.0011 7.28847 13.0303 7.28383 13.0554 7.26992C13.0805 7.256 13.0998 7.2337 13.1101 7.20693C13.1204 7.18016 13.121 7.15063 13.1117 7.12351C13.1024 7.09638 13.0838 7.07339 13.0593 7.05857C13.0306 7.05121 13.0002 7.05515 12.9743 7.06958C12.9484 7.08401 12.9291 7.10781 12.9203 7.13608C12.9084 7.16264 12.9073 7.19277 12.9171 7.22016C12.9269 7.24755 12.9469 7.27008 12.973 7.28303Z" fill="#3C9242"/>
<path fill-rule="evenodd" clip-rule="evenodd" d="M13.3977 7.53137C13.443 7.54606 13.4922 7.54333 13.5356 7.52374C13.579 7.50414 13.6135 7.46908 13.6325 7.42539C13.6515 7.3817 13.6535 7.33251 13.6381 7.28743C13.6228 7.24234 13.5912 7.20459 13.5495 7.18154C13.5273 7.17321 13.5037 7.16935 13.48 7.17019C13.4564 7.17102 13.4331 7.17653 13.4116 7.18641C13.39 7.19628 13.3707 7.21032 13.3546 7.22772C13.3385 7.24512 13.3261 7.26552 13.3179 7.28776C13.2966 7.33071 13.293 7.38035 13.3079 7.42593C13.3228 7.4715 13.3551 7.50938 13.3977 7.53137ZM13.4265 7.46587C13.4402 7.47064 13.4547 7.47262 13.4691 7.47169C13.4836 7.47077 13.4977 7.46694 13.5107 7.46046C13.5236 7.45398 13.5351 7.44497 13.5446 7.43396C13.554 7.42295 13.5611 7.41017 13.5654 7.39637C13.5792 7.37054 13.5824 7.34036 13.5744 7.31221C13.5664 7.28405 13.5477 7.26013 13.5223 7.24549C13.4946 7.23923 13.4655 7.24285 13.4401 7.25573C13.4147 7.26861 13.3946 7.28993 13.3833 7.31604C13.3719 7.34214 13.37 7.37139 13.3779 7.39874C13.3858 7.42609 13.403 7.44982 13.4265 7.46587Z" fill="#3C9242"/>
<path d="M13.499 7.36655L13.6331 7.42543L13.6077 7.47449L13.4785 7.41561L13.499 7.36655Z" fill="#3C9242"/>
<path d="M13.5814 7.40176L13.6321 7.42548L13.5544 7.59883L13.5078 7.57676L13.5814 7.40176Z" fill="#3C9242"/>
<path fill-rule="evenodd" clip-rule="evenodd" d="M13.6855 7.65908L13.7479 7.69024L13.8102 7.56243L13.9459 7.63193C13.9742 7.64576 14.0069 7.64785 14.0368 7.63773C14.0666 7.62762 14.0913 7.60612 14.1054 7.57791C14.1195 7.54971 14.1219 7.51707 14.112 7.48712C14.1022 7.45716 14.0809 7.4323 14.0529 7.41794L13.8596 7.32047L13.6855 7.65908ZM13.842 7.50102L13.9731 7.5657C13.9787 7.56871 13.985 7.57054 13.9914 7.57108C13.9978 7.57162 14.0043 7.57086 14.0104 7.56884C14.0165 7.56683 14.0222 7.5636 14.027 7.55935C14.0318 7.5551 14.0358 7.54992 14.0386 7.54411C14.0443 7.53263 14.0453 7.51939 14.0414 7.50717C14.0375 7.49495 14.0291 7.4847 14.0178 7.47861L13.8836 7.41311L13.842 7.50102Z" fill="#3C9242"/>
<path d="M13.9742 7.80368C13.9982 7.75494 14.0508 7.64791 13.979 7.61119L13.8848 7.56326C13.995 7.61838 13.9407 7.72543 13.9183 7.77335" fill="#3C9242"/>
<path d="M14.1152 7.87845L14.4153 8.0469L14.4472 7.98557L14.2076 7.849L14.2543 7.76397L14.444 7.8719L14.4759 7.81221L14.2878 7.70672L14.3262 7.63886L14.5511 7.76887L14.5895 7.70672L14.3017 7.54562L14.1152 7.87845Z" fill="#3C9242"/>
<path d="M14.673 8.06479C14.6523 8.09595 14.673 8.13266 14.7177 8.16218C14.7641 8.19096 14.7944 8.18932 14.8088 8.17019C14.8503 8.10313 14.6108 8.00812 14.6842 7.8947C14.7465 7.79649 14.8567 7.87237 14.8982 7.8987C14.9136 7.90602 14.9273 7.91641 14.9386 7.92923C14.9498 7.94206 14.9583 7.95704 14.9636 7.97327C14.9688 7.98949 14.9707 8.00663 14.9691 8.0236C14.9674 8.04058 14.9623 8.05703 14.9541 8.07198L14.8839 8.02643C14.9079 7.99373 14.8839 7.95938 14.8439 7.9386C14.8088 7.91309 14.7801 7.90271 14.7593 7.9386C14.7226 7.99053 14.9605 8.08957 14.8855 8.20454C14.836 8.28836 14.7417 8.25082 14.681 8.21255C14.6251 8.1782 14.5485 8.09831 14.5979 8.01923L14.673 8.06479Z" fill="#3C9242"/>
<path d="M15.0818 8.33464C15.0579 8.36498 15.0754 8.40251 15.1201 8.43448C15.1649 8.46646 15.1984 8.46801 15.2128 8.44724C15.2559 8.38493 15.0196 8.27552 15.1026 8.16611C15.1713 8.07109 15.2783 8.15336 15.3167 8.1805C15.3317 8.18867 15.3448 8.19985 15.3553 8.21336C15.3658 8.22686 15.3734 8.24239 15.3776 8.25896C15.3818 8.27554 15.3825 8.29281 15.3797 8.30967C15.3769 8.32654 15.3706 8.34263 15.3613 8.35696L15.2959 8.30831C15.3166 8.27552 15.2959 8.242 15.2591 8.21567C15.224 8.19089 15.2001 8.17968 15.1761 8.21247C15.1377 8.26276 15.3661 8.37618 15.2894 8.48559C15.2304 8.56704 15.1377 8.5255 15.0818 8.48232C15.0292 8.44561 14.9541 8.36261 15.01 8.28509L15.0818 8.33464Z" fill="#3C9242"/>
<path fill-rule="evenodd" clip-rule="evenodd" d="M15.4666 8.77386C15.4941 8.8013 15.5292 8.81974 15.5674 8.82676C15.6056 8.83378 15.6451 8.82904 15.6805 8.81316C15.716 8.79728 15.7458 8.77102 15.766 8.73785C15.7862 8.70467 15.7958 8.66615 15.7937 8.62737C15.7915 8.58859 15.7776 8.55138 15.7538 8.52066C15.73 8.48995 15.6975 8.46717 15.6605 8.45536C15.6235 8.44354 15.5838 8.44323 15.5466 8.45447C15.5094 8.46571 15.4765 8.48798 15.4523 8.51832C15.4203 8.55411 15.4039 8.60112 15.4065 8.64904C15.4092 8.69696 15.4308 8.74186 15.4666 8.77386ZM15.5113 8.71718C15.5234 8.72554 15.5371 8.73138 15.5515 8.73438C15.5659 8.73737 15.5808 8.73746 15.5952 8.73463C15.6097 8.73179 15.6234 8.7261 15.6356 8.71788C15.6478 8.70966 15.6582 8.69908 15.6663 8.68676C15.6856 8.66506 15.6958 8.63667 15.6946 8.60762C15.6934 8.57856 15.681 8.55112 15.6599 8.53107C15.6349 8.51753 15.606 8.5132 15.5782 8.51884C15.5504 8.52448 15.5254 8.53974 15.5077 8.56193C15.49 8.58411 15.4806 8.61183 15.4813 8.64021C15.482 8.66859 15.4926 8.69584 15.5113 8.71718Z" fill="#3C9242"/>
<path d="M8.73202 7.1131L8.67969 7.27583L8.76229 7.30281L8.73202 7.1131Z" fill="#ECECEC"/>
<path d="M8.73205 7.1131L8.78603 7.27583L8.70508 7.30281L8.73205 7.1131Z" fill="#ECECEC"/>
<path d="M8.89355 7.23169H8.72266V7.31591L8.89355 7.23169Z" fill="#ECECEC"/>
<path d="M8.89479 7.23169L8.75906 7.33145L8.70508 7.26276L8.89479 7.23169Z" fill="#ECECEC"/>
<path d="M8.56836 7.23169L8.70736 7.33145L8.75807 7.26276L8.56836 7.23169Z" fill="#ECECEC"/>
<path d="M8.56836 7.23169H8.7409V7.31591L8.56836 7.23169Z" fill="#ECECEC"/>
<path d="M8.83168 7.42303L8.77935 7.25949L8.69922 7.28729L8.83168 7.42303Z" fill="#ECECEC"/>
<path d="M8.83238 7.42307L8.69336 7.32168L8.74489 7.25217L8.83238 7.42307Z" fill="#ECECEC"/>
<path d="M8.63086 7.42307L8.76988 7.32168L8.72 7.25217L8.63086 7.42307Z" fill="#ECECEC"/>
<path d="M8.63086 7.42303L8.68484 7.25949L8.76824 7.28729L8.63086 7.42303Z" fill="#ECECEC"/>
<path d="M9.08798 8.7951L9.0332 8.95784L9.1166 8.984L9.08798 8.7951Z" fill="#ECECEC"/>
<path d="M9.08802 8.7951L9.13872 8.95784L9.05859 8.984L9.08802 8.7951Z" fill="#ECECEC"/>
<path d="M9.2474 8.91376H9.07812V8.99962L9.2474 8.91376Z" fill="#ECECEC"/>
<path d="M9.24781 8.91376L9.11208 9.01516L9.06055 8.94402L9.24781 8.91376Z" fill="#ECECEC"/>
<path d="M8.92383 8.91376L9.05956 9.01516L9.11436 8.94402L8.92383 8.91376Z" fill="#ECECEC"/>
<path d="M8.92383 8.91376H9.09637V8.99962L8.92383 8.91376Z" fill="#ECECEC"/>
<path d="M9.18849 9.10591L9.13534 8.94318L9.05273 8.96935L9.18849 9.10591Z" fill="#ECECEC"/>
<path d="M9.18785 9.1059L9.04883 9.00369L9.09789 8.93582L9.18785 9.1059Z" fill="#ECECEC"/>
<path d="M8.98438 9.1059L9.12585 9.00369L9.07351 8.93582L8.98438 9.1059Z" fill="#ECECEC"/>
<path d="M8.98438 9.10591L9.03671 8.94318L9.12011 8.96935L8.98438 9.10591Z" fill="#ECECEC"/>
<path d="M8.59635 9.21057L8.56445 9.32096L8.61678 9.33813L8.59635 9.21057Z" fill="#ECECEC"/>
<path d="M8.59612 9.21057L8.63128 9.32096L8.57812 9.33813L8.59612 9.21057Z" fill="#ECECEC"/>
<path d="M8.70514 9.29071H8.58984V9.34796L8.70514 9.29071Z" fill="#ECECEC"/>
<path d="M8.70518 9.29071L8.61442 9.35859L8.58008 9.31197L8.70518 9.29071Z" fill="#ECECEC"/>
<path d="M8.48828 9.29071L8.57907 9.35859L8.61341 9.31197L8.48828 9.29071Z" fill="#ECECEC"/>
<path d="M8.48828 9.29071H8.60195V9.34796L8.48828 9.29071Z" fill="#ECECEC"/>
<path d="M8.66366 9.41826L8.6285 9.30951L8.57617 9.32831L8.66366 9.41826Z" fill="#ECECEC"/>
<path d="M8.66303 9.41825L8.57227 9.3512L8.60578 9.30377L8.66303 9.41825Z" fill="#ECECEC"/>
<path d="M8.53125 9.41825L8.62201 9.3512L8.59012 9.30377L8.53125 9.41825Z" fill="#ECECEC"/>
<path d="M8.53125 9.41826L8.56476 9.30951L8.6171 9.32831L8.53125 9.41826Z" fill="#ECECEC"/>
<path d="M9.47815 8.63977L9.45117 8.71663L9.4896 8.73053L9.47815 8.63977Z" fill="#ECECEC"/>
<path d="M9.47874 8.63977L9.50248 8.71663L9.46484 8.73053L9.47874 8.63977Z" fill="#ECECEC"/>
<path d="M9.55672 8.69708H9.47656V8.73715L9.55672 8.69708Z" fill="#ECECEC"/>
<path d="M9.55511 8.69708L9.48968 8.74533L9.4668 8.71181L9.55511 8.69708Z" fill="#ECECEC"/>
<path d="M9.39844 8.69708L9.46714 8.74533L9.49002 8.71181L9.39844 8.69708Z" fill="#ECECEC"/>
<path d="M9.39844 8.69708H9.48186V8.73715L9.39844 8.69708Z" fill="#ECECEC"/>
<path d="M9.52701 8.78861L9.49921 8.70929L9.46484 8.72319L9.52701 8.78861Z" fill="#ECECEC"/>
<path d="M9.52637 8.78861L9.46094 8.73955L9.48467 8.70602L9.52637 8.78861Z" fill="#ECECEC"/>
<path d="M9.43164 8.78861L9.49705 8.73955L9.47252 8.70602L9.43164 8.78861Z" fill="#ECECEC"/>
<path d="M9.43164 8.78861L9.45535 8.70929L9.49378 8.72319L9.43164 8.78861Z" fill="#ECECEC"/>
<path d="M9.92192 9.22119L9.87695 9.35775L9.94154 9.38064L9.92192 9.22119Z" fill="#ECECEC"/>
<path d="M9.92214 9.22119L9.96384 9.35775L9.89844 9.38064L9.92214 9.22119Z" fill="#ECECEC"/>
<path d="M10.0544 9.32098H9.91211V9.39131L10.0544 9.32098Z" fill="#ECECEC"/>
<path d="M10.0546 9.32098L9.94014 9.40521L9.89844 9.34551L10.0546 9.32098Z" fill="#ECECEC"/>
<path d="M9.7832 9.32098L9.8985 9.40521L9.9402 9.34551L9.7832 9.32098Z" fill="#ECECEC"/>
<path d="M9.7832 9.32098H9.9255V9.39131L9.7832 9.32098Z" fill="#ECECEC"/>
<path d="M10.0043 9.47792L9.9593 9.34381L9.89062 9.36671L10.0043 9.47792Z" fill="#ECECEC"/>
<path d="M10.0056 9.47794L9.88867 9.39535L9.9304 9.3381L10.0056 9.47794Z" fill="#ECECEC"/>
<path d="M9.83789 9.47794L9.94912 9.39535L9.90742 9.3381L9.83789 9.47794Z" fill="#ECECEC"/>
<path d="M9.83789 9.47792L9.87879 9.34381L9.94585 9.36671L9.83789 9.47792Z" fill="#ECECEC"/>
<path d="M9.80083 9.61862L9.75586 9.75519L9.82291 9.77808L9.80083 9.61862Z" fill="#ECECEC"/>
<path d="M9.79992 9.61862L9.84244 9.75519L9.77539 9.77808L9.79992 9.61862Z" fill="#ECECEC"/>
<path d="M9.93526 9.71835H9.79297V9.78785L9.93526 9.71835Z" fill="#ECECEC"/>
<path d="M9.93598 9.71835L9.81904 9.80258L9.77734 9.74452L9.93598 9.71835Z" fill="#ECECEC"/>
<path d="M9.66602 9.71835L9.78051 9.80258L9.82221 9.74452L9.66602 9.71835Z" fill="#ECECEC"/>
<path d="M9.66602 9.71835H9.80749V9.78785L9.66602 9.71835Z" fill="#ECECEC"/>
<path d="M9.88302 9.87783L9.84132 9.74127L9.77344 9.76334L9.88302 9.87783Z" fill="#ECECEC"/>
<path d="M9.88369 9.87783L9.76758 9.79197L9.81172 9.73636L9.88369 9.87783Z" fill="#ECECEC"/>
<path d="M9.7168 9.87783L9.83209 9.79197L9.79039 9.73636L9.7168 9.87783Z" fill="#ECECEC"/>
<path d="M9.7168 9.87783L9.76014 9.74127L9.82882 9.76334L9.7168 9.87783Z" fill="#ECECEC"/>
<path d="M13.2407 6.58975L13.1875 6.7533L13.2709 6.77865L13.2407 6.58975Z" fill="#ECECEC"/>
<path d="M13.2396 6.58975L13.2935 6.7533L13.2109 6.77865L13.2396 6.58975Z" fill="#ECECEC"/>
<path d="M13.4033 6.70834H13.2324V6.79501L13.4033 6.70834Z" fill="#ECECEC"/>
<path d="M13.4037 6.70834L13.2647 6.80974L13.2148 6.73941L13.4037 6.70834Z" fill="#ECECEC"/>
<path d="M13.0762 6.70834L13.2168 6.80974L13.2667 6.73941L13.0762 6.70834Z" fill="#ECECEC"/>
<path d="M13.0762 6.70834H13.2487V6.79501L13.0762 6.70834Z" fill="#ECECEC"/>
<path d="M13.3431 6.90128L13.2883 6.73773L13.209 6.76472L13.3431 6.90128Z" fill="#ECECEC"/>
<path d="M13.3418 6.9013L13.2012 6.79991L13.2519 6.72958L13.3418 6.9013Z" fill="#ECECEC"/>
<path d="M13.1406 6.9013L13.2796 6.79991L13.2297 6.72958L13.1406 6.9013Z" fill="#ECECEC"/>
<path d="M13.1406 6.90128L13.1946 6.73773L13.278 6.76472L13.1406 6.90128Z" fill="#ECECEC"/>
<path d="M14.8032 9.23679L14.75 9.40033L14.8334 9.42732L14.8032 9.23679Z" fill="#ECECEC"/>
<path d="M14.8027 9.23679L14.8567 9.40033L14.7773 9.42732L14.8027 9.23679Z" fill="#ECECEC"/>
<path d="M14.9675 9.35529H14.7949V9.43951L14.9675 9.35529Z" fill="#ECECEC"/>
<path d="M14.9671 9.35529L14.8297 9.45587L14.7773 9.38553L14.9671 9.35529Z" fill="#ECECEC"/>
<path d="M14.6406 9.35529L14.7813 9.45587L14.8303 9.38553L14.6406 9.35529Z" fill="#ECECEC"/>
<path d="M14.6406 9.35529H14.8132V9.43951L14.6406 9.35529Z" fill="#ECECEC"/>
<path d="M14.9069 9.54667L14.8521 9.38394L14.7695 9.4093L14.9069 9.54667Z" fill="#ECECEC"/>
<path d="M14.9082 9.54667L14.7676 9.44609L14.8183 9.37576L14.9082 9.54667Z" fill="#ECECEC"/>
<path d="M14.7031 9.54667L14.8421 9.44609L14.7906 9.37576L14.7031 9.54667Z" fill="#ECECEC"/>
<path d="M14.7031 9.54667L14.7555 9.38394L14.8389 9.4093L14.7031 9.54667Z" fill="#ECECEC"/>
<path d="M15.3619 9.33237L15.3242 9.43949L15.3815 9.45748L15.3619 9.33237Z" fill="#ECECEC"/>
<path d="M15.36 9.33237L15.3951 9.43949L15.3379 9.45748L15.36 9.33237Z" fill="#ECECEC"/>
<path d="M15.4667 9.41089H15.3555V9.46731L15.4667 9.41089Z" fill="#ECECEC"/>
<path d="M15.4661 9.41089L15.3753 9.47794L15.3418 9.43133L15.4661 9.41089Z" fill="#ECECEC"/>
<path d="M15.252 9.41089L15.3427 9.47794L15.3795 9.43133L15.252 9.41089Z" fill="#ECECEC"/>
<path d="M15.252 9.41089H15.3664V9.46731L15.252 9.41089Z" fill="#ECECEC"/>
<path d="M15.4262 9.5385L15.3943 9.42892L15.3379 9.44773L15.4262 9.5385Z" fill="#ECECEC"/>
<path d="M15.4256 9.53852L15.334 9.47147L15.3691 9.42404L15.4256 9.53852Z" fill="#ECECEC"/>
<path d="M15.293 9.53852L15.3837 9.47147L15.3518 9.42404L15.293 9.53852Z" fill="#ECECEC"/>
<path d="M15.293 9.5385L15.3273 9.42892L15.3805 9.44773L15.293 9.5385Z" fill="#ECECEC"/>
<path d="M14.9675 9.61862L14.9258 9.75519L14.9912 9.77808L14.9675 9.61862Z" fill="#ECECEC"/>
<path d="M14.9677 9.61862L15.0111 9.75519L14.9473 9.77808L14.9677 9.61862Z" fill="#ECECEC"/>
<path d="M15.1032 9.71835H14.9609V9.78785L15.1032 9.71835Z" fill="#ECECEC"/>
<path d="M15.1035 9.71835L14.9914 9.80258L14.9473 9.74452L15.1035 9.71835Z" fill="#ECECEC"/>
<path d="M14.832 9.71835L14.9489 9.80258L14.9898 9.74452L14.832 9.71835Z" fill="#ECECEC"/>
<path d="M14.832 9.71835H14.9743V9.78785L14.832 9.71835Z" fill="#ECECEC"/>
<path d="M15.0515 9.87783L15.0082 9.74127L14.9395 9.76334L15.0515 9.87783Z" fill="#ECECEC"/>
<path d="M15.0508 9.87783L14.9355 9.79197L14.9772 9.73636L15.0508 9.87783Z" fill="#ECECEC"/>
<path d="M14.8848 9.87783L14.9992 9.79197L14.9575 9.73636L14.8848 9.87783Z" fill="#ECECEC"/>
<path d="M14.8848 9.87783L14.9273 9.74127L14.996 9.76334L14.8848 9.87783Z" fill="#ECECEC"/>
<path d="M14.0032 10.4576L13.959 10.5925L14.026 10.6154L14.0032 10.4576Z" fill="#ECECEC"/>
<path d="M14.0039 10.4576L14.0472 10.5925L13.9785 10.6154L14.0039 10.4576Z" fill="#ECECEC"/>
<path d="M14.1384 10.5574H13.9961V10.6285L14.1384 10.5574Z" fill="#ECECEC"/>
<path d="M14.1383 10.5574L14.0222 10.64L13.9805 10.5819L14.1383 10.5574Z" fill="#ECECEC"/>
<path d="M13.8691 10.5574L13.9844 10.64L14.0229 10.5819L13.8691 10.5574Z" fill="#ECECEC"/>
<path d="M13.8691 10.5574H14.0114V10.6285L13.8691 10.5574Z" fill="#ECECEC"/>
<path d="M14.0847 10.716L14.0446 10.5802L13.9727 10.6015L14.0847 10.716Z" fill="#ECECEC"/>
<path d="M14.086 10.716L13.9707 10.6317L14.0124 10.5745L14.086 10.716Z" fill="#ECECEC"/>
<path d="M13.9199 10.716L14.0344 10.6317L13.9935 10.5745L13.9199 10.716Z" fill="#ECECEC"/>
<path d="M13.9199 10.716L13.9633 10.5802L14.0311 10.6015L13.9199 10.716Z" fill="#ECECEC"/>
<path d="M13.9976 10.8902L13.9648 10.9973L14.0188 11.0153L13.9976 10.8902Z" fill="#ECECEC"/>
<path d="M13.9973 10.8902L14.0325 10.9973L13.9785 11.0153L13.9973 10.8902Z" fill="#ECECEC"/>
<path d="M14.1054 10.9694H13.9941V11.0258L14.1054 10.9694Z" fill="#ECECEC"/>
<path d="M14.1061 10.9694L14.012 11.0348L13.9785 10.989L14.1061 10.9694Z" fill="#ECECEC"/>
<path d="M13.8906 10.9694L13.9814 11.0348L14.0149 10.989L13.8906 10.9694Z" fill="#ECECEC"/>
<path d="M13.8906 10.9694H14.0035V11.0258L13.8906 10.9694Z" fill="#ECECEC"/>
<path d="M14.0642 11.0947L14.0291 10.9884L13.9727 11.0047L14.0642 11.0947Z" fill="#ECECEC"/>
<path d="M14.0656 11.0946L13.9707 11.0292L14.0059 10.9826L14.0656 11.0946Z" fill="#ECECEC"/>
<path d="M13.9316 11.0946L14.0232 11.0292L13.9881 10.9826L13.9316 11.0946Z" fill="#ECECEC"/>
<path d="M13.9316 11.0947L13.9668 10.9884L14.02 11.0047L13.9316 11.0947Z" fill="#ECECEC"/>
<path d="M14.4037 10.1698L14.3652 10.2794L14.4176 10.2966L14.4037 10.1698Z" fill="#ECECEC"/>
<path d="M14.4041 10.1698L14.436 10.2794L14.3828 10.2966L14.4041 10.1698Z" fill="#ECECEC"/>
<path d="M14.5087 10.249H14.3926V10.3063L14.5087 10.249Z" fill="#ECECEC"/>
<path d="M14.5104 10.249L14.418 10.3177L14.3828 10.2719L14.5104 10.249Z" fill="#ECECEC"/>
<path d="M14.293 10.249L14.3854 10.3177L14.4172 10.2719L14.293 10.249Z" fill="#ECECEC"/>
<path d="M14.293 10.249H14.4091V10.3063L14.293 10.249Z" fill="#ECECEC"/>
<path d="M14.4689 10.3766L14.4321 10.2687L14.3789 10.2867L14.4689 10.3766Z" fill="#ECECEC"/>
<path d="M14.4682 10.3766L14.375 10.3104L14.4118 10.2638L14.4682 10.3766Z" fill="#ECECEC"/>
<path d="M14.334 10.3766L14.4264 10.3104L14.3929 10.2638L14.334 10.3766Z" fill="#ECECEC"/>
<path d="M14.334 10.3766L14.3708 10.2687L14.4231 10.2867L14.334 10.3766Z" fill="#ECECEC"/>
<path d="M14.7222 9.94083L14.6797 10.0758L14.7451 10.0978L14.7222 9.94083Z" fill="#ECECEC"/>
<path d="M14.7226 9.94083L14.7676 10.0758L14.6973 10.0978L14.7226 9.94083Z" fill="#ECECEC"/>
<path d="M14.8571 10.0397H14.7148V10.11L14.8571 10.0397Z" fill="#ECECEC"/>
<path d="M14.856 10.0397L14.7448 10.1231L14.7031 10.0642L14.856 10.0397Z" fill="#ECECEC"/>
<path d="M14.5859 10.0397L14.7029 10.1231L14.7446 10.0642L14.5859 10.0397Z" fill="#ECECEC"/>
<path d="M14.5859 10.0397H14.7282V10.11L14.5859 10.0397Z" fill="#ECECEC"/>
<path d="M14.8054 10.1968L14.7637 10.0635L14.6934 10.0856L14.8054 10.1968Z" fill="#ECECEC"/>
<path d="M14.8047 10.1968L14.6895 10.1142L14.7312 10.0561L14.8047 10.1968Z" fill="#ECECEC"/>
<path d="M14.6387 10.1968L14.7564 10.1142L14.7114 10.0561L14.6387 10.1968Z" fill="#ECECEC"/>
<path d="M14.6387 10.1968L14.6845 10.0635L14.7499 10.0856L14.6387 10.1968Z" fill="#ECECEC"/>
<path d="M13.985 10.0937L13.9531 10.2025L14.0055 10.2205L13.985 10.0937Z" fill="#ECECEC"/>
<path d="M13.9848 10.0937L14.0232 10.2025L13.9668 10.2205L13.9848 10.0937Z" fill="#ECECEC"/>
<path d="M14.0966 10.1739H13.9805V10.2303L14.0966 10.1739Z" fill="#ECECEC"/>
<path d="M14.0983 10.1739L14.0042 10.2401L13.9707 10.1927L14.0983 10.1739Z" fill="#ECECEC"/>
<path d="M13.8789 10.1739L13.9697 10.2401L14.0032 10.1927L13.8789 10.1739Z" fill="#ECECEC"/>
<path d="M13.8789 10.1739H13.9942V10.2303L13.8789 10.1739Z" fill="#ECECEC"/>
<path d="M14.0573 10.3023L14.0204 10.1919L13.9648 10.209L14.0573 10.3023Z" fill="#ECECEC"/>
<path d="M14.0569 10.3022L13.9629 10.2327L13.9948 10.1894L14.0569 10.3022Z" fill="#ECECEC"/>
<path d="M13.9199 10.3022L14.0107 10.2327L13.9772 10.1894L13.9199 10.3022Z" fill="#ECECEC"/>
<path d="M13.9199 10.3023L13.9551 10.1919L14.0107 10.209L13.9199 10.3023Z" fill="#ECECEC"/>
<path d="M10.4766 8.02405L10.4316 8.15897L10.5003 8.18023L10.4766 8.02405Z" fill="#ECECEC"/>
<path d="M10.4749 8.02405L10.5182 8.15897L10.4512 8.18023L10.4749 8.02405Z" fill="#ECECEC"/>
<path d="M10.611 8.12216H10.4688V8.19331L10.611 8.12216Z" fill="#ECECEC"/>
<path d="M10.6121 8.12216L10.4968 8.20803L10.4551 8.14833L10.6121 8.12216Z" fill="#ECECEC"/>
<path d="M10.3379 8.12216L10.454 8.20803L10.4957 8.14833L10.3379 8.12216Z" fill="#ECECEC"/>
<path d="M10.3379 8.12216H10.4802V8.19331L10.3379 8.12216Z" fill="#ECECEC"/>
<path d="M10.5588 8.28166L10.5179 8.14673L10.4492 8.16881L10.5588 8.28166Z" fill="#ECECEC"/>
<path d="M10.5575 8.28164L10.4414 8.19823L10.4831 8.14017L10.5575 8.28164Z" fill="#ECECEC"/>
<path d="M10.3887 8.28164L10.5073 8.19823L10.4655 8.14017L10.3887 8.28164Z" fill="#ECECEC"/>
<path d="M10.3887 8.28166L10.4353 8.14673L10.5007 8.16881L10.3887 8.28166Z" fill="#ECECEC"/>
<path d="M13.0866 7.68634L13.0547 7.79591L13.1078 7.81226L13.0866 7.68634Z" fill="#ECECEC"/>
<path d="M13.0875 7.68634L13.1259 7.79591L13.0703 7.81226L13.0875 7.68634Z" fill="#ECECEC"/>
<path d="M13.1993 7.76648H13.084V7.8229L13.1993 7.76648Z" fill="#ECECEC"/>
<path d="M13.1982 7.76648L13.1042 7.83436L13.0723 7.78774L13.1982 7.76648Z" fill="#ECECEC"/>
<path d="M12.9805 7.76648L13.0737 7.83436L13.1056 7.78774L12.9805 7.76648Z" fill="#ECECEC"/>
<path d="M12.9805 7.76648H13.0974V7.8229L12.9805 7.76648Z" fill="#ECECEC"/>
<path d="M13.1572 7.89486L13.1187 7.78528L13.0664 7.80327L13.1572 7.89486Z" fill="#ECECEC"/>
<path d="M13.1565 7.89486L13.0625 7.82618L13.096 7.77957L13.1565 7.89486Z" fill="#ECECEC"/>
<path d="M13.0215 7.89486L13.1139 7.82618L13.0804 7.77957L13.0215 7.89486Z" fill="#ECECEC"/>
<path d="M13.0215 7.89486L13.0566 7.78528L13.1114 7.80327L13.0215 7.89486Z" fill="#ECECEC"/>
<path d="M11.9993 9.62848L11.9453 9.7912L12.0279 9.81819L11.9993 9.62848Z" fill="#ECECEC"/>
<path d="M11.9996 9.62848L12.0528 9.7912L11.9727 9.81819L11.9996 9.62848Z" fill="#ECECEC"/>
<path d="M12.1615 9.74615H11.9922V9.83284L12.1615 9.74615Z" fill="#ECECEC"/>
<path d="M12.161 9.74615L12.0237 9.84837L11.9746 9.77805L12.161 9.74615Z" fill="#ECECEC"/>
<path d="M11.8359 9.74615L11.9782 9.84837L12.024 9.77805L11.8359 9.74615Z" fill="#ECECEC"/>
<path d="M11.8359 9.74615H12.0068V9.83284L11.8359 9.74615Z" fill="#ECECEC"/>
<path d="M12.099 9.93916L12.0482 9.77725L11.9648 9.80261L12.099 9.93916Z" fill="#ECECEC"/>
<path d="M12.1003 9.93922L11.9629 9.83782L12.0111 9.76913L12.1003 9.93922Z" fill="#ECECEC"/>
<path d="M11.8984 9.93922L12.0375 9.83782L11.9868 9.76913L11.8984 9.93922Z" fill="#ECECEC"/>
<path d="M11.8984 9.93916L11.9508 9.77725L12.0342 9.80261L11.8984 9.93916Z" fill="#ECECEC"/>
<path d="M12.4641 8.86218L12.4199 8.99793L12.4886 9.01919L12.4641 8.86218Z" fill="#ECECEC"/>
<path d="M12.4632 8.86218L12.5082 8.99793L12.4395 9.01919L12.4632 8.86218Z" fill="#ECECEC"/>
<path d="M12.599 8.96118H12.4551V9.03069L12.599 8.96118Z" fill="#ECECEC"/>
<path d="M12.5981 8.96118L12.4812 9.04459L12.4395 8.98735L12.5981 8.96118Z" fill="#ECECEC"/>
<path d="M12.3281 8.96118L12.4426 9.04459L12.4843 8.98735L12.3281 8.96118Z" fill="#ECECEC"/>
<path d="M12.3281 8.96118H12.4696V9.03069L12.3281 8.96118Z" fill="#ECECEC"/>
<path d="M12.5476 9.12061L12.5026 8.98404L12.4355 9.00694L12.5476 9.12061Z" fill="#ECECEC"/>
<path d="M12.5469 9.12058L12.4316 9.03554L12.4733 8.97748L12.5469 9.12058Z" fill="#ECECEC"/>
<path d="M12.377 9.12058L12.4939 9.03554L12.4522 8.97748L12.377 9.12058Z" fill="#ECECEC"/>
<path d="M12.377 9.12061L12.4219 8.98404L12.4906 9.00694L12.377 9.12061Z" fill="#ECECEC"/>
<path d="M12 8.50409L11.9551 8.6382L12.0238 8.66027L12 8.50409Z" fill="#ECECEC"/>
<path d="M11.999 8.50409L12.0423 8.6382L11.9785 8.66027L11.999 8.50409Z" fill="#ECECEC"/>
<path d="M12.1345 8.60135H11.9922V8.67332L12.1345 8.60135Z" fill="#ECECEC"/>
<path d="M12.1347 8.60135L12.0202 8.68476L11.9785 8.62753L12.1347 8.60135Z" fill="#ECECEC"/>
<path d="M11.8652 8.60135L11.9822 8.68476L12.0206 8.62753L11.8652 8.60135Z" fill="#ECECEC"/>
<path d="M11.8652 8.60135H12.0075V8.67332L11.8652 8.60135Z" fill="#ECECEC"/>
<path d="M12.0847 8.76077L12.0414 8.62503L11.9727 8.64629L12.0847 8.76077Z" fill="#ECECEC"/>
<path d="M12.084 8.76081L11.9688 8.6774L12.0104 8.61853L12.084 8.76081Z" fill="#ECECEC"/>
<path d="M11.916 8.76081L12.0313 8.6774L11.9896 8.61853L11.916 8.76081Z" fill="#ECECEC"/>
<path d="M11.916 8.76077L11.9594 8.62503L12.028 8.64629L11.916 8.76077Z" fill="#ECECEC"/>
<path d="M11.5957 8.89084L11.5605 8.99959L11.6161 9.01759L11.5957 8.89084Z" fill="#ECECEC"/>
<path d="M11.5953 8.89084L11.6337 8.99959L11.5781 9.01759L11.5953 8.89084Z" fill="#ECECEC"/>
<path d="M11.7055 8.96936H11.5918V9.02578L11.7055 8.96936Z" fill="#ECECEC"/>
<path d="M11.7057 8.96936L11.6133 9.03641L11.5781 8.9898L11.7057 8.96936Z" fill="#ECECEC"/>
<path d="M11.4902 8.96936L11.581 9.03641L11.6137 8.9898L11.4902 8.96936Z" fill="#ECECEC"/>
<path d="M11.4902 8.96936H11.6023V9.02578L11.4902 8.96936Z" fill="#ECECEC"/>
<path d="M11.6634 9.09778L11.6298 8.98901L11.5742 9.0062L11.6634 9.09778Z" fill="#ECECEC"/>
<path d="M11.6631 9.09771L11.5723 9.02983L11.6074 8.98404L11.6631 9.09771Z" fill="#ECECEC"/>
<path d="M11.5312 9.09771L11.622 9.02983L11.5885 8.98404L11.5312 9.09771Z" fill="#ECECEC"/>
<path d="M11.5312 9.09778L11.5664 8.98901L11.6187 9.0062L11.5312 9.09778Z" fill="#ECECEC"/>
<path d="M11.7988 9.20157L11.7734 9.27843L11.8119 9.2907L11.7988 9.20157Z" fill="#ECECEC"/>
<path d="M11.7999 9.20157L11.8236 9.27843L11.7852 9.2907L11.7999 9.20157Z" fill="#ECECEC"/>
<path d="M11.8767 9.25717H11.7949V9.29806L11.8767 9.25717Z" fill="#ECECEC"/>
<path d="M11.8774 9.25717L11.8136 9.30542L11.7891 9.2719L11.8774 9.25717Z" fill="#ECECEC"/>
<path d="M11.7188 9.25717L11.7874 9.30542L11.812 9.2719L11.7188 9.25717Z" fill="#ECECEC"/>
<path d="M11.7188 9.25717H11.8021V9.29806L11.7188 9.25717Z" fill="#ECECEC"/>
<path d="M11.8453 9.3496L11.8208 9.27109L11.7832 9.28335L11.8453 9.3496Z" fill="#ECECEC"/>
<path d="M11.8447 9.34957L11.7793 9.30051L11.8063 9.26779L11.8447 9.34957Z" fill="#ECECEC"/>
<path d="M11.75 9.34957L11.8162 9.30051L11.7917 9.26779L11.75 9.34957Z" fill="#ECECEC"/>
<path d="M11.75 9.3496L11.7778 9.27109L11.8162 9.28335L11.75 9.3496Z" fill="#ECECEC"/>
<path d="M13.1993 10.5549L13.1543 10.6914L13.223 10.7143L13.1993 10.5549Z" fill="#ECECEC"/>
<path d="M13.1992 10.5549L13.2442 10.6914L13.1738 10.7143L13.1992 10.5549Z" fill="#ECECEC"/>
<path d="M13.3337 10.653H13.1914V10.7266L13.3337 10.653Z" fill="#ECECEC"/>
<path d="M13.332 10.653L13.2167 10.738L13.1758 10.6792L13.332 10.653Z" fill="#ECECEC"/>
<path d="M13.0625 10.653L13.1761 10.738L13.2203 10.6792L13.0625 10.653Z" fill="#ECECEC"/>
<path d="M13.0625 10.653H13.2048V10.7266L13.0625 10.653Z" fill="#ECECEC"/>
<path d="M13.2811 10.8141L13.237 10.6776L13.1699 10.7005L13.2811 10.8141Z" fill="#ECECEC"/>
<path d="M13.2805 10.8141L13.166 10.7307L13.2077 10.6727L13.2805 10.8141Z" fill="#ECECEC"/>
<path d="M13.1133 10.8141L13.2286 10.7307L13.1869 10.6727L13.1133 10.8141Z" fill="#ECECEC"/>
<path d="M13.1133 10.8141L13.1566 10.6776L13.2253 10.7005L13.1133 10.8141Z" fill="#ECECEC"/>
<path d="M13.541 10.2303L13.5059 10.339L13.5582 10.3578L13.541 10.2303Z" fill="#ECECEC"/>
<path d="M13.54 10.2303L13.5751 10.339L13.5195 10.3578L13.54 10.2303Z" fill="#ECECEC"/>
<path d="M13.6485 10.3104H13.5332V10.3644L13.6485 10.3104Z" fill="#ECECEC"/>
<path d="M13.6502 10.3104L13.5586 10.3758L13.5234 10.3308L13.6502 10.3104Z" fill="#ECECEC"/>
<path d="M13.4297 10.3104L13.5221 10.3758L13.5573 10.3308L13.4297 10.3104Z" fill="#ECECEC"/>
<path d="M13.4297 10.3104H13.5466V10.3644L13.4297 10.3104Z" fill="#ECECEC"/>
<path d="M13.607 10.4364L13.5719 10.3276L13.5195 10.3464L13.607 10.4364Z" fill="#ECECEC"/>
<path d="M13.6083 10.4364L13.5176 10.3693L13.5511 10.3227L13.6083 10.4364Z" fill="#ECECEC"/>
<path d="M13.4746 10.4364L13.5654 10.3693L13.5302 10.3227L13.4746 10.4364Z" fill="#ECECEC"/>
<path d="M13.4746 10.4364L13.5098 10.3276L13.5637 10.3464L13.4746 10.4364Z" fill="#ECECEC"/>
<path d="M12.8828 10.1322L12.8477 10.2401L12.9008 10.2589L12.8828 10.1322Z" fill="#ECECEC"/>
<path d="M12.8824 10.1322L12.9176 10.2401L12.8652 10.2589L12.8824 10.1322Z" fill="#ECECEC"/>
<path d="M12.9886 10.2107H12.875V10.2687L12.9886 10.2107Z" fill="#ECECEC"/>
<path d="M12.9895 10.2107L12.8971 10.2794L12.8652 10.2311L12.9895 10.2107Z" fill="#ECECEC"/>
<path d="M12.7715 10.2107L12.8647 10.2794L12.8966 10.2311L12.7715 10.2107Z" fill="#ECECEC"/>
<path d="M12.7715 10.2107H12.8884V10.2687L12.7715 10.2107Z" fill="#ECECEC"/>
<path d="M12.9501 10.339L12.915 10.2303L12.8594 10.2491L12.9501 10.339Z" fill="#ECECEC"/>
<path d="M12.9495 10.339L12.8555 10.272L12.8906 10.2262L12.9495 10.339Z" fill="#ECECEC"/>
<path d="M12.8145 10.339L12.9077 10.272L12.8733 10.2262L12.8145 10.339Z" fill="#ECECEC"/>
<path d="M12.8145 10.339L12.8496 10.2303L12.9077 10.2491L12.8145 10.339Z" fill="#ECECEC"/>
<path d="M10.3925 9.95465L10.3418 10.1174L10.4211 10.1444L10.3925 9.95465Z" fill="#ECECEC"/>
<path d="M10.3922 9.95465L10.4454 10.1174L10.3652 10.1444L10.3922 9.95465Z" fill="#ECECEC"/>
<path d="M10.5584 10.0749H10.3867V10.16L10.5584 10.0749Z" fill="#ECECEC"/>
<path d="M10.5588 10.0749L10.4174 10.1747L10.3691 10.1052L10.5588 10.0749Z" fill="#ECECEC"/>
<path d="M10.2285 10.0749L10.3724 10.1747L10.4182 10.1052L10.2285 10.0749Z" fill="#ECECEC"/>
<path d="M10.2285 10.0749H10.4011V10.16L10.2285 10.0749Z" fill="#ECECEC"/>
<path d="M10.4922 10.2654L10.4415 10.1035L10.3613 10.1288L10.4922 10.2654Z" fill="#ECECEC"/>
<path d="M10.4928 10.2654L10.3555 10.1649L10.4037 10.0954L10.4928 10.2654Z" fill="#ECECEC"/>
<path d="M10.291 10.2654L10.43 10.1649L10.3793 10.0954L10.291 10.2654Z" fill="#ECECEC"/>
<path d="M10.291 10.2654L10.3474 10.1035L10.4267 10.1288L10.291 10.2654Z" fill="#ECECEC"/>
<path d="M11.9996 11.0758L11.9824 11.1314L12.0078 11.1396L11.9996 11.0758Z" fill="#ECECEC"/>
<path d="M11.9987 11.0758L12.0167 11.1314L11.9922 11.1396L11.9987 11.0758Z" fill="#ECECEC"/>
<path d="M12.055 11.1167H11.9961V11.1445L12.055 11.1167Z" fill="#ECECEC"/>
<path d="M12.0544 11.1167L12.0069 11.1503L11.9922 11.1265L12.0544 11.1167Z" fill="#ECECEC"/>
<path d="M11.9453 11.1167L11.9927 11.1503L12.0075 11.1265L11.9453 11.1167Z" fill="#ECECEC"/>
<path d="M11.9453 11.1167H12.0009V11.1445L11.9453 11.1167Z" fill="#ECECEC"/>
<path d="M12.0319 11.1796L12.018 11.1256L11.9902 11.1354L12.0319 11.1796Z" fill="#ECECEC"/>
<path d="M12.0305 11.1797L11.9863 11.147L12.0002 11.1249L12.0305 11.1797Z" fill="#ECECEC"/>
<path d="M11.9648 11.1797L12.0098 11.147L11.9951 11.1249L11.9648 11.1797Z" fill="#ECECEC"/>
<path d="M11.9648 11.1796L11.9845 11.1256L12.0098 11.1354L11.9648 11.1796Z" fill="#ECECEC"/>
</svg>
