<svg width="22" height="14" viewBox="0 0 22 14" fill="none" xmlns="http://www.w3.org/2000/svg">
<path d="M22 6.10352e-05H0V14.0001H22V6.10352e-05Z" fill="#0C1288"/>
<mask id="mask0" mask-type="alpha" maskUnits="userSpaceOnUse" x="0" y="0" width="12" height="7">
<path d="M12 6.10352e-05H0V7.00006H12V6.10352e-05Z" fill="#0C1288"/>
</mask>
<g mask="url(#mask0)">
<path d="M14.6603 7.04789L-2.03564 -1.30008L-2.66174 -0.0478807L14.0342 8.30009L14.6603 7.04789Z" fill="white"/>
<path d="M-2.34867 -0.673961L-2.55737 -0.256561L5.79062 3.91742L5.99932 3.50003L-2.34867 -0.673961Z" fill="#EC060C"/>
<path d="M6.20821 3.08263L5.99951 3.50003L14.3475 7.67402L14.5562 7.25662L6.20821 3.08263Z" fill="#EC060C"/>
<path d="M14.0344 -1.30009L-2.66162 7.04788L-2.03552 8.30008L14.6605 -0.0478927L14.0344 -1.30009Z" fill="white"/>
<path d="M5.99936 3.49999L-2.34863 7.67398L-2.13993 8.09138L6.20806 3.91739L5.99936 3.49999Z" fill="#EC060C"/>
<path d="M14.1388 -1.09138L5.79077 3.08261L5.99947 3.50001L14.3475 -0.673977L14.1388 -1.09138Z" fill="#EC060C"/>
<path d="M14.1661 2.33334H7.1661V-1.16666H4.83276V2.33334H-2.16724V4.66668H4.83276V8.16668H7.1661V4.66668H14.1661V2.33334Z" fill="white"/>
<path d="M14.1661 2.80001H6.69943V-1.16666H5.29943V2.80001H-2.16724V4.20001H5.29943V8.16668H6.69943V4.20001H14.1661V2.80001Z" fill="#EC060C"/>
</g>
<path d="M14.5239 11.9713L14.8993 11.4052L14.2603 11.6477L14.051 10.9999L13.8416 11.6477L13.2056 11.4052L13.5782 11.9713L13 12.3171L13.6727 12.3771L13.5819 13.0495L14.051 12.5566L14.523 13.0495L14.4293 12.3771L15.1049 12.3171L14.5239 11.9713Z" fill="white"/>
<path d="M7.91777 10.2911L8.64869 9.18907L7.40491 9.66099L6.99727 8.40005L6.58964 9.66099L5.35134 9.18907L6.07677 10.2911L4.95117 10.9644L6.26076 11.0809L6.08412 12.3903L6.99727 11.4306L7.91602 12.3903L7.73367 11.0809L9.04897 10.9644L7.91777 10.2911Z" fill="white"/>
<path d="M20.6859 4.40314L20.5549 3.99994L20.4238 4.40314H20L20.3429 4.65222L20.212 5.0553L20.5549 4.80622L20.8978 5.0553L20.7667 4.65222L21.1097 4.40314H20.6859Z" fill="white"/>
<path d="M17.9807 6.01772L18.3561 5.45166L17.7173 5.69409L17.5078 5.04636L17.2984 5.69409L16.6624 5.45166L17.035 6.01772L16.4568 6.36352L17.1295 6.42349L17.0387 7.09596L17.5078 6.60304L17.9798 7.09596L17.8861 6.42349L18.5617 6.36352L17.9807 6.01772Z" fill="white"/>
<path d="M21.1049 10.3171L20.5238 9.9713L20.8992 9.40524L20.2603 9.64767L20.0509 8.99994L19.8415 9.64767L19.2056 9.40524L19.5781 9.9713L19 10.3171L19.6727 10.3771L19.5819 11.0495L20.0509 10.5566L20.523 11.0495L20.4292 10.3771L21.1049 10.3171Z" fill="white"/>
<path d="M17.6727 2.37707L17.5819 3.04954L18.051 2.55662L18.523 3.04954L18.4293 2.37707L19.1049 2.31711L18.5239 1.9713L18.8993 1.40524L18.2603 1.64767L18.051 0.999939L17.8416 1.64767L17.2056 1.40524L17.5782 1.9713L17 2.31711L17.6727 2.37707Z" fill="white"/>
</svg>
