<svg width="24" height="16" viewBox="0 0 24 16" fill="none" xmlns="http://www.w3.org/2000/svg">
<path d="M24 0.00012207H0V5.00012H24V0.00012207Z" fill="#4497B1"/>
<path d="M24 5.00012H0V5.50012H24V5.00012Z" fill="#BC0030"/>
<path d="M24 5.50012H0V10.5001H24V5.50012Z" fill="#ECECEC"/>
<path d="M24 10.5001H0V11.0001H24V10.5001Z" fill="#BC0030"/>
<path d="M24 11.0001H0V16.0001H24V11.0001Z" fill="#50B63F"/>
<path d="M5.0057 2.50139C5.00545 2.79801 4.91711 3.08791 4.75183 3.33441C4.58654 3.58092 4.3517 3.77298 4.07707 3.88631C3.80243 3.99965 3.50031 4.02916 3.20887 3.97114C2.91743 3.91312 2.64977 3.77016 2.43971 3.56033C2.22966 3.3505 2.08667 3.08322 2.02879 2.79229C1.9709 2.50135 2.00073 2.19981 2.11452 1.9258C2.2283 1.65178 2.42094 1.4176 2.66806 1.25283C2.91517 1.08807 3.20565 1.00012 3.50284 1.00012C3.70031 1.0001 3.89585 1.03893 4.07828 1.11439C4.26071 1.18984 4.42646 1.30044 4.56604 1.43986C4.70561 1.57929 4.8163 1.7448 4.89174 1.92695C4.96718 2.10909 5.00589 2.3043 5.0057 2.50139Z" fill="#ECECEC"/>
<path d="M5.43128 2.50143C5.43078 2.74848 5.35689 2.98985 5.21899 3.19501C5.08108 3.40016 4.88535 3.5599 4.65651 3.65404C4.42766 3.74818 4.17599 3.77249 3.9333 3.7239C3.69061 3.67531 3.46781 3.55598 3.29305 3.38103C3.11829 3.20607 2.99941 2.98334 2.95146 2.74096C2.9035 2.49859 2.92859 2.24748 3.0236 2.01935C3.11861 1.79122 3.27928 1.59633 3.48524 1.4593C3.69121 1.32228 3.93325 1.24927 4.18077 1.24951C4.34533 1.24944 4.50825 1.28181 4.66025 1.34474C4.81225 1.40768 4.95031 1.49996 5.0665 1.61627C5.18268 1.73259 5.27472 1.87064 5.33731 2.02254C5.39991 2.17444 5.43185 2.33718 5.43128 2.50143Z" fill="#4497B1"/>
<path d="M7.30872 1.00037L7.2168 1.28701L7.35918 1.33171L7.30872 1.00037Z" fill="#ECECEC"/>
<path d="M7.30956 1.00037L7.40343 1.28701L7.25977 1.33171L7.30956 1.00037Z" fill="#ECECEC"/>
<path d="M7.59686 1.20721H7.29492V1.35916L7.59686 1.20721Z" fill="#ECECEC"/>
<path d="M7.59566 1.20721L7.34986 1.38406L7.26367 1.26212L7.59566 1.20721Z" fill="#ECECEC"/>
<path d="M7.02539 1.20721L7.26736 1.38406L7.35609 1.26212L7.02539 1.20721Z" fill="#ECECEC"/>
<path d="M7.02539 1.20721H7.32609V1.35916L7.02539 1.20721Z" fill="#ECECEC"/>
<path d="M7.4843 1.54367L7.393 1.25702L7.25 1.30171L7.4843 1.54367Z" fill="#ECECEC"/>
<path d="M7.48479 1.54367L7.24414 1.36683L7.33029 1.24426L7.48479 1.54367Z" fill="#ECECEC"/>
<path d="M7.13281 1.54367L7.37732 1.36683L7.2886 1.24426L7.13281 1.54367Z" fill="#ECECEC"/>
<path d="M7.13281 1.54367L7.22602 1.25702L7.3684 1.30171L7.13281 1.54367Z" fill="#ECECEC"/>
<path d="M8.51117 1.00037L8.41797 1.28701L8.56097 1.33171L8.51117 1.00037Z" fill="#ECECEC"/>
<path d="M8.51202 1.00037L8.60332 1.28701L8.46094 1.33171L8.51202 1.00037Z" fill="#ECECEC"/>
<path d="M8.79679 1.20721H8.49609V1.35916L8.79679 1.20721Z" fill="#ECECEC"/>
<path d="M8.79683 1.20721L8.55361 1.38406L8.46484 1.26212L8.79683 1.20721Z" fill="#ECECEC"/>
<path d="M8.22656 1.20721L8.46854 1.38406L8.55726 1.26212L8.22656 1.20721Z" fill="#ECECEC"/>
<path d="M8.22656 1.20721H8.52469V1.35916L8.22656 1.20721Z" fill="#ECECEC"/>
<path d="M8.6868 1.54367L8.59422 1.25702L8.45312 1.30171L8.6868 1.54367Z" fill="#ECECEC"/>
<path d="M8.68729 1.54367L8.44531 1.36683L8.53341 1.24426L8.68729 1.54367Z" fill="#ECECEC"/>
<path d="M8.33398 1.54367L8.57849 1.36683L8.48844 1.24426L8.33398 1.54367Z" fill="#ECECEC"/>
<path d="M8.33398 1.54367L8.42781 1.25702L8.57081 1.30171L8.33398 1.54367Z" fill="#ECECEC"/>
<path d="M9.7143 1.00037L9.62109 1.28701L9.76152 1.33171L9.7143 1.00037Z" fill="#ECECEC"/>
<path d="M9.71448 1.00037L9.80706 1.28701L9.66211 1.33171L9.71448 1.00037Z" fill="#ECECEC"/>
<path d="M9.99996 1.20721H9.70117V1.35916L9.99996 1.20721Z" fill="#ECECEC"/>
<path d="M9.99929 1.20721L9.75669 1.38406L9.66797 1.26212L9.99929 1.20721Z" fill="#ECECEC"/>
<path d="M9.42773 1.20721L9.66967 1.38406L9.75906 1.26212L9.42773 1.20721Z" fill="#ECECEC"/>
<path d="M9.42773 1.20721H9.72714V1.35916L9.42773 1.20721Z" fill="#ECECEC"/>
<path d="M9.8905 1.54367L9.79668 1.25702L9.6543 1.30171L9.8905 1.54367Z" fill="#ECECEC"/>
<path d="M9.89037 1.54367L9.64844 1.36683L9.73397 1.24426L9.89037 1.54367Z" fill="#ECECEC"/>
<path d="M9.53906 1.54367L9.781 1.36683L9.69356 1.24426L9.53906 1.54367Z" fill="#ECECEC"/>
<path d="M9.53906 1.54367L9.63098 1.25702L9.77461 1.30171L9.53906 1.54367Z" fill="#ECECEC"/>
<path d="M6.1075 2.19995L6.01367 2.48405L6.15601 2.53129L6.1075 2.19995Z" fill="#ECECEC"/>
<path d="M6.10706 2.19995L6.19898 2.48405L6.05664 2.53129L6.10706 2.19995Z" fill="#ECECEC"/>
<path d="M6.39121 2.40674H6.0918V2.55613L6.39121 2.40674Z" fill="#ECECEC"/>
<path d="M6.39124 2.40674L6.14931 2.58103L6.06055 2.46164L6.39124 2.40674Z" fill="#ECECEC"/>
<path d="M5.82227 2.40674L6.06549 2.58103L6.15296 2.46164L5.82227 2.40674Z" fill="#ECECEC"/>
<path d="M5.82227 2.40674H6.12296V2.55613L5.82227 2.40674Z" fill="#ECECEC"/>
<path d="M6.28184 2.74064L6.19054 2.45654L6.04883 2.50379L6.28184 2.74064Z" fill="#ECECEC"/>
<path d="M6.2817 2.74065L6.04102 2.56636L6.12849 2.44635L6.2817 2.74065Z" fill="#ECECEC"/>
<path d="M5.92969 2.74065L6.17295 2.56636L6.08418 2.44635L5.92969 2.74065Z" fill="#ECECEC"/>
<path d="M5.92969 2.74064L6.02227 2.45654L6.16527 2.50379L5.92969 2.74064Z" fill="#ECECEC"/>
<path d="M7.30872 2.19995L7.2168 2.48405L7.35918 2.53129L7.30872 2.19995Z" fill="#ECECEC"/>
<path d="M7.30956 2.19995L7.40343 2.48405L7.25977 2.53129L7.30956 2.19995Z" fill="#ECECEC"/>
<path d="M7.59686 2.40674H7.29492V2.55613L7.59686 2.40674Z" fill="#ECECEC"/>
<path d="M7.59566 2.40674L7.34986 2.58103L7.26367 2.46164L7.59566 2.40674Z" fill="#ECECEC"/>
<path d="M7.02539 2.40674L7.26736 2.58103L7.35609 2.46164L7.02539 2.40674Z" fill="#ECECEC"/>
<path d="M7.02539 2.40674H7.32609V2.55613L7.02539 2.40674Z" fill="#ECECEC"/>
<path d="M7.4843 2.74064L7.393 2.45654L7.25 2.50379L7.4843 2.74064Z" fill="#ECECEC"/>
<path d="M7.48479 2.74065L7.24414 2.56636L7.33029 2.44635L7.48479 2.74065Z" fill="#ECECEC"/>
<path d="M7.13281 2.74065L7.37732 2.56636L7.2886 2.44635L7.13281 2.74065Z" fill="#ECECEC"/>
<path d="M7.13281 2.74064L7.22602 2.45654L7.3684 2.50379L7.13281 2.74064Z" fill="#ECECEC"/>
<path d="M8.51117 2.19995L8.41797 2.48405L8.56097 2.53129L8.51117 2.19995Z" fill="#ECECEC"/>
<path d="M8.51202 2.19995L8.60332 2.48405L8.46094 2.53129L8.51202 2.19995Z" fill="#ECECEC"/>
<path d="M8.79679 2.40674H8.49609V2.55613L8.79679 2.40674Z" fill="#ECECEC"/>
<path d="M8.79683 2.40674L8.55361 2.58103L8.46484 2.46164L8.79683 2.40674Z" fill="#ECECEC"/>
<path d="M8.22656 2.40674L8.46854 2.58103L8.55726 2.46164L8.22656 2.40674Z" fill="#ECECEC"/>
<path d="M8.22656 2.40674H8.52469V2.55613L8.22656 2.40674Z" fill="#ECECEC"/>
<path d="M8.6868 2.74064L8.59422 2.45654L8.45312 2.50379L8.6868 2.74064Z" fill="#ECECEC"/>
<path d="M8.68729 2.74065L8.44531 2.56636L8.53341 2.44635L8.68729 2.74065Z" fill="#ECECEC"/>
<path d="M8.33398 2.74065L8.57849 2.56636L8.48844 2.44635L8.33398 2.74065Z" fill="#ECECEC"/>
<path d="M8.33398 2.74064L8.42781 2.45654L8.57081 2.50379L8.33398 2.74064Z" fill="#ECECEC"/>
<path d="M9.7143 2.19995L9.62109 2.48405L9.76152 2.53129L9.7143 2.19995Z" fill="#ECECEC"/>
<path d="M9.71448 2.19995L9.80706 2.48405L9.66211 2.53129L9.71448 2.19995Z" fill="#ECECEC"/>
<path d="M9.99996 2.40674H9.70117V2.55613L9.99996 2.40674Z" fill="#ECECEC"/>
<path d="M9.99929 2.40674L9.75669 2.58103L9.66797 2.46164L9.99929 2.40674Z" fill="#ECECEC"/>
<path d="M9.42773 2.40674L9.66967 2.58103L9.75906 2.46164L9.42773 2.40674Z" fill="#ECECEC"/>
<path d="M9.42773 2.40674H9.72714V2.55613L9.42773 2.40674Z" fill="#ECECEC"/>
<path d="M9.8905 2.74064L9.79668 2.45654L9.6543 2.50379L9.8905 2.74064Z" fill="#ECECEC"/>
<path d="M9.89037 2.74065L9.64844 2.56636L9.73397 2.44635L9.89037 2.74065Z" fill="#ECECEC"/>
<path d="M9.53906 2.74065L9.781 2.56636L9.69356 2.44635L9.53906 2.74065Z" fill="#ECECEC"/>
<path d="M9.53906 2.74064L9.63098 2.45654L9.77461 2.50379L9.53906 2.74064Z" fill="#ECECEC"/>
<path d="M4.90508 3.39893L4.8125 3.6862L4.95488 3.73089L4.90508 3.39893Z" fill="#ECECEC"/>
<path d="M4.90593 3.39893L4.99785 3.6862L4.85547 3.73089L4.90593 3.39893Z" fill="#ECECEC"/>
<path d="M5.18937 3.60895H4.88867V3.75579L5.18937 3.60895Z" fill="#ECECEC"/>
<path d="M5.19007 3.60895L4.94681 3.78324L4.85938 3.6613L5.19007 3.60895Z" fill="#ECECEC"/>
<path d="M4.61914 3.60895L4.86365 3.78324L4.95237 3.6613L4.61914 3.60895Z" fill="#ECECEC"/>
<path d="M4.61914 3.60895H4.91984V3.75579L4.61914 3.60895Z" fill="#ECECEC"/>
<path d="M5.08125 3.94279L4.98933 3.65869L4.8457 3.70338L5.08125 3.94279Z" fill="#ECECEC"/>
<path d="M5.08178 3.94278L4.83984 3.76849L4.92857 3.64337L5.08178 3.94278Z" fill="#ECECEC"/>
<path d="M4.72852 3.94278L4.97174 3.76849L4.88235 3.64337L4.72852 3.94278Z" fill="#ECECEC"/>
<path d="M4.72852 3.94279L4.8211 3.65869L4.96281 3.70338L4.72852 3.94279Z" fill="#ECECEC"/>
<path d="M6.1075 3.39893L6.01367 3.6862L6.15601 3.73089L6.1075 3.39893Z" fill="#ECECEC"/>
<path d="M6.10706 3.39893L6.19898 3.6862L6.05664 3.73089L6.10706 3.39893Z" fill="#ECECEC"/>
<path d="M6.39121 3.60895H6.0918V3.75579L6.39121 3.60895Z" fill="#ECECEC"/>
<path d="M6.39124 3.60895L6.14931 3.78324L6.06055 3.6613L6.39124 3.60895Z" fill="#ECECEC"/>
<path d="M5.82227 3.60895L6.06549 3.78324L6.15296 3.6613L5.82227 3.60895Z" fill="#ECECEC"/>
<path d="M5.82227 3.60895H6.12296V3.75579L5.82227 3.60895Z" fill="#ECECEC"/>
<path d="M6.28184 3.94279L6.19054 3.65869L6.04883 3.70338L6.28184 3.94279Z" fill="#ECECEC"/>
<path d="M6.2817 3.94278L6.04102 3.76849L6.12849 3.64337L6.2817 3.94278Z" fill="#ECECEC"/>
<path d="M5.92969 3.94278L6.17295 3.76849L6.08418 3.64337L5.92969 3.94278Z" fill="#ECECEC"/>
<path d="M5.92969 3.94279L6.02227 3.65869L6.16527 3.70338L5.92969 3.94279Z" fill="#ECECEC"/>
<path d="M7.30872 3.39893L7.2168 3.6862L7.35918 3.73089L7.30872 3.39893Z" fill="#ECECEC"/>
<path d="M7.30956 3.39893L7.40343 3.6862L7.25977 3.73089L7.30956 3.39893Z" fill="#ECECEC"/>
<path d="M7.59686 3.60895H7.29492V3.75579L7.59686 3.60895Z" fill="#ECECEC"/>
<path d="M7.59566 3.60895L7.34986 3.78324L7.26367 3.6613L7.59566 3.60895Z" fill="#ECECEC"/>
<path d="M7.02539 3.60895L7.26736 3.78324L7.35609 3.6613L7.02539 3.60895Z" fill="#ECECEC"/>
<path d="M7.02539 3.60895H7.32609V3.75579L7.02539 3.60895Z" fill="#ECECEC"/>
<path d="M7.4843 3.94279L7.393 3.65869L7.25 3.70338L7.4843 3.94279Z" fill="#ECECEC"/>
<path d="M7.48479 3.94278L7.24414 3.76849L7.33029 3.64337L7.48479 3.94278Z" fill="#ECECEC"/>
<path d="M7.13281 3.94278L7.37732 3.76849L7.2886 3.64337L7.13281 3.94278Z" fill="#ECECEC"/>
<path d="M7.13281 3.94279L7.22602 3.65869L7.3684 3.70338L7.13281 3.94279Z" fill="#ECECEC"/>
<path d="M8.51117 3.39893L8.41797 3.6862L8.56097 3.73089L8.51117 3.39893Z" fill="#ECECEC"/>
<path d="M8.51202 3.39893L8.60332 3.6862L8.46094 3.73089L8.51202 3.39893Z" fill="#ECECEC"/>
<path d="M8.79679 3.60895H8.49609V3.75579L8.79679 3.60895Z" fill="#ECECEC"/>
<path d="M8.79683 3.60895L8.55361 3.78324L8.46484 3.6613L8.79683 3.60895Z" fill="#ECECEC"/>
<path d="M8.22656 3.60895L8.46854 3.78324L8.55726 3.6613L8.22656 3.60895Z" fill="#ECECEC"/>
<path d="M8.22656 3.60895H8.52469V3.75579L8.22656 3.60895Z" fill="#ECECEC"/>
<path d="M8.6868 3.94279L8.59422 3.65869L8.45312 3.70338L8.6868 3.94279Z" fill="#ECECEC"/>
<path d="M8.68729 3.94278L8.44531 3.76849L8.53341 3.64337L8.68729 3.94278Z" fill="#ECECEC"/>
<path d="M8.33398 3.94278L8.57849 3.76849L8.48844 3.64337L8.33398 3.94278Z" fill="#ECECEC"/>
<path d="M8.33398 3.94279L8.42781 3.65869L8.57081 3.70338L8.33398 3.94279Z" fill="#ECECEC"/>
<path d="M9.7143 3.39893L9.62109 3.6862L9.76152 3.73089L9.7143 3.39893Z" fill="#ECECEC"/>
<path d="M9.71448 3.39893L9.80706 3.6862L9.66211 3.73089L9.71448 3.39893Z" fill="#ECECEC"/>
<path d="M9.99996 3.60895H9.70117V3.75579L9.99996 3.60895Z" fill="#ECECEC"/>
<path d="M9.99929 3.60895L9.75669 3.78324L9.66797 3.6613L9.99929 3.60895Z" fill="#ECECEC"/>
<path d="M9.42773 3.60895L9.66967 3.78324L9.75906 3.6613L9.42773 3.60895Z" fill="#ECECEC"/>
<path d="M9.42773 3.60895H9.72714V3.75579L9.42773 3.60895Z" fill="#ECECEC"/>
<path d="M9.8905 3.94279L9.79668 3.65869L9.6543 3.70338L9.8905 3.94279Z" fill="#ECECEC"/>
<path d="M9.89037 3.94278L9.64844 3.76849L9.73397 3.64337L9.89037 3.94278Z" fill="#ECECEC"/>
<path d="M9.53906 3.94278L9.781 3.76849L9.69356 3.64337L9.53906 3.94278Z" fill="#ECECEC"/>
<path d="M9.53906 3.94279L9.63098 3.65869L9.77461 3.70338L9.53906 3.94279Z" fill="#ECECEC"/>
</svg>
