<svg width="24" height="16" viewBox="0 0 24 16" fill="none" xmlns="http://www.w3.org/2000/svg">
<path d="M24 0.000488281H0V15.9997H24V0.000488281Z" fill="#ECECEC"/>
<path d="M16.0704 5.78525L24.0007 0.711821V0H23.4544L14.4121 5.78525H16.0704Z" fill="#BD0034"/>
<path d="M15.6953 10.5359L23.9996 15.8471V14.7855L17.3543 10.5359H15.6953Z" fill="#BD0034"/>
<path d="M0 1.21856L7.10364 5.7853H8.76408L0 0.156128V1.21856Z" fill="#BD0034"/>
<path d="M8.38722 10.5359L0 15.9068V16H1.51525L10.0476 10.5359H8.38722Z" fill="#BD0034"/>
<path d="M22.358 0H13.9551V5.37828L22.358 0Z" fill="#1A237B"/>
<path d="M10.2443 0H1.875L10.2443 5.37828V0Z" fill="#1A237B"/>
<path d="M24.0007 5.78532V2.11426L18.3008 5.78532H24.0007Z" fill="#1A237B"/>
<path d="M24.0007 14.1669V10.5359H18.3008L24.0007 14.1669Z" fill="#1A237B"/>
<path d="M2.34961 16H10.2441V10.9437L2.34961 16Z" fill="#1A237B"/>
<path d="M13.9551 16H21.8753L13.9551 10.9437V16Z" fill="#1A237B"/>
<path d="M0 10.5359V14.3312L5.89872 10.5359H0Z" fill="#1A237B"/>
<path d="M0 5.78525H5.89872L0 1.98425V5.78525Z" fill="#1A237B"/>
<path d="M10.9865 0V6.7357H0V9.5879H10.9865V16H13.2119V9.5879H23.9996V6.7357H13.2119V0H10.9865Z" fill="#BD0034"/>
</svg>
