<svg width="24" height="16" viewBox="0 0 24 16" fill="none" xmlns="http://www.w3.org/2000/svg">
<path d="M24 16V10.6667L-2.86102e-05 10.6667V16H24Z" fill="#C60C1A"/>
<path d="M24 10.6667V5.33337L-2.86102e-05 5.33337V10.6667L24 10.6667Z" fill="#00247C"/>
<path d="M24 5.33333V0L-2.86102e-05 0V5.33333L24 5.33333Z" fill="#FECA00"/>
<path d="M11.2795 6.23955L11.0475 5.80322L10.9788 6.29258L10.4922 6.37834L10.9363 6.59498L10.8675 7.08418L11.2107 6.72883L11.6548 6.94539L11.4229 6.50914L11.7661 6.15371L11.2795 6.23955Z" fill="#ECECEC"/>
<path d="M10.0559 6.53774L9.62795 6.78487L9.26074 6.45422L9.36346 6.93751L8.93555 7.18454L9.42697 7.23622L9.52971 7.7195L9.73067 7.26815L10.222 7.31983L9.8549 6.98919L10.0559 6.53774Z" fill="#ECECEC"/>
<path d="M8.5776 7.48413L8.26 7.86261L7.80184 7.67757L8.06369 8.09653L7.74609 8.47509L8.22553 8.35558L8.48736 8.77452L8.52176 8.28165L9.00121 8.16214L8.54313 7.977L8.5776 7.48413Z" fill="#ECECEC"/>
<path d="M7.64863 9.35362L7.5124 8.87866L7.34344 9.343L6.84961 9.32571L7.23897 9.62995L7.07 10.0943L7.47961 9.81796L7.86897 10.1221L7.73279 9.64716L8.1424 9.37091L7.64863 9.35362Z" fill="#ECECEC"/>
<path d="M13.0197 6.29258L12.951 5.80322L12.719 6.23955L12.2324 6.15371L12.5756 6.50914L12.3437 6.94539L12.7878 6.72883L13.131 7.08426L13.0622 6.59498L13.5063 6.37834L13.0197 6.29258Z" fill="#ECECEC"/>
<path d="M14.6379 6.93751L14.7406 6.45422L14.3734 6.78487L13.9455 6.53774L14.1464 6.98919L13.7793 7.31975L14.2707 7.26815L14.4716 7.7195L14.5744 7.23622L15.0658 7.18454L14.6379 6.93751Z" fill="#ECECEC"/>
<path d="M15.9356 8.09653L16.1974 7.67749L15.7393 7.86261L15.4217 7.48413L15.4561 7.977L14.998 8.16214L15.4774 8.28165L15.5119 8.77452L15.7737 8.3555L16.2532 8.47509L15.9356 8.09653Z" fill="#ECECEC"/>
<path d="M17.1502 9.32571L16.6564 9.343L16.4874 8.87866L16.3512 9.35362L15.8574 9.37091L16.267 9.64716L16.1309 10.1221L16.5202 9.81796L16.9298 10.0943L16.7609 9.62995L17.1502 9.32571Z" fill="#ECECEC"/>
</svg>
