<svg width="24" height="16" viewBox="0 0 24 16" fill="none" xmlns="http://www.w3.org/2000/svg">
<path d="M24 5H0V11H24V5Z" fill="#ECECEC"/>
<path d="M24 0H0V5H24V0Z" fill="#49A044"/>
<path d="M24 11H0V16H24V11Z" fill="#C7001B"/>
<path d="M12.049 7.34967L11.8066 7.55061L11.8506 10.2664L12.049 10.5L12.2488 10.2664L12.2948 7.55061L12.049 7.34967Z" fill="#C7001B"/>
<path d="M12.4895 6C12.4665 6.03824 12.4362 6.07149 12.4005 6.09782C12.3647 6.12415 12.3241 6.14305 12.2811 6.15341C12.2381 6.16377 12.1935 6.16538 12.1498 6.15817C12.1062 6.15095 12.0644 6.13507 12.0269 6.1114C12.0188 6.10591 12.0081 6.10048 12.0014 6.09506C11.9296 6.14866 11.84 6.17158 11.7517 6.15889C11.6634 6.1462 11.5836 6.09889 11.5294 6.02718C11.524 6.01781 11.5182 6.00874 11.5119 6C11.51 6.06625 11.5212 6.13224 11.5448 6.19403C11.5685 6.25582 11.6042 6.31216 11.6498 6.35972C11.6954 6.40729 11.7499 6.44511 11.8102 6.47093C11.8705 6.49676 11.9353 6.51006 12.0007 6.51006C12.0662 6.51006 12.1309 6.49676 12.1912 6.47093C12.2515 6.44511 12.3061 6.40729 12.3516 6.35972C12.3972 6.31216 12.4329 6.25582 12.4566 6.19403C12.4802 6.13224 12.4914 6.06625 12.4895 6Z" fill="#C7001B"/>
<path d="M12.6111 6.44812C12.8408 6.76355 12.9744 7.14017 12.9953 7.53154C13.0162 7.9229 12.9236 8.31191 12.7289 8.65062C12.5341 8.98933 12.2458 9.26292 11.8993 9.43767C11.5529 9.61242 11.1636 9.68068 10.7793 9.63405C11.1891 9.8002 11.6443 9.8116 12.0617 9.66616C12.4791 9.52072 12.831 9.22813 13.0531 8.8418C13.2752 8.45547 13.3528 8.00116 13.2717 7.56173C13.1905 7.1223 12.9561 6.72705 12.6111 6.44812Z" fill="#C7001B"/>
<path d="M11.3872 6.44812C11.1574 6.76365 11.0239 7.1404 11.003 7.53188C10.9822 7.92336 11.0749 8.31245 11.2698 8.65119C11.4647 8.98993 11.7533 9.26351 12.0998 9.43816C12.4464 9.61281 12.8359 9.6809 13.2203 9.63405C12.8104 9.80046 12.3552 9.81208 11.9375 9.66677C11.5199 9.52146 11.1678 9.22892 10.9455 8.84255C10.7232 8.45617 10.6455 8.00173 10.7266 7.56215C10.8077 7.12258 11.0422 6.72717 11.3872 6.44812Z" fill="#C7001B"/>
<path d="M12.8379 6.38837C13.0489 6.54353 13.2276 6.73929 13.3638 6.96444C13.5 7.18959 13.5911 7.43973 13.6319 7.70054C13.6726 7.96136 13.6621 8.22774 13.6012 8.48448C13.5402 8.74121 13.4298 8.98326 13.2764 9.19677C13.2442 9.24023 13.2093 9.2864 13.1758 9.32436C13.4521 9.17289 13.6772 8.94101 13.8221 8.65868C13.967 8.37635 14.025 8.05652 13.9887 7.74048C13.9523 7.42443 13.8232 7.12669 13.6181 6.88567C13.413 6.64466 13.1412 6.47143 12.8379 6.38837Z" fill="#C7001B"/>
<path d="M11.1597 6.38837C10.9488 6.54361 10.7702 6.73943 10.6341 6.96463C10.498 7.18983 10.407 7.44 10.3664 7.70082C10.3258 7.96164 10.3363 8.228 10.3974 8.48469C10.4586 8.74137 10.5691 8.98335 10.7226 9.19677C10.7536 9.24166 10.7876 9.2843 10.8245 9.32436C10.5481 9.17313 10.3228 8.94148 10.1777 8.65932C10.0326 8.37716 9.97432 8.05744 10.0104 7.74141C10.0465 7.42538 10.1753 7.12755 10.3801 6.88637C10.585 6.6452 10.8565 6.47173 11.1597 6.38837Z" fill="#C7001B"/>
<path d="M0 4.7774H0.152283V4.46878H0.611267V4.7774H1.37299V4.3125H0.915955V4.46878H1.2207V4.625H0.76355V4.3125H0V4.7774ZM0.30658 4.7774H0.458984V4.625H0.30658V4.7774ZM0 4.15628H1.98425V4H0V4.15628ZM1.98425 4.7774H1.52728V4.3125H2.13666V4H2.289V4.625H2.44135V4H2.59369V4.625H2.74799V4H2.89838V4.7774H2.13666V4.46878H1.67969V4.625H1.98425V4.7774Z" fill="#ECECEC"/>
<path d="M3.05273 4.7774H3.20703V4.46878H3.66211V4.7774H4.42383V4.3125H3.96686V4.46878H4.27155V4.625H3.81445V4.3125H3.05273V4.7774ZM3.35742 4.7774H3.5097V4.625H3.35742V4.7774ZM3.05273 4.15628H5.03516V4H3.05273V4.15628ZM5.03516 4.7774H4.57611V4.3125H5.18555V4H5.33984V4.625H5.49414V4H5.64453V4.625H5.79883V4H5.95111V4.7774H5.18555V4.46878H4.73041V4.625H5.03516V4.7774Z" fill="#ECECEC"/>
<path d="M6.10352 4.7774H6.25586V4.46878H6.71295V4.7774H7.47656V4.3125H7.01953V4.46878H7.32422V4.625H6.86523V4.3125H6.10352V4.7774ZM6.40826 4.7774H6.56055V4.625H6.40826V4.7774ZM6.10352 4.15628H8.08795V4H6.10352V4.15628ZM8.08795 4.7774H7.62891V4.3125H8.23822V4H8.39062V4.625H8.54492V4H8.69922V4.625H8.84961V4H9.00195V4.7774H8.23822V4.46878H7.78125V4.625H8.08795V4.7774Z" fill="#ECECEC"/>
<path d="M9.1543 4.7774H9.30658V4.46878H9.76355V4.7774H10.5273V4.3125H10.0683V4.46878H10.373V4.625H9.91595V4.3125H9.1543V4.7774ZM9.45898 4.7774H9.61127V4.625H9.45898V4.7774ZM9.1543 4.15628H11.1367V4H9.1543V4.15628ZM11.1367 4.7774H10.6777V4.3125H11.291V4H11.4433V4.625H11.5937V4H11.748V4.625H11.9004V4H12.0527V4.7774H11.291V4.46878H10.832V4.625H11.1367V4.7774Z" fill="#ECECEC"/>
<path d="M12.2051 4.7774H12.3575V4.46878H12.8145V4.7774H13.5782V4.3125H13.1192V4.46878H13.4258V4.625H12.9688V4.3125H12.2051V4.7774ZM12.5118 4.7774H12.6622V4.625H12.5118V4.7774ZM12.2051 4.15628H14.1895V4H12.2051V4.15628ZM14.1895 4.7774H13.7305V4.3125H14.3419V4H14.4942V4.625H14.6466V4H14.7989V4.625H14.9512V4H15.1036V4.7774H14.3419V4.46878H13.8829V4.625H14.1895V4.7774Z" fill="#ECECEC"/>
<path d="M15.2559 4.7774H15.4083V4.46878H15.8652V4.7774H16.6289V4.3125H16.1718V4.46878H16.4746V4.625H16.0195V4.3125H15.2559V4.7774ZM15.5626 4.7774H15.713V4.625H15.5626V4.7774ZM15.2559 4.15628H17.2402V4H15.2559V4.15628ZM17.2402 4.7774H16.7833V4.3125H17.3925V4H17.5449V4.625H17.6972V4H17.8496V4.625H18.002V4H18.1544V4.7774H17.3925V4.46878H16.9337V4.625H17.2402V4.7774Z" fill="#ECECEC"/>
<path d="M18.3066 4.7774H18.459V4.46878H18.9179V4.7774H19.6797V4.3125H19.2227V4.46878H19.5294V4.625H19.0684V4.3125H18.3066V4.7774ZM18.6113 4.7774H18.7656V4.625H18.6113V4.7774ZM18.3066 4.15628H20.291V4H18.3066V4.15628ZM20.291 4.7774H19.834V4.3125H20.4434V4H20.5958V4.625H20.748V4H20.9005V4.625H21.0547V4H21.205V4.7774H20.4434V4.46878H19.9882V4.625H20.291V4.7774Z" fill="#ECECEC"/>
<path d="M21.3594 4.7774H21.5098V4.46878H21.9669V4.7774H22.7305V4.3125H22.2755V4.46878H22.5801V4.625H22.1212V4.3125H21.3594V4.7774ZM21.6641 4.7774H21.8165V4.625H21.6641V4.7774ZM21.3594 4.15628H23.3458V4H21.3594V4.15628ZM23.3458 4.7774H22.8848V4.3125H23.4942V4H23.6485V4.625H23.8008V4H23.9512V4.625H24.0001V4V4.7774H23.4942V4.46878H23.0372V4.625H23.3458V4.7774Z" fill="#ECECEC"/>
<path d="M0 5.25H1.37299V4.9375H0V5.25ZM1.52728 5.25H2.89838V4.9375H1.52728V5.25Z" fill="#ECECEC"/>
<path d="M3.05273 5.25H4.42383V4.9375H3.05273V5.25ZM4.57611 5.25H5.95111V4.9375H4.57611V5.25Z" fill="#ECECEC"/>
<path d="M6.10352 5.25H7.47656V4.9375H6.10352V5.25ZM7.62891 5.25H9.00195V4.9375H7.62891V5.25Z" fill="#ECECEC"/>
<path d="M9.1543 5.25H10.5273V4.9375H9.1543V5.25ZM10.6777 5.25H12.0527V4.9375H10.6777V5.25Z" fill="#ECECEC"/>
<path d="M12.2051 5.25H13.5782V4.9375H12.2051V5.25ZM13.7305 5.25H15.1036V4.9375H13.7305V5.25Z" fill="#ECECEC"/>
<path d="M15.2559 5.25H16.6289V4.9375H15.2559V5.25ZM16.7833 5.25H18.1544V4.9375H16.7833V5.25Z" fill="#ECECEC"/>
<path d="M18.3066 5.25H19.6797V4.9375H18.3066V5.25ZM19.834 5.25H21.205V4.9375H19.834V5.25Z" fill="#ECECEC"/>
<path d="M21.3594 5.25H22.7305V4.9375H21.3594V5.25ZM22.8848 5.25H24.0001V4.9375H22.8848V5.25Z" fill="#ECECEC"/>
<path d="M0 11.7774H0.152283V11.4688H0.611267V11.7774H1.37299V11.3125H0.915955V11.4688H1.2207V11.625H0.76355V11.3125H0V11.7774ZM0.30658 11.7774H0.458984V11.625H0.30658V11.7774ZM0 11.1563H1.98425V11H0V11.1563ZM1.98425 11.7774H1.52728V11.3125H2.13666V11H2.289V11.625H2.44135V11H2.59369V11.625H2.74799V11H2.89838V11.7774H2.13666V11.4688H1.67969V11.625H1.98425V11.7774Z" fill="#ECECEC"/>
<path d="M3.05273 11.7774H3.20703V11.4688H3.66211V11.7774H4.42383V11.3125H3.96686V11.4688H4.27155V11.625H3.81445V11.3125H3.05273V11.7774ZM3.35742 11.7774H3.5097V11.625H3.35742V11.7774ZM3.05273 11.1563H5.03516V11H3.05273V11.1563ZM5.03516 11.7774H4.57611V11.3125H5.18555V11H5.33984V11.625H5.49414V11H5.64453V11.625H5.79883V11H5.95111V11.7774H5.18555V11.4688H4.73041V11.625H5.03516V11.7774Z" fill="#ECECEC"/>
<path d="M6.10352 11.7774H6.25586V11.4688H6.71295V11.7774H7.47656V11.3125H7.01953V11.4688H7.32422V11.625H6.86523V11.3125H6.10352V11.7774ZM6.40826 11.7774H6.56055V11.625H6.40826V11.7774ZM6.10352 11.1563H8.08795V11H6.10352V11.1563ZM8.08795 11.7774H7.62891V11.3125H8.23822V11H8.39062V11.625H8.54492V11H8.69922V11.625H8.84961V11H9.00195V11.7774H8.23822V11.4688H7.78125V11.625H8.08795V11.7774Z" fill="#ECECEC"/>
<path d="M9.1543 11.7774H9.30658V11.4688H9.76355V11.7774H10.5273V11.3125H10.0683V11.4688H10.373V11.625H9.91595V11.3125H9.1543V11.7774ZM9.45898 11.7774H9.61127V11.625H9.45898V11.7774ZM9.1543 11.1563H11.1367V11H9.1543V11.1563ZM11.1367 11.7774H10.6777V11.3125H11.291V11H11.4433V11.625H11.5937V11H11.748V11.625H11.9004V11H12.0527V11.7774H11.291V11.4688H10.832V11.625H11.1367V11.7774Z" fill="#ECECEC"/>
<path d="M12.2051 11.7774H12.3575V11.4688H12.8145V11.7774H13.5782V11.3125H13.1192V11.4688H13.4258V11.625H12.9688V11.3125H12.2051V11.7774ZM12.5118 11.7774H12.6622V11.625H12.5118V11.7774ZM12.2051 11.1563H14.1895V11H12.2051V11.1563ZM14.1895 11.7774H13.7305V11.3125H14.3419V11H14.4942V11.625H14.6466V11H14.7989V11.625H14.9512V11H15.1036V11.7774H14.3419V11.4688H13.8829V11.625H14.1895V11.7774Z" fill="#ECECEC"/>
<path d="M15.2559 11.7774H15.4083V11.4688H15.8652V11.7774H16.6289V11.3125H16.1718V11.4688H16.4746V11.625H16.0195V11.3125H15.2559V11.7774ZM15.5626 11.7774H15.713V11.625H15.5626V11.7774ZM15.2559 11.1563H17.2402V11H15.2559V11.1563ZM17.2402 11.7774H16.7833V11.3125H17.3925V11H17.5449V11.625H17.6972V11H17.8496V11.625H18.002V11H18.1544V11.7774H17.3925V11.4688H16.9337V11.625H17.2402V11.7774Z" fill="#ECECEC"/>
<path d="M18.3066 11.7774H18.459V11.4688H18.9179V11.7774H19.6797V11.3125H19.2227V11.4688H19.5294V11.625H19.0684V11.3125H18.3066V11.7774ZM18.6113 11.7774H18.7656V11.625H18.6113V11.7774ZM18.3066 11.1563H20.291V11H18.3066V11.1563ZM20.291 11.7774H19.834V11.3125H20.4434V11H20.5958V11.625H20.748V11H20.9005V11.625H21.0547V11H21.205V11.7774H20.4434V11.4688H19.9882V11.625H20.291V11.7774Z" fill="#ECECEC"/>
<path d="M21.3594 11.7774H21.5098V11.4688H21.9669V11.7774H22.7305V11.3125H22.2755V11.4688H22.5801V11.625H22.1212V11.3125H21.3594V11.7774ZM21.6641 11.7774H21.8165V11.625H21.6641V11.7774ZM21.3594 11.1563H23.3458V11H21.3594V11.1563ZM23.3458 11.7774H22.8848V11.3125H23.4942V11H23.6485V11.625H23.8008V11H23.9512V11.625H24.0001V11V11.7774H23.4942V11.4688H23.0372V11.625H23.3458V11.7774Z" fill="#ECECEC"/>
<path d="M0 12.25H1.37299V11.9375H0V12.25ZM1.52728 12.25H2.89838V11.9375H1.52728V12.25Z" fill="#ECECEC"/>
<path d="M3.05273 12.25H4.42383V11.9375H3.05273V12.25ZM4.57611 12.25H5.95111V11.9375H4.57611V12.25Z" fill="#ECECEC"/>
<path d="M6.10352 12.25H7.47656V11.9375H6.10352V12.25ZM7.62891 12.25H9.00195V11.9375H7.62891V12.25Z" fill="#ECECEC"/>
<path d="M9.1543 12.25H10.5273V11.9375H9.1543V12.25ZM10.6777 12.25H12.0527V11.9375H10.6777V12.25Z" fill="#ECECEC"/>
<path d="M12.2051 12.25H13.5782V11.9375H12.2051V12.25ZM13.7305 12.25H15.1036V11.9375H13.7305V12.25Z" fill="#ECECEC"/>
<path d="M15.2559 12.25H16.6289V11.9375H15.2559V12.25ZM16.7833 12.25H18.1544V11.9375H16.7833V12.25Z" fill="#ECECEC"/>
<path d="M18.3066 12.25H19.6797V11.9375H18.3066V12.25ZM19.834 12.25H21.205V11.9375H19.834V12.25Z" fill="#ECECEC"/>
<path d="M21.3594 12.25H22.7305V11.9375H21.3594V12.25ZM22.8848 12.25H24.0001V11.9375H22.8848V12.25Z" fill="#ECECEC"/>
</svg>
