<svg width="248" height="44" viewBox="0 0 248 44" fill="none" xmlns="http://www.w3.org/2000/svg">
<g clip-path="url(#clip0)">
<path d="M68.6647 30.1004C66.6974 28.1783 65.7137 25.7399 65.7137 22.7848C65.7137 19.8299 66.6974 17.3903 68.6647 15.4663C69.6171 14.524 70.7493 13.7829 71.9939 13.287C73.2385 12.7912 74.5702 12.5508 75.9096 12.5802C77.9604 12.5461 79.975 13.1235 81.6966 14.2386C83.3852 15.3464 84.657 16.9848 85.3116 18.8954H80.4955C79.5984 17.1445 78.0737 16.268 75.9214 16.266C74.1114 16.266 72.6359 16.8611 71.4948 18.0514C70.3537 19.2417 69.791 20.8283 69.8068 22.8114C69.8068 24.7788 70.3734 26.3605 71.5066 27.5567C72.6398 28.7528 74.1154 29.3479 75.9332 29.342C78.0678 29.342 79.5925 28.4646 80.5073 26.7097H85.3382C84.6873 28.6192 83.4143 30.2549 81.7232 31.3547C79.9987 32.4619 77.9851 33.0338 75.9362 32.9984C73.05 33.0004 70.6263 32.0344 68.6647 30.1004Z" fill="white"/>
<path d="M91.3844 12.8813H95.4157V29.7702H101.811V32.8274H91.3844V12.8813Z" fill="white"/>
<path d="M120.193 32.8303L118.906 29.0884H111.133L109.847 32.8303H105.589L112.647 12.8223H117.422L124.451 32.8303H120.193ZM112.193 25.9987H117.879L115.019 17.6826L112.193 25.9987Z" fill="white"/>
<path d="M133.856 24.8832V32.8304H129.826V12.8813H137.17C139.474 12.8813 141.251 13.4569 142.5 14.6077C143.101 15.1444 143.58 15.8044 143.904 16.5428C144.227 17.2813 144.388 18.0807 144.374 18.8867C144.373 20.1494 143.973 21.3793 143.231 22.4014C142.47 23.4894 141.27 24.2331 139.631 24.6324L144.719 32.8363H139.945L135.157 24.8832H133.856ZM133.856 15.9652V21.7994H137.17C138.179 21.7994 138.952 21.5377 139.487 21.0145C139.759 20.7336 139.97 20.3998 140.108 20.0337C140.246 19.6677 140.306 19.2773 140.287 18.8867C140.306 18.4957 140.246 18.1048 140.108 17.7383C139.97 17.3718 139.759 17.0375 139.487 16.7561C138.952 16.2327 138.179 15.9711 137.17 15.9711L133.856 15.9652Z" fill="white"/>
<path d="M160.035 33.0311C157.158 33.0311 154.739 32.0681 152.775 30.1421C150.812 28.216 149.828 25.7726 149.824 22.8117C149.824 19.8489 150.808 17.4054 152.775 15.4813C154.736 13.6289 157.331 12.5968 160.027 12.5968C162.724 12.5968 165.319 13.6289 167.28 15.4813C169.247 17.4073 170.231 19.8508 170.231 22.8117C170.231 25.7726 169.247 28.216 167.28 30.1421C165.326 32.0681 162.911 33.0311 160.035 33.0311ZM164.435 27.557C165.558 26.3765 166.121 24.7899 166.123 22.797C166.125 20.804 165.562 19.2232 164.435 18.0546C163.311 16.8742 161.845 16.284 160.035 16.284C158.225 16.284 156.749 16.8791 155.609 18.0693C154.475 19.2498 153.908 20.8305 153.908 22.8117C153.908 24.7928 154.475 26.3746 155.609 27.557C156.741 28.7374 158.217 29.3325 160.035 29.3423C161.853 29.3522 163.319 28.757 164.435 27.557Z" fill="white"/>
<path d="M200.219 32.8303L198.933 29.0884H191.16L189.873 32.8303H185.62L192.679 12.8223H197.451L204.48 32.8303H200.219ZM192.216 25.9987H197.902L195.043 17.6826L192.216 25.9987Z" fill="white"/>
<path d="M216.624 12.8813C219.825 12.8813 222.412 13.7962 224.385 15.6259C226.359 17.4555 227.342 19.8753 227.337 22.8854C227.337 25.8955 226.353 28.3055 224.385 30.1154C222.418 31.9254 219.831 32.8314 216.624 32.8333H209.837V12.8813H216.624ZM213.88 29.7702H216.624C218.72 29.7702 220.349 29.1504 221.511 27.911C222.674 26.6716 223.255 24.9993 223.255 22.8942C223.255 20.7793 222.674 19.1071 221.511 17.8775C220.349 16.6479 218.72 16.0281 216.624 16.0184H213.88V29.7702Z" fill="white"/>
<path d="M239.545 15.8263C238.841 15.7941 238.147 16.0115 237.589 16.4402C237.338 16.6444 237.139 16.9046 237.007 17.1998C236.875 17.4951 236.814 17.8171 236.83 18.1399C236.794 18.7567 236.993 19.3642 237.388 19.8397C237.793 20.2721 238.3 20.5958 238.863 20.7812C239.518 21.0141 240.186 21.2111 240.864 21.3714C241.588 21.5425 242.311 21.7521 243.036 22C243.733 22.2336 244.404 22.5403 245.037 22.9147C245.666 23.2954 246.177 23.8443 246.512 24.4994C246.904 25.2835 247.095 26.1524 247.07 27.0285C247.071 27.8337 246.897 28.6294 246.558 29.3599C246.22 30.0905 245.726 30.7381 245.111 31.2573C243.806 32.4377 242.072 33.0279 239.907 33.0279C237.743 33.0279 235.996 32.5184 234.663 31.4993C233.33 30.4803 232.663 29.046 232.663 27.1967H236.951C237.102 28.9516 238.102 29.8291 239.952 29.8291C240.741 29.8722 241.516 29.6161 242.124 29.1119C242.389 28.8739 242.597 28.5804 242.736 28.2525C242.874 27.9245 242.938 27.57 242.924 27.2144C242.929 26.8364 242.835 26.4637 242.649 26.1344C242.464 25.805 242.194 25.5311 241.867 25.3405C241.081 24.8504 240.215 24.5027 239.309 24.3136C238.309 24.0834 237.304 23.807 236.292 23.4843C235.295 23.1662 234.406 22.5778 233.723 21.7845C233.016 20.974 232.664 19.9018 232.666 18.5679C232.636 17.7406 232.798 16.9177 233.14 16.1639C233.482 15.4101 233.995 14.746 234.637 14.2239C235.952 13.1379 237.642 12.595 239.71 12.595C241.777 12.595 243.441 13.0661 244.697 14.0085C245.955 14.9528 246.643 16.3871 246.763 18.3111H242.345C242.303 17.619 241.996 16.9695 241.49 16.4963C240.95 16.0338 240.255 15.7943 239.545 15.8263Z" fill="white"/>
<path d="M44.7527 28.3299L28.398 0L26.0903 3.99571L23.5701 8.36029L12.0463 28.3299H38.7562L41.2704 32.6975H47.2876L44.7527 28.3299ZM21.0263 23.1362L28.4039 10.3699L35.7815 23.1362H21.0263Z" fill="white"/>
<path d="M4.87216 23.34C4.83872 19.2839 6.41585 15.3804 9.25743 12.486C12.1583 9.42874 15.7231 7.87649 19.8576 7.87649C19.9225 7.87649 19.9844 7.87649 20.0523 7.87649L22.7082 3.28172C21.7815 3.16221 20.8481 3.1011 19.9136 3.09875C14.466 3.09875 9.73254 5.10546 5.85191 9.05984C1.9713 13.0142 0 17.8097 0 23.2898C0 28.1059 1.32502 32.314 3.90128 35.8671L6.68706 31.0422C5.46872 28.6591 4.84598 26.0163 4.87216 23.34Z" fill="white"/>
<path d="M20.1259 44C23.7224 44.0455 27.2617 43.0979 30.3543 41.2614C33.4279 39.3825 35.9267 36.6958 37.5784 33.4943L37.9827 32.7329H32.3757L32.2193 32.9454C29.1472 37.1831 24.9863 39.3373 19.8574 39.3373C15.5872 39.3373 11.9899 37.7467 9.15989 34.6157C8.18498 33.5371 7.35376 32.3368 6.6869 31.0449L3.90112 35.8699C4.44209 36.6317 5.03363 37.3564 5.67175 38.0389C9.46085 41.9933 14.3183 44 20.1259 44Z" fill="#0D477C"/>
<path d="M23.5699 8.36027L26.0901 3.99568C24.9833 3.66779 23.8511 3.43286 22.7053 3.29333L20.067 7.89105C21.2492 7.90599 22.4253 8.06352 23.5699 8.36027Z" fill="#0D477C"/>
</g>
<defs>
<clipPath id="clip0">
<rect width="247.28" height="44" fill="white"/>
</clipPath>
</defs>
</svg>
