<svg width="249" height="240" viewBox="0 0 249 240" fill="none" xmlns="http://www.w3.org/2000/svg">
<rect x="1.44125" y="0.5" width="118.529" height="239" rx="11.5" stroke="#0D477C"/>
<path d="M37.6472 0H84.706V5.41176C84.706 7.6209 82.9151 9.41177 80.706 9.41177H41.6472C39.438 9.41177 37.6472 7.6209 37.6472 5.41177V0Z" fill="#0D477C"/>
<rect y="59.2943" width="1.88235" height="16.9412" rx="0.941176" fill="#0D477C"/>
<rect y="40.4707" width="1.88235" height="16.9412" rx="0.941176" fill="#0D477C"/>
<rect x="119.529" y="40.4707" width="1.88235" height="14.1176" rx="0.941176" fill="#0D477C"/>
<rect x="72.4706" y="3.7644" width="1.88235" height="1.88235" rx="0.941176" fill="#0D477C"/>
<rect x="48" y="3.76453" width="22.5882" height="1.88235" rx="0.941176" fill="#0D477C"/>
<rect x="27.4668" y="88.708" width="28.2353" height="0.941176" fill="#0D477C"/>
<rect x="27.4668" y="97.1797" width="15.0588" height="0.941176" fill="#0D477C"/>
<rect x="78.292" y="149.03" width="15.0588" height="0.941176" fill="#0D477C"/>
<rect x="27.4766" y="109.411" width="11.2941" height="0.941176" fill="#0D477C"/>
<rect x="40.6455" y="109.411" width="6.58824" height="0.941176" fill="#0D477C"/>
<rect x="49.1172" y="109.411" width="38.5882" height="0.941176" fill="#0D477C"/>
<rect x="89.5859" y="109.411" width="3.76471" height="0.941176" fill="#0D477C"/>
<rect x="27.4718" y="134.821" width="57.7135" height="0.941176" transform="rotate(0.0858889 27.4718 134.821)" fill="#0D477C"/>
<rect x="89.5908" y="134.831" width="3.76471" height="0.941176" fill="#0D477C"/>
<rect x="27.4717" y="117.883" width="3.76471" height="0.941176" fill="#0D477C"/>
<rect x="34.0586" y="117.883" width="13.1765" height="0.941176" fill="#0D477C"/>
<rect x="49.1172" y="117.883" width="7.52941" height="0.941176" fill="#0D477C"/>
<rect x="59.4688" y="117.883" width="33.8824" height="0.941176" fill="#0D477C"/>
<rect x="27.4717" y="126.354" width="3.76471" height="0.941176" fill="#0D477C"/>
<rect x="34.0586" y="126.354" width="17.8824" height="0.941176" fill="#0D477C"/>
<path d="M23.6275 73.6471L19 68V171.529L23.6275 165.882L28.2549 171.529L32.8824 165.882L37.5098 171.529L42.1373 165.882L46.7647 171.529L51.3922 165.882L56.0196 171.529L60.6471 165.882L65.2745 171.529L69.902 165.882L74.5294 171.529L79.1569 165.882L83.7843 171.529L88.4118 165.882L93.0392 171.529L97.6667 165.882L102.294 171.529V68L97.6667 73.6471L93.0392 68L88.4118 73.6471L83.7843 68L79.1569 73.6471L74.5294 68L69.902 73.6471L65.2745 68L60.6471 73.6471L56.0196 68L51.3922 73.6471L46.7647 68L42.1373 73.6471L37.5098 68L32.8824 73.6471L28.2549 68L23.6275 73.6471Z" stroke="#0D477C"/>
<path d="M28.0001 102.424L101.935 60V60.0001C101.899 73.2469 111.156 89.3796 122.61 96.0334L224.498 155.221C237.962 163.042 248.843 182.005 248.801 197.576L174.867 240C174.908 224.429 164.027 205.466 150.564 197.645L48.6757 138.457C37.2216 131.803 27.9648 115.671 28.0001 102.424Z" fill="url(#paint0_linear)"/>
<g style="mix-blend-mode:overlay">
<path d="M141.74 165.764L124.994 175.373L126.604 176.309L143.351 166.7L141.74 165.764Z" fill="white"/>
<path d="M150.327 160.836L144.297 164.296L145.909 165.232L151.938 161.772L150.327 160.836Z" fill="white"/>
<path d="M156.983 157.017L152.886 159.368L154.497 160.304L158.594 157.953L156.983 157.017Z" fill="white"/>
<path d="M130.438 167.999L121.313 173.235L122.924 174.171L132.049 168.935L130.438 167.999Z" fill="white"/>
<path d="M144.178 160.115L132.996 166.532L134.607 167.467L145.789 161.051L144.178 160.115Z" fill="white"/>
<path d="M150.834 156.296L146.736 158.647L148.347 159.583L152.445 157.232L150.834 156.296Z" fill="white"/>
<path d="M157.166 152.662L153.069 155.013L154.68 155.949L158.778 153.598L157.166 152.662Z" fill="white"/>
<path d="M124.235 167.309L117.633 171.097L119.244 172.033L125.846 168.244L124.235 167.309Z" fill="white"/>
<path d="M129.048 164.546L126.792 165.841L128.403 166.777L130.659 165.482L129.048 164.546Z" fill="white"/>
<path d="M135.705 160.727L131.608 163.078L133.218 164.014L137.316 161.663L135.705 160.727Z" fill="white"/>
<path d="M138.321 154.977L113.953 168.96L115.564 169.895L139.932 155.913L138.321 154.977Z" fill="white"/>
<path d="M146.908 150.049L140.879 153.509L142.49 154.445L148.52 150.985L146.908 150.049Z" fill="white"/>
<path d="M116.874 163.033L110.272 166.822L111.883 167.757L118.485 163.969L116.874 163.033Z" fill="white"/>
<path d="M132.368 154.143L119.432 161.565L121.044 162.501L133.979 155.079L132.368 154.143Z" fill="white"/>
<path d="M139.024 150.324L134.927 152.675L136.538 153.611L140.635 151.26L139.024 150.324Z" fill="white"/>
<path d="M120.1 156.933L106.592 164.684L108.203 165.62L121.711 157.869L120.1 156.933Z" fill="white"/>
<path d="M132.427 149.86L122.658 155.465L124.27 156.401L134.038 150.795L132.427 149.86Z" fill="white"/>
<path d="M141.587 144.603L134.985 148.391L136.597 149.327L143.199 145.539L141.587 144.603Z" fill="white"/>
<path d="M107.474 159.928L102.912 162.546L104.523 163.482L109.085 160.864L107.474 159.928Z" fill="white"/>
<path d="M116.062 155L110.032 158.46L111.643 159.396L117.673 155.936L116.062 155Z" fill="white"/>
<path d="M128.335 147.958L118.62 153.532L120.231 154.468L129.946 148.893L128.335 147.958Z" fill="white"/>
<path d="M113.207 152.389L99.2319 160.408L100.843 161.344L114.818 153.324L113.207 152.389Z" fill="white"/>
<path d="M128.859 143.408L115.765 150.921L117.376 151.857L130.47 144.343L128.859 143.408Z" fill="white"/>
<path d="M135.515 139.588L131.418 141.939L133.029 142.875L137.126 140.524L135.515 139.588Z" fill="white"/>
<path d="M141.902 135.923L137.805 138.274L139.416 139.21L143.513 136.859L141.902 135.923Z" fill="white"/>
<path d="M103.924 153.465L95.5516 158.27L97.1624 159.206L105.536 154.401L103.924 153.465Z" fill="white"/>
<path d="M175.707 146.274L187.319 139.611L188.93 140.547L177.318 147.209L175.707 146.274Z" fill="white"/>
<path d="M174.513 142.708L183.637 137.472L185.249 138.408L176.124 143.644L174.513 142.708Z" fill="white"/>
<path d="M173.356 139.123L179.958 135.335L181.569 136.271L174.967 140.059L173.356 139.123Z" fill="white"/>
<path d="M166.674 138.707L176.277 133.197L177.888 134.133L168.285 139.643L166.674 138.707Z" fill="white"/>
<path d="M165.996 134.847L172.597 131.059L174.208 131.995L167.606 135.783L165.996 134.847Z" fill="white"/>
<path d="M160.545 133.726L168.918 128.921L170.529 129.857L162.156 134.662L160.545 133.726Z" fill="white"/>
<path d="M160.674 129.401L165.236 126.783L166.847 127.719L162.285 130.337L160.674 129.401Z" fill="white"/>
<path d="M152.716 129.718L161.556 124.645L163.167 125.581L154.327 130.654L152.716 129.718Z" fill="white"/>
<path d="M149.504 127.312L157.877 122.508L159.488 123.443L151.115 128.248L149.504 127.312Z" fill="white"/>
<path d="M110.043 149.954L106.482 151.997L108.094 152.933L111.654 150.89L110.043 149.954Z" fill="white"/>
<path d="M120.618 143.887L112.602 148.486L114.213 149.422L122.228 144.823L120.618 143.887Z" fill="white"/>
<path d="M110.607 127.484L97.0812 135.245L98.6923 136.181L112.218 128.42L110.607 127.484Z" fill="white"/>
<path d="M119.87 122.169L114.543 125.226L116.154 126.162L121.482 123.105L119.87 122.169Z" fill="white"/>
</g>
<path opacity="0.2" d="M188.82 151.092C190.648 157.098 178.33 167.523 161.308 174.376C144.287 181.229 129.007 181.915 127.18 175.908C125.352 169.902 137.67 159.477 154.692 152.624C171.713 145.771 186.993 145.085 188.82 151.092Z" fill="#4F4F4F"/>
<path d="M145.619 131.927L145.833 126.548L147.084 123.397L147.878 126.004L145.619 131.927Z" fill="#E8A200"/>
<path d="M202.083 132.953L202.294 127.674C202.294 127.674 197.83 132.129 197.827 132.237C197.825 132.346 202.083 132.953 202.083 132.953Z" fill="#FDD762"/>
<path d="M173.464 148.61C157.874 148.237 145.503 140.31 145.832 126.547C146.162 112.784 159.067 101.93 174.657 102.303C190.247 102.677 202.618 114.136 202.288 127.899C201.959 141.662 189.053 148.983 173.464 148.61Z" fill="#FDD762"/>
<path d="M202.075 133.279C202.405 119.516 190.034 108.056 174.444 107.683C158.854 107.309 145.949 118.164 145.619 131.927C145.29 145.69 157.661 157.149 173.251 157.523C188.84 157.896 201.746 147.042 202.075 133.279Z" fill="#FDD762"/>
<path d="M154.145 114.648C149.025 119.025 145.782 125.119 145.619 131.927C145.289 145.69 157.66 157.149 173.25 157.523C180.962 157.707 188.013 155.142 193.214 150.839L154.145 114.648Z" fill="#E8A200"/>
<path d="M200.816 133.248C201.131 120.099 189.311 109.151 174.417 108.794C159.523 108.438 147.193 118.808 146.879 131.957C146.564 145.106 158.383 156.055 173.277 156.411C188.172 156.768 200.501 146.397 200.816 133.248Z" fill="#FEC237"/>
<path d="M195.497 133.121C195.75 122.565 186.262 113.776 174.305 113.49C162.348 113.204 152.45 121.529 152.198 132.084C151.945 142.64 161.433 151.429 173.39 151.715C185.347 152.002 195.244 143.677 195.497 133.121Z" fill="#FEC237"/>
<path d="M195.497 133.121C195.508 132.683 195.495 132.25 195.473 131.819C194.477 141.75 184.913 149.389 173.452 149.115C161.991 148.84 152.804 140.752 152.284 130.785C152.241 131.214 152.208 131.646 152.198 132.084C151.945 142.64 161.433 151.429 173.39 151.715C185.347 152.001 195.244 143.676 195.497 133.121Z" fill="#FDD762"/>
<path d="M178 134.214L173.559 130.101C169.283 131.071 161.313 132.887 154.947 134.382C156.53 139.145 160.39 143.074 165.433 145.16L178 134.214Z" fill="#FDD762"/>
<path d="M171.012 146.617C171.718 146.703 172.435 146.758 173.163 146.776C178.073 146.939 182.882 145.354 186.734 142.305L179.486 135.591L171.012 146.617Z" fill="#FDD762"/>
<path d="M168.797 125.689L160.432 117.94C157.618 120.398 155.103 123.107 154.425 126.728L168.797 125.689Z" fill="#FDD762"/>
<path d="M173.172 115.776C185.128 116.062 194.617 124.851 194.364 135.407C194.312 137.497 193.876 139.56 193.079 141.494C194.589 138.956 195.421 136.073 195.496 133.121C195.749 122.565 186.261 113.776 174.304 113.49C164.771 113.262 156.552 118.511 153.482 125.998C157.161 119.752 164.641 115.571 173.172 115.776Z" fill="#E8A200"/>
<path d="M145.833 126.547C145.784 128.595 145.593 130.077 146.075 131.994C146.696 129.976 148.045 123.935 148.045 123.935L150.194 119.135L151.985 117.66L155.014 115.452L155.265 108.529C149.624 112.946 146.005 119.346 145.833 126.547Z" fill="#E8A200"/>
<path d="M200.465 125.842L200.584 124.423C200.583 124.328 200.62 124.237 200.687 124.17C200.753 124.102 200.844 124.064 200.938 124.063L201.045 124.066C201.139 124.071 201.228 124.114 201.291 124.184C201.354 124.255 201.387 124.348 201.381 124.442L201.263 125.861C201.264 125.955 201.227 126.046 201.16 126.114C201.094 126.181 201.003 126.22 200.909 126.221L200.802 126.218C200.708 126.213 200.619 126.17 200.556 126.099C200.493 126.029 200.46 125.936 200.465 125.842Z" fill="#E8A200"/>
<path d="M197.985 120.407L198.131 117.857C198.13 117.749 198.172 117.645 198.248 117.568C198.323 117.492 198.426 117.448 198.534 117.447L198.782 117.453C198.889 117.459 198.99 117.508 199.062 117.588C199.134 117.668 199.171 117.774 199.165 117.882L199.02 120.431C199.02 120.539 198.978 120.643 198.903 120.72C198.827 120.797 198.724 120.84 198.616 120.841L198.368 120.835C198.261 120.829 198.16 120.781 198.088 120.7C198.016 120.62 197.979 120.514 197.985 120.407Z" fill="#E8A200"/>
<path d="M194.546 115.666L194.69 113.194C194.689 113.072 194.737 112.955 194.823 112.868C194.908 112.781 195.025 112.732 195.146 112.731L195.578 112.741C195.7 112.748 195.814 112.803 195.895 112.894C195.977 112.985 196.019 113.104 196.012 113.226L195.868 115.698C195.869 115.82 195.821 115.937 195.736 116.024C195.65 116.111 195.534 116.16 195.412 116.161L194.98 116.151C194.858 116.144 194.744 116.089 194.663 115.998C194.582 115.907 194.54 115.788 194.546 115.666Z" fill="#E8A200"/>
<path d="M189.4 111.839L189.556 108.843C189.555 108.721 189.603 108.604 189.688 108.517C189.774 108.43 189.89 108.381 190.012 108.38L190.444 108.39C190.566 108.397 190.68 108.452 190.761 108.543C190.843 108.634 190.884 108.753 190.878 108.875L190.721 111.871C190.722 111.993 190.675 112.11 190.589 112.197C190.504 112.284 190.387 112.333 190.265 112.334L189.833 112.324C189.712 112.317 189.598 112.262 189.516 112.171C189.435 112.08 189.393 111.961 189.4 111.839Z" fill="#E8A200"/>
<path d="M184.221 109.326L184.388 105.874C184.387 105.752 184.435 105.635 184.52 105.548C184.606 105.461 184.722 105.412 184.844 105.411L185.276 105.421C185.398 105.428 185.512 105.483 185.593 105.574C185.674 105.664 185.716 105.784 185.71 105.905L185.542 109.357C185.543 109.479 185.496 109.596 185.41 109.683C185.325 109.77 185.208 109.82 185.086 109.821L184.654 109.81C184.532 109.803 184.418 109.748 184.337 109.658C184.256 109.567 184.214 109.447 184.221 109.326Z" fill="#E8A200"/>
<path d="M179.018 107.793L179.182 104.476C179.182 104.354 179.229 104.237 179.315 104.15C179.4 104.063 179.517 104.013 179.639 104.012L180.071 104.023C180.192 104.03 180.306 104.085 180.388 104.175C180.469 104.266 180.511 104.386 180.504 104.507L180.34 107.824C180.341 107.946 180.293 108.063 180.208 108.15C180.122 108.237 180.006 108.286 179.884 108.287L179.452 108.277C179.33 108.27 179.216 108.215 179.135 108.124C179.054 108.034 179.012 107.914 179.018 107.793Z" fill="#E8A200"/>
<path d="M173.793 107.269L173.958 103.901C173.957 103.779 174.005 103.662 174.09 103.575C174.176 103.488 174.292 103.439 174.414 103.438L174.846 103.448C174.968 103.455 175.082 103.51 175.163 103.601C175.245 103.692 175.287 103.811 175.28 103.933L175.115 107.301C175.115 107.422 175.068 107.54 174.982 107.627C174.897 107.713 174.78 107.763 174.658 107.764L174.226 107.754C174.105 107.747 173.991 107.692 173.909 107.601C173.828 107.51 173.786 107.391 173.793 107.269Z" fill="#E8A200"/>
<path d="M168.551 107.381L168.711 104.225C168.711 104.103 168.758 103.986 168.844 103.899C168.929 103.812 169.046 103.762 169.168 103.761L169.6 103.772C169.721 103.779 169.835 103.834 169.917 103.924C169.998 104.015 170.04 104.135 170.033 104.256L169.873 107.412C169.874 107.534 169.826 107.651 169.741 107.738C169.655 107.825 169.539 107.875 169.417 107.876L168.985 107.865C168.863 107.858 168.749 107.804 168.668 107.713C168.586 107.622 168.545 107.502 168.551 107.381Z" fill="#E8A200"/>
<path d="M163.285 108.527L163.443 105.471C163.442 105.35 163.49 105.232 163.575 105.145C163.661 105.059 163.777 105.009 163.899 105.008L164.331 105.018C164.453 105.025 164.567 105.08 164.648 105.171C164.729 105.262 164.771 105.381 164.765 105.503L164.607 108.559C164.608 108.681 164.56 108.798 164.475 108.885C164.389 108.972 164.273 109.021 164.151 109.022L163.719 109.012C163.597 109.005 163.483 108.95 163.402 108.859C163.32 108.769 163.279 108.649 163.285 108.527Z" fill="#E8A200"/>
<path d="M157.984 111.1L158.148 107.793C158.147 107.671 158.194 107.553 158.28 107.467C158.365 107.38 158.482 107.33 158.604 107.329L159.036 107.34C159.158 107.346 159.272 107.401 159.353 107.492C159.434 107.583 159.476 107.703 159.469 107.824L159.306 111.132C159.306 111.254 159.259 111.371 159.173 111.458C159.088 111.545 158.971 111.594 158.849 111.595L158.417 111.585C158.296 111.578 158.182 111.523 158.1 111.432C158.019 111.341 157.977 111.222 157.984 111.1Z" fill="#E8A200"/>
<path d="M52.5245 207.015L52.7119 202.293L53.8101 199.527L54.5072 201.816L52.5245 207.015Z" fill="#828282"/>
<path d="M102.094 207.917L102.28 203.282C102.28 203.282 98.3609 207.193 98.3586 207.288C98.3563 207.384 102.094 207.917 102.094 207.917Z" fill="#BDBDBD"/>
<path d="M76.9693 221.662C63.2825 221.334 52.4217 214.376 52.711 202.293C53.0004 190.21 64.3303 180.68 78.0171 181.008C91.704 181.336 102.565 191.397 102.275 203.48C101.986 215.563 90.6562 221.99 76.9693 221.662Z" fill="#BDBDBD"/>
<path d="M102.088 208.203C102.378 196.12 91.5173 186.059 77.8305 185.731C64.1437 185.403 52.8136 194.932 52.5242 207.015C52.2347 219.098 63.0953 229.159 76.7821 229.487C90.4689 229.815 101.799 220.286 102.088 208.203Z" fill="#BDBDBD"/>
<path d="M60.009 191.846C55.5139 195.689 52.6664 201.039 52.5232 207.015C52.2339 219.098 63.0947 229.159 76.7815 229.487C83.5518 229.649 89.7429 227.397 94.3087 223.619L60.009 191.846Z" fill="#828282"/>
<path d="M100.982 208.176C101.258 196.632 90.8821 187.02 77.8058 186.707C64.7296 186.394 53.9052 195.498 53.6288 207.042C53.3525 218.586 63.7288 228.198 76.8051 228.511C89.8813 228.824 100.706 219.72 100.982 208.176Z" fill="#4F4F4F"/>
<path d="M96.3133 208.064C96.5352 198.797 88.2055 191.08 77.7081 190.829C67.2108 190.578 58.5211 197.886 58.2991 207.153C58.0771 216.421 66.407 224.137 76.9043 224.389C87.4016 224.64 96.0913 217.331 96.3133 208.064Z" fill="#4F4F4F"/>
<path d="M96.3133 208.064C96.3225 207.68 96.3117 207.3 96.292 206.921C95.4174 215.64 87.0214 222.347 76.9591 222.106C66.8968 221.865 58.8314 214.763 58.3752 206.013C58.3373 206.39 58.3083 206.77 58.2991 207.154C58.0772 216.421 66.4071 224.137 76.9044 224.388C87.4018 224.64 96.0914 217.331 96.3133 208.064Z" fill="#BDBDBD"/>
<path d="M80.9526 209.024L77.0543 205.412C73.3002 206.264 66.3033 207.858 60.714 209.171C62.1035 213.353 65.4923 216.802 69.9205 218.634L80.9526 209.024Z" fill="#BDBDBD"/>
<path d="M74.8173 219.912C75.437 219.988 76.0665 220.037 76.7058 220.052C81.0167 220.195 85.2385 218.804 88.6203 216.127L82.2568 210.232L74.8173 219.912Z" fill="#BDBDBD"/>
<path d="M72.8721 201.539L65.5282 194.736C63.0583 196.894 60.8505 199.272 60.2543 202.451L72.8721 201.539Z" fill="#BDBDBD"/>
<path d="M76.7139 192.836C87.2112 193.087 95.541 200.804 95.3191 210.071C95.2737 211.906 94.8914 213.718 94.1912 215.415C95.5168 213.187 96.2476 210.656 96.3136 208.064C96.5355 198.797 88.2057 191.081 77.7084 190.83C69.3382 190.629 62.1226 195.237 59.4273 201.81C62.6576 196.327 69.2243 192.657 76.7139 192.836Z" fill="#828282"/>
<path d="M52.7117 202.293C52.6687 204.091 52.5011 205.392 52.9243 207.074C53.47 205.303 54.6541 200 54.6541 200L56.5411 195.786L58.1128 194.491L60.7728 192.552L60.9927 186.474C56.0405 190.352 52.8632 195.971 52.7117 202.293Z" fill="#828282"/>
<path d="M100.675 201.673L100.779 200.428C100.778 200.344 100.811 200.264 100.869 200.205C100.928 200.146 101.007 200.112 101.09 200.112L101.184 200.114C101.267 200.118 101.344 200.156 101.4 200.218C101.455 200.28 101.484 200.361 101.479 200.444L101.375 201.69C101.376 201.773 101.343 201.853 101.285 201.912C101.227 201.971 101.147 202.005 101.064 202.006L100.971 202.003C100.888 201.999 100.81 201.961 100.754 201.899C100.699 201.837 100.67 201.756 100.675 201.673Z" fill="#828282"/>
<path d="M98.4976 196.901L98.6255 194.663C98.6248 194.568 98.6618 194.477 98.7282 194.409C98.7947 194.342 98.8852 194.304 98.9799 194.303L99.1972 194.308C99.2918 194.313 99.3803 194.356 99.4434 194.426C99.5065 194.497 99.5391 194.59 99.5339 194.684L99.406 196.923C99.4067 197.018 99.3697 197.109 99.3033 197.176C99.2369 197.244 99.1464 197.282 99.0517 197.283L98.8343 197.278C98.7398 197.272 98.6512 197.23 98.5881 197.159C98.525 197.088 98.4925 196.996 98.4976 196.901Z" fill="#828282"/>
<path d="M95.4798 192.74L95.6061 190.57C95.6053 190.463 95.6471 190.36 95.7221 190.284C95.7972 190.207 95.8995 190.164 96.0065 190.163L96.3859 190.172C96.4927 190.178 96.5928 190.226 96.6641 190.306C96.7354 190.386 96.7722 190.491 96.7664 190.598L96.6401 192.768C96.6409 192.875 96.5991 192.978 96.5241 193.054C96.449 193.13 96.3467 193.174 96.2397 193.175L95.8603 193.166C95.7535 193.16 95.6534 193.111 95.5821 193.032C95.5108 192.952 95.474 192.847 95.4798 192.74Z" fill="#828282"/>
<path d="M90.9603 189.38L91.0976 186.75C91.0968 186.643 91.1386 186.54 91.2137 186.464C91.2888 186.387 91.3911 186.344 91.4981 186.343L91.8773 186.352C91.9842 186.358 92.0843 186.406 92.1556 186.486C92.227 186.566 92.2638 186.671 92.258 186.778L92.1206 189.408C92.1214 189.515 92.0796 189.618 92.0045 189.694C91.9294 189.77 91.8271 189.814 91.7201 189.815L91.3409 189.805C91.234 189.799 91.134 189.751 91.0626 189.671C90.9913 189.592 90.9545 189.487 90.9603 189.38Z" fill="#828282"/>
<path d="M86.4135 187.173L86.5604 184.143C86.5597 184.036 86.6014 183.933 86.6765 183.857C86.7516 183.781 86.8539 183.737 86.9609 183.736L87.3403 183.745C87.4471 183.751 87.5472 183.8 87.6185 183.879C87.6898 183.959 87.7266 184.064 87.7208 184.171L87.5739 187.201C87.5747 187.308 87.5329 187.411 87.4578 187.487C87.3827 187.564 87.2804 187.607 87.1734 187.608L86.7941 187.599C86.6872 187.593 86.5871 187.545 86.5158 187.465C86.4445 187.385 86.4077 187.28 86.4135 187.173Z" fill="#828282"/>
<path d="M81.8464 185.827L81.9904 182.915C81.9897 182.808 82.0314 182.705 82.1065 182.629C82.1816 182.552 82.2839 182.509 82.3909 182.508L82.7702 182.517C82.8771 182.523 82.9771 182.571 83.0485 182.651C83.1199 182.731 83.1567 182.836 83.1508 182.943L83.0067 185.855C83.0075 185.962 82.9657 186.065 82.8906 186.141C82.8156 186.217 82.7133 186.26 82.6063 186.261L82.227 186.252C82.1201 186.246 82.02 186.198 81.9487 186.118C81.8773 186.038 81.8406 185.934 81.8464 185.827Z" fill="#828282"/>
<path d="M77.258 185.368L77.403 182.411C77.4023 182.304 77.444 182.201 77.5191 182.125C77.5942 182.049 77.6965 182.005 77.8035 182.004L78.1829 182.014C78.2897 182.02 78.3898 182.068 78.4611 182.148C78.5325 182.227 78.5692 182.332 78.5634 182.439L78.4183 185.396C78.419 185.503 78.3772 185.605 78.3022 185.682C78.2271 185.758 78.1249 185.801 78.0179 185.802L77.6385 185.793C77.5316 185.787 77.4316 185.739 77.3602 185.659C77.2889 185.579 77.2521 185.475 77.258 185.368Z" fill="#828282"/>
<path d="M72.6567 185.466L72.7974 182.695C72.7967 182.588 72.8384 182.485 72.9135 182.409C72.9886 182.332 73.0909 182.289 73.1979 182.288L73.5772 182.297C73.6841 182.303 73.7841 182.351 73.8555 182.431C73.9268 182.511 73.9636 182.616 73.9577 182.723L73.8171 185.493C73.8178 185.6 73.7761 185.703 73.701 185.78C73.6259 185.856 73.5236 185.899 73.4166 185.9L73.0373 185.891C72.9304 185.885 72.8303 185.837 72.759 185.757C72.6877 185.677 72.6509 185.572 72.6567 185.466Z" fill="#828282"/>
<path d="M68.0329 186.473L68.1713 183.79C68.1706 183.683 68.2124 183.58 68.2874 183.504C68.3625 183.427 68.4648 183.384 68.5718 183.383L68.9512 183.392C69.058 183.398 69.1581 183.446 69.2294 183.526C69.3008 183.606 69.3375 183.711 69.3317 183.818L69.1931 186.501C69.1939 186.608 69.1521 186.71 69.0771 186.787C69.002 186.863 68.8997 186.906 68.7927 186.907L68.4134 186.898C68.3065 186.892 68.2064 186.844 68.1351 186.764C68.0638 186.684 68.027 186.58 68.0329 186.473Z" fill="#828282"/>
<path d="M63.3794 188.731L63.5231 185.827C63.5224 185.72 63.5642 185.617 63.6393 185.541C63.7144 185.465 63.8166 185.421 63.9237 185.42L64.303 185.429C64.4099 185.436 64.5099 185.484 64.5813 185.564C64.6526 185.643 64.6894 185.748 64.6835 185.855L64.5397 188.759C64.5404 188.866 64.4986 188.969 64.4236 189.045C64.3485 189.122 64.2463 189.165 64.1393 189.166L63.7599 189.157C63.6531 189.151 63.553 189.103 63.4816 189.023C63.4103 188.943 63.3736 188.838 63.3794 188.731Z" fill="#828282"/>
<path d="M169.321 66.8144L169.485 62.7137C169.485 62.7137 166.018 66.174 166.016 66.2582C166.014 66.3422 169.321 66.8144 169.321 66.8144Z" fill="#FFA3D4"/>
<path d="M147.092 78.9754C134.983 78.6855 125.374 72.5288 125.63 61.8385C125.886 51.1484 135.91 42.7172 148.019 43.0073C160.128 43.2972 169.737 52.1984 169.481 62.8886C169.225 73.5789 159.201 79.2654 147.092 78.9754Z" fill="#FFA3D4"/>
<path d="M169.315 67.0671C169.571 56.3768 159.962 47.4756 147.853 47.1856C135.744 46.8956 125.72 55.3267 125.464 66.017C125.208 76.7072 134.817 85.6085 146.926 85.8984C159.035 86.1884 169.059 77.7573 169.315 67.0671Z" fill="#FFA3D4"/>
<path d="M132.088 52.596C128.111 55.9963 125.591 60.7293 125.465 66.0174C125.209 76.7077 134.818 85.6089 146.927 85.8989C152.917 86.0423 158.394 84.0494 162.434 80.7072L132.088 52.596Z" fill="#F10080"/>
<path d="M168.337 67.0437C168.582 56.8303 159.401 48.3261 147.832 48.0489C136.263 47.7718 126.686 55.8267 126.442 66.0401C126.197 76.2534 135.377 84.7577 146.946 85.0348C158.515 85.312 168.092 77.2571 168.337 67.0437Z" fill="#FF2C9C"/>
<path d="M164.206 66.9445C164.402 58.7454 157.033 51.9185 147.745 51.6961C138.458 51.4737 130.77 57.9401 130.573 66.1391C130.377 74.3382 137.747 81.1651 147.034 81.3875C156.322 81.6099 164.01 75.1435 164.206 66.9445Z" fill="#FF2C9C"/>
<path d="M164.206 66.9448C164.214 66.605 164.204 66.2686 164.187 65.9339C163.413 73.6473 155.985 79.5812 147.082 79.368C138.18 79.1548 131.044 72.8721 130.64 65.1305C130.607 65.464 130.581 65.7996 130.573 66.1394C130.377 74.3384 137.746 81.1653 147.034 81.3877C156.321 81.6101 164.009 75.1438 164.206 66.9448Z" fill="#FFA3D4"/>
<path d="M150.616 67.7934L147.167 64.5984C143.846 65.3519 137.655 66.7624 132.71 67.9235C133.939 71.6235 136.938 74.6752 140.855 76.2957L150.616 67.7934Z" fill="#FFA3D4"/>
<path d="M145.187 77.4274C145.735 77.4941 146.292 77.5374 146.858 77.5509C150.672 77.6772 154.407 76.4466 157.399 74.0781L151.769 68.8627L145.187 77.4274Z" fill="#FFA3D4"/>
<path d="M143.468 61.1715L136.97 55.1526C134.785 57.0618 132.832 59.1659 132.304 61.9786L143.468 61.1715Z" fill="#FFA3D4"/>
<path d="M146.865 53.472C156.153 53.6944 163.523 60.5213 163.326 68.7204C163.286 70.3441 162.948 71.9467 162.328 73.4481C163.501 71.4772 164.148 69.2378 164.206 66.945C164.402 58.746 157.033 51.919 147.745 51.6966C140.34 51.5193 133.956 55.5965 131.571 61.4119C134.429 56.5607 140.239 53.3133 146.865 53.472Z" fill="#F10080"/>
<path d="M125.63 61.839C125.592 63.4297 125.443 64.5805 125.818 66.0695C126.3 64.502 127.348 59.81 127.348 59.81L129.018 56.0818L130.408 54.9362L132.761 53.2209L132.956 47.8435C128.575 51.2743 125.764 56.2459 125.63 61.839Z" fill="#F10080"/>
<path d="M168.065 61.2905L168.157 60.1887C168.157 60.1151 168.186 60.0444 168.237 59.992C168.289 59.9396 168.359 59.9098 168.433 59.9091L168.515 59.9111C168.589 59.9153 168.657 59.9484 168.707 60.0032C168.756 60.0581 168.781 60.1301 168.777 60.2035L168.685 61.3054C168.685 61.3789 168.657 61.4497 168.605 61.5021C168.553 61.5545 168.483 61.5843 168.41 61.5849L168.327 61.583C168.253 61.5788 168.185 61.5457 168.135 61.4908C168.086 61.436 168.061 61.364 168.065 61.2905Z" fill="#F10080"/>
<path d="M166.138 57.0686L166.251 55.0881C166.251 55.0044 166.283 54.9238 166.342 54.8641C166.401 54.8044 166.481 54.7705 166.565 54.7697L166.757 54.7743C166.841 54.7791 166.919 54.8168 166.975 54.8793C167.031 54.9417 167.06 55.0238 167.055 55.1075L166.942 57.0879C166.943 57.1717 166.91 57.2522 166.851 57.3119C166.792 57.3716 166.712 57.4056 166.628 57.4063L166.436 57.4017C166.352 57.397 166.274 57.3592 166.218 57.2968C166.162 57.2343 166.134 57.1522 166.138 57.0686Z" fill="#F10080"/>
<path d="M163.468 53.3872L163.579 51.467C163.579 51.3724 163.616 51.2813 163.682 51.2138C163.748 51.1464 163.839 51.108 163.934 51.1071L164.269 51.1152C164.364 51.1205 164.452 51.1632 164.515 51.2338C164.578 51.3044 164.611 51.3971 164.606 51.4917L164.494 53.4118C164.495 53.5065 164.458 53.5976 164.391 53.6651C164.325 53.7325 164.235 53.7709 164.14 53.7718L163.804 53.7637C163.71 53.7583 163.621 53.7157 163.558 53.6451C163.495 53.5745 163.462 53.4818 163.468 53.3872Z" fill="#F10080"/>
<path d="M159.47 50.4145L159.591 48.0876C159.59 47.9929 159.627 47.9018 159.694 47.8343C159.76 47.7669 159.851 47.7285 159.945 47.7276L160.281 47.7357C160.376 47.7411 160.464 47.7837 160.527 47.8543C160.59 47.9249 160.623 48.0176 160.618 48.1121L160.496 50.4391C160.497 50.5337 160.46 50.6248 160.394 50.6923C160.327 50.7598 160.237 50.7982 160.142 50.799L159.806 50.7909C159.712 50.7856 159.623 50.7429 159.56 50.6723C159.497 50.6018 159.464 50.509 159.47 50.4145Z" fill="#F10080"/>
<path d="M155.448 48.4619L155.578 45.7808C155.577 45.6861 155.614 45.5951 155.681 45.5276C155.747 45.4601 155.837 45.4217 155.932 45.4209L156.268 45.4289C156.362 45.4343 156.451 45.477 156.514 45.5476C156.577 45.6181 156.61 45.7109 156.604 45.8054L156.474 48.4865C156.475 48.5812 156.438 48.6723 156.372 48.7397C156.305 48.8072 156.215 48.8456 156.12 48.8464L155.785 48.8384C155.69 48.833 155.602 48.7904 155.538 48.7198C155.475 48.6492 155.443 48.5565 155.448 48.4619Z" fill="#F10080"/>
<path d="M151.407 47.2706L151.534 44.6944C151.533 44.5998 151.57 44.5087 151.637 44.4412C151.703 44.3737 151.794 44.3353 151.888 44.3345L152.224 44.3426C152.318 44.348 152.407 44.3906 152.47 44.4612C152.533 44.5318 152.566 44.6245 152.561 44.719L152.433 47.2952C152.434 47.3899 152.397 47.481 152.33 47.5485C152.264 47.616 152.174 47.6544 152.079 47.6552L151.743 47.6471C151.649 47.6418 151.56 47.5991 151.497 47.5285C151.434 47.4579 151.401 47.3652 151.407 47.2706Z" fill="#F10080"/>
<path d="M147.348 46.8645L147.476 44.2487C147.475 44.154 147.512 44.063 147.579 43.9955C147.645 43.928 147.736 43.8896 147.83 43.8888L148.166 43.8968C148.261 43.9022 148.349 43.9449 148.412 44.0154C148.475 44.086 148.508 44.1788 148.503 44.2733L148.374 46.8891C148.375 46.9838 148.338 47.0748 148.272 47.1423C148.205 47.2098 148.115 47.2482 148.02 47.249L147.685 47.241C147.59 47.2356 147.501 47.1929 147.438 47.1223C147.375 47.0518 147.343 46.959 147.348 46.8645Z" fill="#F10080"/>
<path d="M143.276 46.9513L143.401 44.4999C143.4 44.4052 143.437 44.3142 143.503 44.2467C143.57 44.1792 143.66 44.1408 143.755 44.14L144.091 44.148C144.185 44.1534 144.274 44.1961 144.337 44.2667C144.4 44.3372 144.433 44.43 144.427 44.5245L144.303 46.9759C144.304 47.0706 144.267 47.1617 144.2 47.2292C144.134 47.2966 144.043 47.335 143.949 47.3359L143.613 47.3278C143.518 47.3224 143.43 47.2798 143.367 47.2092C143.304 47.1386 143.271 47.0459 143.276 46.9513Z" fill="#F10080"/>
<path d="M139.185 47.8422L139.308 45.4683C139.307 45.3737 139.344 45.2826 139.41 45.2151C139.477 45.1477 139.567 45.1093 139.662 45.1085L139.997 45.1165C140.092 45.1218 140.181 45.1645 140.244 45.2351C140.307 45.3057 140.339 45.3984 140.334 45.4929L140.212 47.8668C140.212 47.9614 140.175 48.0525 140.109 48.12C140.042 48.1874 139.952 48.2258 139.857 48.2266L139.522 48.2186C139.427 48.2133 139.339 48.1706 139.276 48.1C139.212 48.0294 139.18 47.9367 139.185 47.8422Z" fill="#F10080"/>
<path d="M135.068 49.8405L135.196 47.2712C135.195 47.1765 135.232 47.0854 135.298 47.0179C135.365 46.9505 135.455 46.9121 135.55 46.9113L135.885 46.9193C135.98 46.9247 136.069 46.9673 136.132 47.0379C136.195 47.1085 136.227 47.2012 136.222 47.2958L136.095 49.8651C136.096 49.9597 136.059 50.0508 135.992 50.1183C135.926 50.1858 135.835 50.2242 135.741 50.225L135.405 50.2169C135.31 50.2116 135.222 50.1689 135.159 50.0983C135.096 50.0277 135.063 49.935 135.068 49.8405Z" fill="#F10080"/>
<path d="M125.464 66.0168L125.629 61.8384L126.601 59.3918L127.217 61.4169L125.464 66.0168Z" fill="#F10080"/>
<defs>
<linearGradient id="paint0_linear" x1="112.5" y1="53" x2="207.791" y2="229.9" gradientUnits="userSpaceOnUse">
<stop stop-color="#3BB9FF"/>
<stop stop-color="#828282"/>
<stop offset="0.0001" stop-color="#8ED7FF"/>
<stop offset="0.20272" stop-color="#D1EFFF"/>
<stop offset="0.401704" stop-color="#D1EFFF"/>
<stop offset="0.647148" stop-color="#D1EFFF"/>
<stop offset="0.833333" stop-color="#D1EFFF"/>
<stop offset="1" stop-color="#3BB9FF"/>
</linearGradient>
</defs>
</svg>
