<svg width="225" height="240" viewBox="0 0 225 240" fill="none" xmlns="http://www.w3.org/2000/svg">
<rect x="1.44122" y="0.5" width="118.529" height="239" rx="11.5" stroke="#0D477C"/>
<path d="M37.6472 0H84.706V5.41176C84.706 7.6209 82.9152 9.41177 80.706 9.41177H41.6472C39.4381 9.41177 37.6472 7.6209 37.6472 5.41177V0Z" fill="#0D477C"/>
<rect y="59.2943" width="1.88235" height="16.9412" rx="0.941176" fill="#0D477C"/>
<rect y="40.4707" width="1.88235" height="16.9412" rx="0.941176" fill="#0D477C"/>
<rect x="119.529" y="40.4707" width="1.88235" height="14.1176" rx="0.941176" fill="#0D477C"/>
<rect x="72.4706" y="3.76441" width="1.88235" height="1.88235" rx="0.941176" fill="#0D477C"/>
<rect x="48" y="3.76453" width="22.5882" height="1.88235" rx="0.941176" fill="#0D477C"/>
<rect x="18.5" y="88.1494" width="83.7059" height="68.6471" rx="3.5" stroke="#0D477C"/>
<rect x="31.6787" y="82.5" width="4.64706" height="10.2941" rx="1.5" fill="white" stroke="#0D477C"/>
<rect x="84.3838" y="82.5" width="4.64706" height="10.2941" rx="1.5" fill="white" stroke="#0D477C"/>
<rect x="71.2051" y="82.5" width="4.64706" height="10.2941" rx="1.5" fill="white" stroke="#0D477C"/>
<rect x="58.0312" y="82.5" width="4.64706" height="10.2941" rx="1.5" fill="white" stroke="#0D477C"/>
<rect x="44.8525" y="82.5" width="4.64706" height="10.2941" rx="1.5" fill="white" stroke="#0D477C"/>
<line x1="18" y1="101.266" x2="102.706" y2="101.266" stroke="#0D477C"/>
<rect x="41.5" y="108.853" width="9.40248" height="9.40248" rx="0.5" stroke="#0D477C"/>
<rect x="55.5" y="108.853" width="9.40248" height="9.40248" rx="0.5" stroke="#0D477C"/>
<rect x="84.7744" y="108.853" width="9.40248" height="9.40248" rx="0.5" stroke="#0D477C"/>
<rect x="26.5" y="123.418" width="9.40248" height="9.40248" rx="0.5" fill="#0D477C" stroke="#0D477C"/>
<rect x="41.5" y="123.418" width="9.40248" height="9.40248" rx="0.5" stroke="#0D477C"/>
<rect x="55.5" y="123.418" width="9.40248" height="9.40248" rx="0.5" stroke="#0D477C"/>
<rect x="70.209" y="123.418" width="9.40248" height="9.40248" rx="0.5" stroke="#0D477C"/>
<rect x="84.7744" y="123.418" width="9.40248" height="9.40248" rx="0.5" stroke="#0D477C"/>
<rect x="26.5225" y="137.979" width="9.40248" height="9.40248" rx="0.5" stroke="#0D477C"/>
<rect x="41.083" y="137.979" width="9.40248" height="9.40248" rx="0.5" stroke="#0D477C"/>
<rect x="55.6484" y="137.979" width="9.40248" height="9.40248" rx="0.5" stroke="#0D477C"/>
<rect x="70.209" y="137.979" width="9.40248" height="9.40248" rx="0.5" stroke="#0D477C"/>
<path fill-rule="evenodd" clip-rule="evenodd" d="M34.1958 126.782C34.3692 126.608 34.3692 126.327 34.1958 126.154C34.0225 125.98 33.7414 125.98 33.568 126.154L30.7423 128.98L29.1743 127.412C29.0009 127.238 28.7198 127.238 28.5464 127.412C28.3731 127.585 28.3731 127.866 28.5464 128.039L30.7439 130.237L31.3717 129.609L31.3701 129.607C31.3703 129.607 31.3704 129.607 31.3706 129.607L34.1958 126.782Z" fill="white"/>
<path d="M215.732 194.882L150.844 157.418C146.101 154.68 142.256 147.334 142.256 141.01V101.575C142.256 95.251 146.101 92.3444 150.844 95.0827L215.732 132.546C220.475 135.285 224.32 142.631 224.32 148.955V188.39C224.32 194.713 220.475 197.62 215.732 194.882Z" fill="url(#paint0_linear)" fill-opacity="0.2"/>
<path d="M166.957 128.948V235.027C166.957 239.66 163.389 241.362 158.985 238.82L64.1185 184.049C59.7226 181.511 56.1544 175.687 56.1544 171.055V64.9759C56.1544 60.3347 59.7226 58.6408 64.1185 61.1788L158.985 115.95C163.389 118.493 166.957 124.307 166.957 128.948Z" fill="url(#paint1_linear)"/>
<path d="M166.957 128.948V235.027C166.957 239.66 163.389 241.362 158.985 238.82L64.1185 184.049C59.7226 181.511 56.1544 175.687 56.1544 171.055V64.9759C56.1544 60.3347 59.7226 58.6408 64.1185 61.1788L158.985 115.95C163.389 118.493 166.957 124.307 166.957 128.948Z" fill="url(#paint2_linear)"/>
<path d="M105.514 145.495C105.514 142.163 107.868 140.821 110.771 142.498C112.299 143.49 113.571 144.828 114.485 146.403C115.398 147.979 115.927 149.748 116.029 151.566C116.029 154.898 113.675 156.24 110.771 154.564C109.244 153.572 107.972 152.234 107.058 150.658C106.145 149.083 105.616 147.314 105.514 145.495Z" fill="#FF2C9C"/>
<path d="M96.9918 127.042L96.4246 126.715V122.399L95.287 122.222V121.634L96.9036 121.871L96.9918 121.922V127.042Z" fill="white"/>
<path d="M112.33 135.897L109.42 134.217V133.751L110.958 132.68C111.14 132.559 111.299 132.406 111.428 132.229C111.519 132.078 111.564 131.904 111.558 131.728C111.557 131.455 111.484 131.188 111.348 130.952C111.217 130.711 111.023 130.511 110.787 130.372C110.506 130.21 110.288 130.176 110.133 130.269C109.977 130.363 109.899 130.573 109.899 130.9L109.335 130.573C109.335 130.105 109.467 129.802 109.73 129.664C109.907 129.602 110.096 129.586 110.281 129.617C110.466 129.647 110.64 129.724 110.787 129.84C111.186 130.066 111.523 130.389 111.766 130.778C111.997 131.136 112.122 131.553 112.126 131.979C112.111 132.25 112.026 132.514 111.879 132.743C111.733 132.972 111.53 133.16 111.29 133.288L110.1 134.081L112.33 135.369L112.33 135.897Z" fill="white"/>
<path d="M124.521 140.073L124.945 140.318C125.034 140.385 125.136 140.431 125.245 140.452C125.354 140.473 125.467 140.469 125.574 140.44C125.726 140.371 125.803 140.204 125.803 139.939C125.814 139.664 125.746 139.391 125.608 139.153C125.47 138.915 125.268 138.721 125.025 138.593C124.943 138.529 124.847 138.486 124.745 138.469C124.643 138.452 124.539 138.462 124.441 138.496C124.295 138.571 124.222 138.741 124.222 139.005L123.659 138.679C123.636 138.525 123.661 138.368 123.73 138.228C123.799 138.088 123.908 137.972 124.044 137.895C124.209 137.842 124.384 137.829 124.555 137.858C124.726 137.887 124.887 137.956 125.025 138.061C125.429 138.288 125.768 138.615 126.01 139.011C126.245 139.392 126.368 139.831 126.367 140.278C126.376 140.474 126.309 140.666 126.179 140.813C126.114 140.881 126.034 140.933 125.945 140.963C125.856 140.992 125.761 141 125.669 140.984C125.904 141.202 126.096 141.462 126.234 141.752C126.365 142.022 126.433 142.319 126.434 142.619C126.434 143.077 126.304 143.365 126.043 143.482C125.872 143.535 125.69 143.545 125.513 143.514C125.337 143.482 125.17 143.408 125.028 143.299C124.614 143.061 124.265 142.726 124.011 142.323C123.761 141.953 123.625 141.518 123.619 141.071L124.187 141.399C124.189 141.674 124.268 141.943 124.415 142.175C124.566 142.422 124.777 142.627 125.028 142.77C125.301 142.928 125.509 142.966 125.653 142.887C125.798 142.806 125.869 142.613 125.869 142.307C125.871 142.017 125.788 141.732 125.632 141.488C125.457 141.223 125.222 141.003 124.945 140.847L124.521 140.602L124.521 140.073Z" fill="white"/>
<path d="M140.367 150.373L140.982 150.728V151.257L140.367 150.901V152.084L139.799 151.757V150.573L137.777 149.406V149.024L139.765 146.641L140.367 146.989V150.373ZM138.418 149.247L139.799 150.045V147.546L139.732 147.647L138.418 149.247Z" fill="white"/>
<path d="M152.52 156.546L152.746 154.136L155.021 155.449V156.048L153.224 155.01L153.09 156.323C153.353 156.313 153.612 156.386 153.831 156.53C154.243 156.771 154.577 157.123 154.795 157.546C155.033 157.993 155.156 158.491 155.152 158.997C155.152 159.522 155.028 159.864 154.781 160.024C154.534 160.183 154.189 160.135 153.746 159.879C153.353 159.65 153.023 159.329 152.781 158.944C152.54 158.559 152.396 158.122 152.361 157.669L152.895 157.977C152.922 158.267 153.015 158.546 153.166 158.793C153.31 159.024 153.509 159.216 153.746 159.351C154.008 159.502 154.214 159.518 154.364 159.399C154.451 159.303 154.516 159.188 154.555 159.063C154.593 158.939 154.605 158.807 154.587 158.678C154.589 158.342 154.505 158.012 154.345 157.717C154.199 157.434 153.975 157.197 153.7 157.035C153.534 156.911 153.326 156.857 153.12 156.886L152.971 156.94L152.52 156.546Z" fill="white"/>
<path d="M68.8398 121.591V122.141L68.7356 122.081C68.6009 121.945 68.4261 121.857 68.2371 121.828C68.048 121.8 67.8549 121.833 67.6864 121.924C67.5179 122.014 67.383 122.156 67.3017 122.329C67.2204 122.502 67.1971 122.697 67.2353 122.884C67.4691 122.711 67.7884 122.742 68.1931 122.975C68.5928 123.213 68.9146 123.561 69.1189 123.979C69.3468 124.414 69.4654 124.898 69.4645 125.389C69.4912 125.581 69.4711 125.776 69.4061 125.957C69.3411 126.139 69.233 126.303 69.0911 126.434C68.8425 126.605 68.5087 126.569 68.0897 126.328C67.6376 126.053 67.2775 125.649 67.0552 125.169C66.7926 124.649 66.6567 124.075 66.6586 123.493V123.244C66.6144 122.917 66.6381 122.584 66.7281 122.266C66.8182 121.948 66.9727 121.652 67.1821 121.396C67.5304 121.101 68.0494 121.147 68.7391 121.533L68.8398 121.591ZM68.098 123.46C67.9413 123.355 67.7498 123.316 67.5646 123.351C67.4867 123.368 67.4145 123.405 67.3552 123.459C67.2959 123.512 67.2515 123.58 67.2262 123.656V123.894C67.2217 124.293 67.3061 124.688 67.4733 125.051C67.5976 125.356 67.8128 125.615 68.0896 125.793C68.3432 125.939 68.543 125.946 68.6888 125.816C68.7722 125.718 68.8346 125.603 68.8721 125.48C68.9095 125.357 68.9213 125.227 68.9067 125.099C68.9094 124.761 68.8337 124.426 68.6854 124.122C68.561 123.847 68.3562 123.616 68.098 123.46H68.098Z" fill="white"/>
<path d="M83.7223 130.552L81.8836 134.222L81.292 133.88L83.1246 130.375L80.7217 128.988V128.455L83.7223 130.188V130.552Z" fill="white"/>
<path d="M97.8303 139.663C97.8451 139.871 97.7829 140.076 97.6554 140.241C97.5957 140.306 97.5221 140.357 97.44 140.391C97.3579 140.424 97.2693 140.438 97.1809 140.433C97.4077 140.674 97.5936 140.95 97.7315 141.251C97.8602 141.52 97.9291 141.814 97.9337 142.113C97.9337 142.554 97.8053 142.831 97.5452 142.942C97.371 142.99 97.1879 142.997 97.0105 142.963C96.833 142.928 96.6659 142.853 96.5224 142.743C96.1036 142.505 95.7508 142.166 95.4959 141.757C95.2484 141.378 95.1146 140.936 95.1103 140.483C95.0948 140.255 95.1648 140.03 95.3066 139.851C95.3752 139.777 95.4606 139.722 95.5554 139.689C95.6502 139.656 95.7517 139.646 95.851 139.661C95.658 139.442 95.5007 139.194 95.3849 138.926C95.2753 138.683 95.2171 138.419 95.2138 138.152C95.2138 137.722 95.3332 137.451 95.5742 137.338C95.7341 137.288 95.904 137.277 96.0691 137.306C96.2343 137.335 96.3899 137.404 96.5225 137.507C96.9108 137.731 97.2364 138.049 97.4691 138.433C97.7033 138.8 97.8286 139.227 97.8303 139.663ZM97.3703 141.774C97.3677 141.48 97.286 141.192 97.1338 140.94C96.9869 140.681 96.7738 140.465 96.5163 140.315C96.4314 140.247 96.3298 140.203 96.2222 140.188C96.1145 140.172 96.0047 140.186 95.9042 140.227C95.8188 140.293 95.7524 140.38 95.712 140.48C95.6716 140.579 95.6587 140.688 95.6745 140.794C95.6736 141.08 95.7509 141.361 95.8981 141.607C96.0498 141.86 96.265 142.07 96.5224 142.215C96.6086 142.284 96.7108 142.33 96.8195 142.349C96.9282 142.368 97.04 142.359 97.1444 142.324C97.2943 142.244 97.3703 142.061 97.3703 141.774V141.774ZM96.5224 138.04C96.4474 137.98 96.358 137.942 96.2634 137.929C96.1687 137.916 96.0723 137.928 95.9841 137.965C95.8464 138.043 95.7777 138.218 95.778 138.488C95.7787 138.75 95.8487 139.007 95.981 139.233C96.1081 139.463 96.2952 139.654 96.5224 139.786C96.5973 139.846 96.6873 139.885 96.7827 139.898C96.878 139.911 96.975 139.897 97.0631 139.858C97.1387 139.798 97.1973 139.72 97.2329 139.63C97.2685 139.54 97.28 139.443 97.2661 139.347C97.2642 139.082 97.1918 138.821 97.0562 138.593C96.9306 138.364 96.7464 138.173 96.5224 138.04Z" fill="white"/>
<path d="M111.583 149.128C111.462 149.222 111.314 149.273 111.161 149.273C110.97 149.268 110.783 149.212 110.622 149.109C110.36 148.956 110.132 148.75 109.953 148.506C109.759 148.244 109.61 147.951 109.512 147.64C109.41 147.331 109.358 147.007 109.357 146.681C109.344 146.397 109.402 146.114 109.525 145.858C109.57 145.764 109.637 145.683 109.721 145.622C109.805 145.561 109.904 145.522 110.007 145.509C110.264 145.497 110.518 145.568 110.732 145.711C111.189 145.984 111.552 146.391 111.771 146.876C112.03 147.427 112.159 148.029 112.15 148.637V148.826C112.15 149.817 111.979 150.443 111.638 150.702C111.296 150.961 110.781 150.897 110.091 150.51L109.982 150.447V149.898L110.1 149.966C110.251 150.082 110.426 150.161 110.613 150.197C110.8 150.232 110.992 150.223 111.175 150.169C111.424 150.044 111.56 149.697 111.583 149.128ZM110.714 148.627C110.79 148.677 110.875 148.712 110.965 148.73C111.055 148.747 111.147 148.747 111.236 148.728C111.313 148.71 111.385 148.675 111.445 148.624C111.506 148.574 111.554 148.51 111.586 148.437V148.178C111.59 147.774 111.508 147.373 111.345 147.003C111.226 146.695 111.013 146.432 110.735 146.252C110.487 146.109 110.287 146.103 110.137 146.234C110.051 146.334 109.986 146.45 109.947 146.577C109.908 146.703 109.896 146.836 109.912 146.967C109.91 147.307 109.984 147.644 110.13 147.951C110.25 148.232 110.454 148.468 110.714 148.627H110.714Z" fill="white"/>
<path d="M123.802 158.423L123.235 158.096V153.781L122.097 153.603V153.015L123.714 153.252L123.802 153.303V158.423Z" fill="white"/>
<path d="M128.24 158.812C128.302 159.335 128.183 159.863 127.902 160.307C127.676 160.545 127.323 160.526 126.843 160.249C126.38 159.987 126.012 159.585 125.791 159.101C125.547 158.526 125.426 157.906 125.437 157.282V156.417C125.375 155.901 125.494 155.38 125.776 154.943C126.001 154.709 126.355 154.732 126.837 155.01C127.299 155.269 127.668 155.666 127.893 156.146C128.137 156.723 128.256 157.346 128.24 157.972V158.812ZM127.676 157.601C127.692 157.154 127.624 156.707 127.474 156.286C127.353 155.972 127.128 155.71 126.837 155.542C126.548 155.375 126.338 155.379 126.206 155.552C126.04 155.87 125.969 156.228 126.001 156.585V157.621C125.985 158.077 126.056 158.532 126.21 158.962C126.329 159.279 126.552 159.547 126.843 159.72C127.122 159.882 127.328 159.877 127.464 159.708C127.635 159.387 127.709 159.023 127.676 158.661V157.601Z" fill="white"/>
<path d="M138.085 166.669L137.518 166.342V162.027L136.38 161.849V161.261L137.996 161.498L138.085 161.549V166.669Z" fill="white"/>
<path d="M141.592 168.694L141.025 168.367V164.051L139.887 163.873V163.286L141.504 163.523L141.592 163.574V168.694Z" fill="white"/>
<path d="M152.347 174.903L151.78 174.576V170.261L150.642 170.083V169.495L152.259 169.732L152.347 169.783V174.903Z" fill="white"/>
<path d="M156.911 177.538L154.001 175.858V175.392L155.538 174.32C155.721 174.199 155.88 174.047 156.009 173.869C156.099 173.718 156.145 173.545 156.139 173.369C156.137 173.096 156.065 172.829 155.928 172.593C155.798 172.352 155.604 172.151 155.367 172.013C155.086 171.851 154.869 171.817 154.713 171.91C154.557 172.004 154.479 172.214 154.48 172.541L153.915 172.214C153.915 171.745 154.047 171.442 154.31 171.305C154.487 171.243 154.676 171.226 154.861 171.257C155.046 171.288 155.22 171.365 155.367 171.481C155.767 171.707 156.103 172.029 156.346 172.419C156.577 172.777 156.702 173.193 156.706 173.619C156.691 173.891 156.607 174.154 156.46 174.383C156.314 174.613 156.111 174.8 155.87 174.928L154.68 175.722L156.911 177.01L156.911 177.538Z" fill="white"/>
<path d="M66.7112 141.365L66.1443 141.037V136.722L65.0063 136.544V135.956L66.623 136.193L66.7112 136.244L66.7112 141.365Z" fill="white"/>
<path d="M69.1852 139.93L69.6091 140.175C69.6977 140.241 69.8004 140.287 69.9093 140.308C70.0183 140.329 70.1306 140.325 70.2376 140.295C70.3904 140.228 70.4669 140.061 70.4669 139.794C70.4771 139.52 70.4094 139.247 70.2716 139.009C70.1339 138.771 69.9316 138.577 69.6882 138.449C69.6071 138.385 69.5111 138.342 69.4091 138.325C69.3071 138.308 69.2025 138.318 69.105 138.352C68.9594 138.428 68.8865 138.597 68.8864 138.861L68.3225 138.535C68.3002 138.381 68.325 138.224 68.3937 138.084C68.4625 137.944 68.5719 137.828 68.7077 137.752C68.8723 137.698 69.0475 137.685 69.2183 137.714C69.389 137.742 69.5503 137.812 69.6882 137.917C70.0924 138.144 70.4315 138.472 70.6733 138.867C70.9084 139.248 71.032 139.686 71.0303 140.133C71.0396 140.33 70.9725 140.522 70.8429 140.67C70.7782 140.737 70.6978 140.789 70.6088 140.818C70.5198 140.848 70.4248 140.855 70.3323 140.84C70.5676 141.058 70.7595 141.319 70.898 141.608C71.0285 141.879 71.0967 142.175 71.0976 142.476C71.0976 142.933 70.9675 143.22 70.7072 143.339C70.5355 143.391 70.3538 143.402 70.1771 143.37C70.0005 143.338 69.8341 143.264 69.6916 143.155C69.278 142.918 68.9288 142.583 68.675 142.179C68.4255 141.809 68.2891 141.374 68.2822 140.927L68.8499 141.255C68.8518 141.53 68.931 141.799 69.0784 142.031C69.2289 142.278 69.44 142.483 69.6916 142.626C69.9642 142.784 70.1727 142.822 70.3171 142.742C70.4615 142.663 70.533 142.469 70.533 142.164C70.535 141.873 70.4524 141.588 70.2954 141.344C70.121 141.079 69.8857 140.859 69.6091 140.703L69.1852 140.458L69.1852 139.93Z" fill="white"/>
<path d="M80.9569 149.589L80.3904 149.262V144.946L79.2521 144.768V144.181L80.8687 144.418L80.9569 144.469V149.589Z" fill="white"/>
<path d="M84.9912 150.207L85.6071 150.563V151.091L84.9912 150.735V151.919L84.4239 151.591V150.408L82.4012 149.24V148.859L84.3905 146.476L84.9912 146.823V150.207ZM83.0423 149.081L84.4239 149.879V147.38L84.3563 147.482L83.0423 149.081Z" fill="white"/>
<path d="M95.2379 157.834L94.6707 157.507V153.191L93.5331 153.014V152.426L95.1497 152.663L95.2379 152.714V157.834Z" fill="white"/>
<path d="M97.1513 156.384L97.3771 153.974L99.6523 155.287V155.885L97.8554 154.848L97.7216 156.16C97.9843 156.151 98.2434 156.224 98.463 156.368C98.8741 156.608 99.2083 156.961 99.4264 157.384C99.6648 157.83 99.7875 158.329 99.7831 158.835C99.7831 159.36 99.6596 159.702 99.4128 159.861C99.1656 160.021 98.8204 159.973 98.3771 159.717C97.9849 159.488 97.6541 159.167 97.413 158.782C97.1719 158.397 97.0275 157.959 96.9924 157.506L97.5262 157.815C97.5532 158.104 97.6461 158.383 97.7976 158.631C97.9418 158.862 98.1409 159.053 98.3771 159.188C98.6394 159.34 98.8455 159.356 98.9953 159.237C99.0826 159.14 99.1478 159.025 99.1864 158.901C99.225 158.776 99.2361 158.645 99.2188 158.515C99.2203 158.18 99.1368 157.85 98.9763 157.555C98.8301 157.271 98.6065 157.035 98.3314 156.873C98.1656 156.749 97.9573 156.695 97.752 156.724L97.603 156.778L97.1513 156.384Z" fill="white"/>
<path d="M109.52 166.08L108.954 165.752V161.437L107.816 161.26V160.671L109.432 160.909L109.52 160.959V166.08Z" fill="white"/>
<path d="M113.388 163.214V163.763L113.284 163.703C113.15 163.567 112.975 163.479 112.786 163.45C112.597 163.422 112.403 163.455 112.235 163.545C112.066 163.636 111.931 163.778 111.85 163.951C111.769 164.124 111.746 164.319 111.784 164.506C112.017 164.334 112.337 164.364 112.741 164.598C113.141 164.835 113.463 165.183 113.668 165.601C113.895 166.036 114.014 166.52 114.013 167.011C114.04 167.203 114.02 167.398 113.955 167.58C113.89 167.761 113.781 167.925 113.639 168.056C113.391 168.227 113.057 168.192 112.638 167.95C112.186 167.675 111.826 167.271 111.604 166.791C111.341 166.271 111.205 165.697 111.207 165.115V164.867C111.163 164.539 111.186 164.206 111.277 163.888C111.367 163.57 111.521 163.274 111.731 163.018C112.079 162.723 112.598 162.769 113.287 163.156L113.388 163.214ZM112.646 165.081C112.49 164.977 112.298 164.938 112.113 164.973C112.035 164.99 111.963 165.028 111.904 165.081C111.845 165.134 111.8 165.202 111.775 165.278V165.516C111.77 165.915 111.855 166.311 112.021 166.674C112.146 166.978 112.361 167.237 112.638 167.414C112.892 167.561 113.092 167.569 113.237 167.439C113.321 167.34 113.383 167.226 113.421 167.102C113.458 166.979 113.47 166.849 113.455 166.721C113.458 166.383 113.382 166.048 113.234 165.744C113.11 165.469 112.905 165.238 112.646 165.081Z" fill="white"/>
<path d="M123.802 174.326L123.235 173.999V169.683L122.097 169.505V168.918L123.714 169.155L123.802 169.206V174.326Z" fill="white"/>
<path d="M128.322 172.203L126.483 175.874L125.892 175.532L127.725 172.026L125.322 170.639V170.107L128.322 171.84V172.203Z" fill="white"/>
<path d="M138.085 182.571L137.518 182.245V177.929L136.38 177.751V177.163L137.996 177.401L138.085 177.452V182.571Z" fill="white"/>
<path d="M142.431 181.315C142.446 181.522 142.383 181.728 142.256 181.893C142.196 181.958 142.123 182.009 142.041 182.042C141.958 182.075 141.87 182.09 141.782 182.084C142.008 182.325 142.194 182.601 142.331 182.902C142.461 183.171 142.53 183.466 142.534 183.765C142.534 184.206 142.405 184.482 142.146 184.594C141.972 184.642 141.788 184.649 141.611 184.615C141.433 184.58 141.266 184.505 141.122 184.395C140.704 184.157 140.351 183.818 140.097 183.409C139.849 183.03 139.715 182.588 139.711 182.135C139.695 181.907 139.765 181.681 139.907 181.502C139.976 181.429 140.061 181.373 140.156 181.34C140.251 181.307 140.352 181.298 140.452 181.313C140.259 181.094 140.102 180.846 139.986 180.578C139.876 180.334 139.818 180.071 139.814 179.804C139.814 179.374 139.934 179.103 140.174 178.989C140.334 178.939 140.504 178.928 140.669 178.958C140.834 178.987 140.99 179.056 141.122 179.159C141.511 179.383 141.837 179.701 142.07 180.084C142.304 180.452 142.429 180.879 142.431 181.315ZM141.971 183.425C141.968 183.131 141.887 182.844 141.734 182.592C141.588 182.333 141.375 182.117 141.117 181.967C141.032 181.899 140.93 181.855 140.823 181.839C140.715 181.824 140.605 181.838 140.505 181.879C140.419 181.944 140.353 182.032 140.313 182.131C140.272 182.231 140.259 182.34 140.275 182.446C140.274 182.732 140.352 183.013 140.499 183.258C140.65 183.512 140.865 183.722 141.122 183.867C141.209 183.936 141.311 183.982 141.42 184.001C141.529 184.02 141.641 184.011 141.745 183.976C141.895 183.896 141.971 183.712 141.971 183.425V183.425ZM141.122 179.691C141.047 179.632 140.958 179.594 140.864 179.581C140.769 179.568 140.673 179.58 140.585 179.617C140.447 179.695 140.378 179.87 140.379 180.14C140.379 180.402 140.449 180.659 140.581 180.885C140.708 181.115 140.895 181.306 141.122 181.437C141.197 181.498 141.287 181.537 141.383 181.55C141.478 181.562 141.575 181.549 141.664 181.51C141.739 181.45 141.798 181.372 141.834 181.282C141.869 181.192 141.881 181.095 141.867 180.999C141.865 180.733 141.792 180.473 141.657 180.244C141.531 180.015 141.347 179.824 141.122 179.691V179.691Z" fill="white"/>
<path d="M152.334 190.798L151.766 190.47V186.155L150.628 185.978V185.389L152.245 185.627L152.334 185.678V190.798Z" fill="white"/>
<path d="M156.149 190.761C156.029 190.854 155.88 190.905 155.727 190.905C155.536 190.901 155.35 190.844 155.189 190.742C154.927 190.589 154.699 190.383 154.52 190.138C154.326 189.876 154.177 189.584 154.079 189.273C153.977 188.963 153.924 188.639 153.923 188.313C153.911 188.029 153.969 187.746 154.092 187.49C154.136 187.396 154.204 187.315 154.288 187.254C154.372 187.193 154.47 187.155 154.573 187.142C154.83 187.13 155.085 187.2 155.299 187.344C155.756 187.617 156.118 188.023 156.337 188.508C156.596 189.059 156.726 189.661 156.717 190.27V190.459C156.717 191.451 156.546 192.076 156.204 192.334C155.863 192.593 155.348 192.53 154.658 192.143L154.549 192.08V191.53L154.667 191.599C154.818 191.715 154.993 191.794 155.18 191.829C155.366 191.864 155.559 191.855 155.741 191.802C155.991 191.677 156.127 191.33 156.149 190.761ZM155.28 190.259C155.356 190.31 155.442 190.345 155.531 190.363C155.621 190.38 155.714 190.38 155.803 190.362C155.88 190.343 155.952 190.307 156.012 190.256C156.073 190.206 156.121 190.142 156.153 190.07V189.811C156.157 189.407 156.075 189.006 155.912 188.636C155.793 188.327 155.58 188.064 155.302 187.885C155.054 187.741 154.854 187.735 154.704 187.867C154.617 187.966 154.552 188.083 154.513 188.209C154.474 188.335 154.462 188.468 154.478 188.599C154.476 188.939 154.551 189.276 154.696 189.584C154.816 189.864 155.02 190.1 155.28 190.259Z" fill="white"/>
<path d="M67.7534 157.868L64.8433 156.188V155.723L66.3812 154.65C66.5636 154.529 66.723 154.377 66.8519 154.199C66.9424 154.048 66.9874 153.874 66.9815 153.698C66.98 153.426 66.9077 153.159 66.7717 152.923C66.6411 152.682 66.4467 152.481 66.2097 152.343C65.9295 152.181 65.7117 152.147 65.5562 152.24C65.4007 152.333 65.3228 152.544 65.3227 152.87L64.7585 152.545C64.7585 152.076 64.8902 151.772 65.1535 151.635C65.3301 151.573 65.5196 151.556 65.7042 151.587C65.8889 151.618 66.0628 151.695 66.2097 151.811C66.6097 152.037 66.9466 152.359 67.1891 152.749C67.4205 153.107 67.5454 153.523 67.5492 153.949C67.5343 154.221 67.4496 154.484 67.3033 154.713C67.1569 154.943 66.9539 155.131 66.7139 155.259L65.5238 156.052L67.7534 157.339V157.868Z" fill="white"/>
<path d="M71.1357 157.647C71.198 158.17 71.0786 158.698 70.7973 159.142C70.5715 159.381 70.2188 159.362 69.7392 159.084C69.2759 158.823 68.9075 158.421 68.6868 157.936C68.4419 157.361 68.3214 156.741 68.3332 156.117V155.252C68.2707 154.736 68.3904 154.215 68.6716 153.778C68.8967 153.544 69.2503 153.566 69.7324 153.845C70.1948 154.103 70.5641 154.501 70.7882 154.981C71.0333 155.558 71.1518 156.181 71.1357 156.808L71.1357 157.647ZM70.5715 156.436C70.588 155.989 70.5196 155.543 70.37 155.121C70.2485 154.808 70.0236 154.545 69.7324 154.377C69.4442 154.21 69.2332 154.213 69.1016 154.387C68.9358 154.705 68.8647 155.063 68.8967 155.42V156.456C68.8811 156.913 68.9522 157.367 69.1061 157.797C69.2247 158.115 69.448 158.382 69.7392 158.556C70.0175 158.716 70.2242 158.712 70.3593 158.543C70.5311 158.223 70.6048 157.859 70.5714 157.497L70.5715 156.436Z" fill="white"/>
<path d="M82.0118 166.1L79.1025 164.42V163.955L80.64 162.882C80.8223 162.761 80.9817 162.608 81.1107 162.432C81.2012 162.28 81.2463 162.106 81.2408 161.93C81.2391 161.658 81.1665 161.391 81.0301 161.155C80.8998 160.914 80.7057 160.713 80.469 160.575C80.1884 160.413 79.9704 160.379 79.815 160.472C79.6591 160.565 79.5813 160.776 79.5816 161.102L79.0173 160.777C79.0173 160.308 79.1489 160.005 79.412 159.867C79.5887 159.805 79.7783 159.789 79.9631 159.819C80.1479 159.85 80.3219 159.927 80.469 160.043C80.8688 160.269 81.2053 160.591 81.4476 160.981C81.6793 161.339 81.8043 161.755 81.808 162.181C81.7931 162.453 81.7084 162.716 81.562 162.946C81.4156 163.175 81.2125 163.363 80.9724 163.491L79.7823 164.284L82.0118 165.571L82.0118 166.1Z" fill="white"/>
<path d="M84.4642 167.516L83.897 167.188V162.873L82.7594 162.696V162.108L84.376 162.345L84.4642 162.395V167.516Z" fill="white"/>
<path d="M96.2936 174.346L93.3835 172.666V172.2L94.9211 171.128C95.1038 171.008 95.2633 170.855 95.3917 170.677C95.4826 170.527 95.5278 170.353 95.5218 170.177C95.5201 169.905 95.4478 169.637 95.3119 169.401C95.1814 169.16 94.987 168.959 94.75 168.821C94.4694 168.659 94.2514 168.625 94.096 168.719C93.9409 168.812 93.8633 169.022 93.8633 169.349L93.2983 169.023C93.2983 168.554 93.4302 168.25 93.6938 168.113C93.8703 168.051 94.0598 168.034 94.2445 168.065C94.4292 168.096 94.6031 168.173 94.75 168.289C95.1498 168.515 95.4866 168.837 95.7294 169.227C95.9606 169.585 96.0856 170.001 96.0898 170.427C96.0748 170.699 95.99 170.962 95.8437 171.191C95.6973 171.421 95.4942 171.609 95.2541 171.737L94.0641 172.53L96.2936 173.818V174.346Z" fill="white"/>
<path d="M99.801 176.371L96.8909 174.691V174.225L98.4284 173.153C98.6112 173.032 98.7707 172.88 98.8991 172.702C98.9897 172.551 99.0348 172.378 99.0292 172.202C99.0276 171.929 98.955 171.662 98.8185 171.426C98.688 171.185 98.4939 170.984 98.2573 170.846C97.9768 170.684 97.7588 170.65 97.6034 170.743C97.4475 170.837 97.3697 171.047 97.3699 171.374L96.8057 171.047C96.8057 170.578 96.9373 170.275 97.2004 170.138C97.3771 170.076 97.5666 170.059 97.7515 170.09C97.9363 170.121 98.1103 170.198 98.2573 170.314C98.657 170.54 98.9935 170.862 99.236 171.252C99.4675 171.61 99.5926 172.026 99.5964 172.452C99.5816 172.724 99.4969 172.987 99.3505 173.216C99.2041 173.446 99.0009 173.633 98.7607 173.761L97.5707 174.555L99.801 175.843V176.371Z" fill="white"/>
<path d="M110.577 182.592L107.667 180.911V180.446L109.204 179.373C109.387 179.253 109.546 179.1 109.675 178.923C109.765 178.772 109.811 178.598 109.805 178.422C109.803 178.15 109.731 177.882 109.594 177.647C109.464 177.406 109.27 177.205 109.033 177.066C108.753 176.904 108.535 176.87 108.379 176.964C108.223 177.057 108.145 177.267 108.146 177.594L107.581 177.268C107.581 176.799 107.713 176.496 107.976 176.358C108.153 176.296 108.342 176.28 108.527 176.31C108.712 176.341 108.886 176.418 109.033 176.534C109.433 176.76 109.769 177.083 110.012 177.472C110.243 177.83 110.368 178.246 110.372 178.672C110.357 178.944 110.273 179.207 110.126 179.437C109.98 179.666 109.777 179.854 109.536 179.982L108.346 180.776L110.577 182.063V182.592Z" fill="white"/>
<path d="M111.994 180.547L112.418 180.792C112.507 180.859 112.609 180.905 112.718 180.926C112.827 180.947 112.939 180.943 113.046 180.914C113.199 180.845 113.275 180.679 113.275 180.412C113.286 180.138 113.218 179.866 113.081 179.628C112.943 179.39 112.741 179.195 112.497 179.067C112.416 179.003 112.32 178.961 112.218 178.944C112.116 178.927 112.011 178.936 111.913 178.97C111.768 179.046 111.695 179.216 111.695 179.479L111.132 179.153C111.109 178.999 111.134 178.842 111.203 178.702C111.271 178.562 111.381 178.446 111.517 178.369C111.681 178.316 111.857 178.303 112.027 178.332C112.198 178.361 112.359 178.43 112.497 178.535C112.902 178.762 113.241 179.09 113.482 179.485C113.717 179.866 113.841 180.304 113.84 180.752C113.849 180.948 113.781 181.14 113.652 181.288C113.587 181.356 113.507 181.407 113.418 181.436C113.329 181.466 113.234 181.473 113.142 181.458C113.377 181.676 113.569 181.937 113.707 182.226C113.838 182.497 113.906 182.793 113.906 183.094C113.906 183.551 113.776 183.838 113.516 183.957C113.345 184.009 113.163 184.019 112.986 183.987C112.81 183.955 112.643 183.882 112.5 183.773C112.087 183.535 111.738 183.2 111.484 182.797C111.234 182.427 111.098 181.991 111.091 181.545L111.659 181.872C111.661 182.148 111.74 182.417 111.888 182.649C112.038 182.896 112.249 183.101 112.5 183.244C112.773 183.402 112.981 183.44 113.126 183.361C113.27 183.281 113.342 183.088 113.342 182.782C113.344 182.491 113.261 182.207 113.104 181.962C112.93 181.697 112.695 181.477 112.418 181.32L111.994 181.076L111.994 180.547Z" fill="white"/>
<path d="M124.858 190.837L121.948 189.157V188.692L123.485 187.62C123.668 187.498 123.827 187.346 123.957 187.169C124.047 187.017 124.092 186.843 124.086 186.667C124.084 186.395 124.012 186.128 123.876 185.892C123.746 185.651 123.551 185.45 123.314 185.312C123.033 185.15 122.815 185.116 122.66 185.209C122.505 185.303 122.427 185.513 122.427 185.839L121.862 185.514C121.862 185.045 121.994 184.742 122.258 184.604C122.434 184.542 122.624 184.526 122.809 184.556C122.993 184.587 123.167 184.664 123.314 184.78C123.714 185.006 124.051 185.328 124.293 185.718C124.525 186.076 124.65 186.492 124.654 186.918C124.639 187.19 124.554 187.453 124.408 187.683C124.261 187.912 124.058 188.1 123.818 188.228L122.628 189.021L124.858 190.308L124.858 190.837Z" fill="white"/>
<path d="M127.838 190.846L128.454 191.202V191.73L127.838 191.374V192.558L127.27 192.23V191.047L125.248 189.879V189.498L127.236 187.115L127.838 187.462V190.846ZM125.888 189.721L127.27 190.518V188.019L127.203 188.121L125.888 189.721Z" fill="white"/>
<path d="M139.14 199.082L136.23 197.403V196.937L137.768 195.865C137.95 195.744 138.11 195.591 138.238 195.414C138.329 195.263 138.374 195.089 138.368 194.913C138.367 194.641 138.294 194.373 138.158 194.137C138.028 193.896 137.833 193.696 137.597 193.558C137.316 193.396 137.098 193.362 136.943 193.455C136.787 193.548 136.709 193.758 136.709 194.085L136.145 193.759C136.145 193.29 136.277 192.987 136.54 192.85C136.717 192.788 136.906 192.771 137.091 192.802C137.276 192.833 137.45 192.91 137.597 193.026C137.996 193.251 138.333 193.574 138.575 193.964C138.807 194.322 138.932 194.738 138.936 195.164C138.921 195.436 138.836 195.699 138.69 195.928C138.543 196.158 138.34 196.345 138.1 196.473L136.91 197.267L139.14 198.554V199.082Z" fill="white"/>
<path d="M139.997 197.023L140.223 194.612L142.498 195.926V196.525L140.702 195.488L140.568 196.799C140.83 196.79 141.089 196.862 141.309 197.007C141.72 197.247 142.054 197.6 142.272 198.024C142.511 198.469 142.634 198.968 142.63 199.474C142.63 199.998 142.506 200.341 142.259 200.5C142.012 200.66 141.667 200.612 141.224 200.356C140.831 200.127 140.501 199.806 140.259 199.421C140.018 199.037 139.874 198.599 139.839 198.146L140.373 198.454C140.4 198.743 140.492 199.023 140.644 199.271C140.789 199.501 140.988 199.693 141.224 199.827C141.486 199.979 141.692 199.995 141.841 199.876C141.929 199.779 141.994 199.665 142.033 199.54C142.072 199.415 142.083 199.284 142.066 199.154C142.067 198.819 141.983 198.489 141.823 198.194C141.677 197.91 141.453 197.674 141.177 197.512C141.012 197.388 140.803 197.334 140.598 197.363L140.449 197.417L139.997 197.023Z" fill="white"/>
<path d="M153.376 207.301L150.466 205.622V205.156L152.003 204.084C152.186 203.963 152.345 203.81 152.474 203.633C152.565 203.482 152.61 203.308 152.604 203.132C152.603 202.859 152.53 202.592 152.394 202.356C152.263 202.115 152.069 201.915 151.832 201.777C151.552 201.615 151.334 201.58 151.178 201.673C151.023 201.767 150.945 201.977 150.945 202.304L150.381 201.978C150.381 201.509 150.513 201.206 150.776 201.069C150.953 201.007 151.142 200.99 151.327 201.021C151.512 201.051 151.685 201.128 151.832 201.245C152.232 201.47 152.569 201.793 152.812 202.183C153.043 202.541 153.168 202.957 153.171 203.383C153.157 203.654 153.072 203.918 152.925 204.147C152.779 204.377 152.576 204.564 152.336 204.692L151.146 205.485L153.376 206.773L153.376 207.301Z" fill="white"/>
<path d="M156.187 203.826V204.375L156.083 204.315C155.948 204.18 155.774 204.091 155.584 204.063C155.395 204.034 155.202 204.068 155.034 204.158C154.865 204.248 154.73 204.39 154.649 204.563C154.568 204.736 154.545 204.931 154.583 205.118C154.816 204.946 155.135 204.976 155.54 205.209C155.94 205.447 156.262 205.795 156.466 206.213C156.694 206.648 156.813 207.132 156.812 207.624C156.839 207.815 156.819 208.01 156.754 208.192C156.688 208.374 156.58 208.537 156.438 208.668C156.189 208.839 155.856 208.804 155.437 208.562C154.985 208.287 154.625 207.883 154.403 207.403C154.14 206.884 154.004 206.309 154.006 205.727V205.479C153.961 205.151 153.985 204.818 154.075 204.5C154.165 204.182 154.32 203.886 154.53 203.63C154.878 203.335 155.397 203.381 156.086 203.768L156.187 203.826ZM155.445 205.694C155.288 205.589 155.097 205.55 154.912 205.585C154.834 205.602 154.762 205.639 154.703 205.693C154.643 205.746 154.599 205.814 154.574 205.89V206.128C154.569 206.527 154.653 206.923 154.821 207.285C154.945 207.59 155.16 207.849 155.437 208.027C155.691 208.173 155.89 208.181 156.036 208.05C156.119 207.952 156.182 207.838 156.219 207.714C156.257 207.591 156.269 207.461 156.254 207.333C156.257 206.995 156.181 206.66 156.033 206.356C155.908 206.081 155.703 205.85 155.445 205.694Z" fill="white"/>
<path d="M67.7405 173.763L64.8304 172.083V171.618L66.368 170.546C66.5506 170.425 66.7101 170.272 66.8391 170.095C66.9294 169.944 66.9744 169.77 66.9687 169.594C66.967 169.321 66.8946 169.054 66.7585 168.818C66.6282 168.577 66.4339 168.376 66.1969 168.239C65.9163 168.077 65.6984 168.042 65.543 168.135C65.3875 168.229 65.3098 168.439 65.3099 168.766L64.7453 168.44C64.7453 167.971 64.8771 167.668 65.1407 167.531C65.3173 167.468 65.5067 167.452 65.6914 167.482C65.8761 167.513 66.05 167.59 66.1969 167.706C66.5968 167.932 66.9335 168.255 67.1759 168.645C67.4074 169.002 67.5324 169.418 67.5364 169.844C67.5214 170.116 67.4366 170.379 67.2902 170.609C67.1438 170.838 66.9408 171.026 66.7007 171.154L65.5107 171.947L67.7406 173.234L67.7405 173.763Z" fill="white"/>
<path d="M71.2052 171.031L69.3661 174.701L68.7745 174.359L70.6071 170.854L68.2042 169.467V168.935L71.2052 170.668V171.031Z" fill="white"/>
<path d="M82.0118 182.003L79.1025 180.323V179.858L80.64 178.785C80.8223 178.664 80.9817 178.511 81.1107 178.334C81.2012 178.183 81.2463 178.009 81.2408 177.833C81.2391 177.561 81.1665 177.294 81.0301 177.058C80.8998 176.817 80.7057 176.616 80.469 176.478C80.1884 176.316 79.9704 176.282 79.815 176.375C79.6591 176.468 79.5813 176.679 79.5816 177.005L79.0173 176.68C79.0173 176.211 79.1489 175.907 79.412 175.77C79.5887 175.708 79.7783 175.691 79.9631 175.722C80.1479 175.753 80.3219 175.83 80.469 175.946C80.8688 176.172 81.2053 176.494 81.4476 176.884C81.6793 177.242 81.8043 177.658 81.808 178.084C81.7931 178.356 81.7084 178.619 81.562 178.849C81.4156 179.078 81.2125 179.266 80.9724 179.394L79.7823 180.187L82.0118 181.474L82.0118 182.003Z" fill="white"/>
<path d="M85.3024 180.136C85.3173 180.344 85.255 180.55 85.1275 180.714C85.0677 180.78 84.9941 180.831 84.912 180.864C84.8299 180.897 84.7414 180.912 84.653 180.907C84.8799 181.147 85.0656 181.423 85.2028 181.724C85.332 181.994 85.4013 182.288 85.4058 182.587C85.4058 183.027 85.2763 183.304 85.0172 183.416C84.8428 183.464 84.6597 183.471 84.4821 183.437C84.3045 183.402 84.1374 183.327 83.9937 183.217C83.5754 182.978 83.2229 182.64 82.968 182.231C82.72 181.852 82.586 181.41 82.5817 180.957C82.566 180.729 82.6363 180.503 82.7786 180.324C82.8473 180.251 82.9327 180.195 83.0275 180.162C83.1224 180.129 83.2238 180.12 83.3231 180.135C83.1302 179.916 82.9729 179.668 82.8569 179.4C82.7471 179.157 82.6886 178.893 82.6851 178.625C82.6851 178.197 82.8052 177.925 83.0455 177.812C83.2055 177.761 83.3753 177.75 83.5405 177.78C83.7056 177.81 83.8611 177.879 83.9937 177.981C84.3825 178.205 84.7084 178.523 84.9412 178.906C85.1753 179.274 85.3005 179.7 85.3024 180.136ZM84.8423 182.247C84.8396 181.953 84.7579 181.666 84.6058 181.415C84.4591 181.155 84.2457 180.938 83.9876 180.788C83.9028 180.72 83.8013 180.676 83.6938 180.661C83.5863 180.646 83.4766 180.66 83.3763 180.701C83.2227 180.79 83.1466 180.979 83.1466 181.269C83.1457 181.554 83.223 181.835 83.3702 182.08C83.5214 182.334 83.7363 182.543 83.9937 182.688C84.0799 182.757 84.1822 182.804 84.2911 182.823C84.3999 182.842 84.5118 182.833 84.6165 182.798C84.7663 182.718 84.8424 182.535 84.8424 182.247H84.8423ZM83.9937 178.514C83.9189 178.454 83.8296 178.416 83.7351 178.403C83.6405 178.39 83.5442 178.403 83.4561 178.439C83.3185 178.517 83.25 178.692 83.25 178.962C83.251 179.224 83.3208 179.481 83.4523 179.707C83.5794 179.937 83.7665 180.128 83.9937 180.26C84.0686 180.32 84.1587 180.359 84.2542 180.372C84.3497 180.385 84.4469 180.371 84.5351 180.333C84.6106 180.272 84.6691 180.194 84.7047 180.104C84.7403 180.014 84.7519 179.917 84.7382 179.822C84.7363 179.556 84.6638 179.295 84.5283 179.066C84.4026 178.838 84.2181 178.647 83.9937 178.514H83.9937Z" fill="white"/>
<path d="M96.2936 190.248L93.3835 188.568V188.103L94.9211 187.03C95.1038 186.91 95.2633 186.757 95.3917 186.579C95.4826 186.429 95.5278 186.255 95.5218 186.079C95.5201 185.807 95.4478 185.54 95.3119 185.303C95.1814 185.062 94.987 184.861 94.75 184.723C94.4694 184.561 94.2514 184.527 94.096 184.621C93.9409 184.714 93.8633 184.924 93.8633 185.251L93.2983 184.925C93.2983 184.456 93.4302 184.152 93.6938 184.015C93.8703 183.953 94.0598 183.936 94.2445 183.967C94.4292 183.998 94.6031 184.075 94.75 184.191C95.1498 184.417 95.4866 184.74 95.7294 185.129C95.9606 185.487 96.0856 185.903 96.0898 186.329C96.0748 186.601 95.99 186.864 95.8437 187.094C95.6973 187.323 95.4942 187.511 95.2541 187.639L94.0641 188.433L96.2936 189.72V190.248Z" fill="white"/>
<path d="M99.0544 189.602C98.9334 189.696 98.7846 189.746 98.6316 189.746C98.4405 189.742 98.2543 189.685 98.0932 189.582C97.8312 189.429 97.6034 189.224 97.4241 188.979C97.2302 188.717 97.0812 188.425 96.983 188.114C96.8816 187.804 96.8293 187.48 96.8279 187.154C96.8157 186.87 96.8737 186.588 96.9967 186.331C97.041 186.237 97.1083 186.156 97.1923 186.095C97.2763 186.034 97.3743 185.995 97.4773 185.982C97.7347 185.971 97.9892 186.041 98.2035 186.185C98.6604 186.458 99.0227 186.864 99.2414 187.35C99.5008 187.9 99.6309 188.502 99.6216 189.111V189.299C99.6216 190.291 99.4505 190.916 99.1083 191.175C98.7677 191.434 98.2524 191.371 97.5624 190.984L97.4529 190.92V190.371L97.5716 190.44C97.722 190.556 97.8978 190.635 98.0845 190.67C98.2712 190.705 98.4636 190.696 98.646 190.643C98.8955 190.517 99.0316 190.17 99.0544 189.602ZM98.1845 189.1C98.2606 189.151 98.3461 189.186 98.4359 189.203C98.5257 189.221 98.618 189.22 98.7076 189.202C98.7845 189.184 98.8561 189.148 98.9169 189.098C98.9776 189.047 99.0257 188.983 99.0574 188.911V188.651C99.0615 188.247 98.9793 187.847 98.8164 187.477C98.6975 187.168 98.484 186.905 98.2065 186.725C97.9586 186.582 97.7587 186.576 97.6089 186.708C97.522 186.807 97.457 186.924 97.4181 187.05C97.3792 187.176 97.3673 187.309 97.383 187.44C97.3814 187.78 97.4557 188.117 97.6005 188.425C97.7207 188.705 97.9247 188.941 98.1845 189.1H98.1845Z" fill="white"/>
<path d="M108.487 194.424L108.911 194.669C109 194.736 109.102 194.782 109.211 194.803C109.32 194.824 109.433 194.82 109.54 194.791C109.692 194.722 109.769 194.556 109.769 194.29C109.779 194.015 109.712 193.743 109.574 193.505C109.436 193.267 109.234 193.072 108.99 192.945C108.909 192.88 108.813 192.838 108.711 192.821C108.609 192.804 108.504 192.813 108.407 192.847C108.262 192.923 108.188 193.093 108.188 193.356L107.624 193.031C107.602 192.876 107.627 192.719 107.696 192.579C107.765 192.439 107.874 192.323 108.01 192.247C108.175 192.193 108.35 192.18 108.52 192.209C108.691 192.238 108.852 192.308 108.99 192.412C109.394 192.64 109.734 192.967 109.976 193.363C110.21 193.743 110.334 194.182 110.332 194.629C110.342 194.825 110.274 195.017 110.144 195.165C110.08 195.233 109.999 195.284 109.911 195.314C109.822 195.343 109.727 195.351 109.634 195.335C109.87 195.553 110.062 195.814 110.2 196.103C110.331 196.374 110.399 196.67 110.4 196.971C110.4 197.428 110.27 197.716 110.009 197.834C109.837 197.886 109.656 197.897 109.479 197.865C109.303 197.833 109.136 197.759 108.994 197.65C108.58 197.413 108.231 197.078 107.976 196.674C107.727 196.304 107.591 195.869 107.584 195.422L108.152 195.75C108.154 196.025 108.233 196.294 108.38 196.526C108.531 196.773 108.742 196.978 108.994 197.122C109.266 197.279 109.475 197.318 109.619 197.238C109.763 197.158 109.835 196.965 109.835 196.659C109.837 196.369 109.754 196.084 109.598 195.839C109.423 195.574 109.188 195.354 108.911 195.198L108.487 194.953V194.424Z" fill="white"/>
<path d="M113.957 198.274C114.019 198.796 113.9 199.324 113.619 199.769C113.393 200.007 113.04 199.987 112.561 199.71C112.098 199.448 111.729 199.046 111.509 198.562C111.264 197.987 111.143 197.367 111.155 196.743V195.878C111.093 195.363 111.212 194.841 111.493 194.404C111.719 194.171 112.072 194.193 112.554 194.471C113.016 194.73 113.385 195.127 113.61 195.607C113.855 196.184 113.973 196.807 113.957 197.433V198.274ZM113.393 197.062C113.41 196.615 113.341 196.169 113.191 195.747C113.07 195.434 112.845 195.171 112.554 195.003C112.266 194.837 112.056 194.84 111.923 195.013C111.757 195.331 111.686 195.69 111.719 196.046V197.082C111.703 197.538 111.774 197.993 111.928 198.423C112.046 198.741 112.269 199.009 112.561 199.182C112.839 199.343 113.046 199.339 113.181 199.169C113.353 198.849 113.426 198.485 113.393 198.122V197.062Z" fill="white"/>
<path d="M122.768 202.67L123.193 202.915C123.281 202.982 123.384 203.027 123.493 203.048C123.601 203.069 123.714 203.065 123.821 203.036C123.973 202.968 124.05 202.801 124.05 202.535C124.06 202.26 123.993 201.988 123.855 201.75C123.717 201.512 123.515 201.318 123.272 201.19C123.19 201.126 123.094 201.083 122.992 201.066C122.891 201.049 122.786 201.058 122.688 201.092C122.542 201.168 122.469 201.338 122.469 201.602L121.906 201.276C121.883 201.122 121.908 200.965 121.977 200.825C122.046 200.685 122.155 200.569 122.291 200.492C122.455 200.439 122.631 200.425 122.801 200.454C122.972 200.483 123.134 200.553 123.272 200.657C123.676 200.885 124.015 201.212 124.256 201.608C124.492 201.988 124.615 202.427 124.614 202.875C124.623 203.071 124.556 203.263 124.426 203.41C124.361 203.478 124.281 203.529 124.192 203.559C124.103 203.589 124.008 203.596 123.916 203.581C124.151 203.799 124.343 204.059 124.481 204.348C124.612 204.619 124.68 204.916 124.681 205.216C124.681 205.674 124.551 205.961 124.291 206.079C124.119 206.132 123.937 206.142 123.76 206.11C123.584 206.078 123.417 206.005 123.275 205.895C122.861 205.658 122.512 205.323 122.258 204.92C122.009 204.55 121.872 204.114 121.866 203.668L122.433 203.996C122.435 204.27 122.514 204.539 122.662 204.771C122.812 205.018 123.023 205.223 123.275 205.367C123.548 205.524 123.755 205.563 123.9 205.483C124.045 205.403 124.116 205.21 124.116 204.904C124.118 204.614 124.035 204.329 123.878 204.085C123.704 203.819 123.469 203.599 123.193 203.443L122.768 203.199L122.768 202.67Z" fill="white"/>
<path d="M127.309 208.156L126.743 207.828V203.513L125.604 203.335V202.748L127.221 202.984L127.309 203.035V208.156Z" fill="white"/>
<path d="M167.017 128.948V139.868L56.2145 75.8955V64.9759C56.2145 60.3347 59.7827 58.6408 64.1786 61.1788L159.045 115.95C163.449 118.493 167.017 124.307 167.017 128.948Z" fill="url(#paint3_linear)"/>
<path d="M132.496 109.15V113.293L90.698 89.0207V84.8775C90.698 83.1165 92.044 82.4738 93.7023 83.4368L129.489 104.218C131.15 105.183 132.496 107.389 132.496 109.15Z" fill="#3BB9FF"/>
<path d="M63.7411 91.4002C63.4779 91.1737 63.2473 90.9119 63.0556 90.6223C62.9221 90.4193 62.848 90.1831 62.8416 89.9402C62.8416 89.6893 62.9289 89.5321 63.1035 89.4688C63.2211 89.4431 63.3428 89.443 63.4604 89.4685C63.578 89.4939 63.6888 89.5443 63.7852 89.6163C64.1674 89.8402 64.4676 90.1809 64.6418 90.5881C64.7194 90.7641 64.7612 90.9539 64.7646 91.1462L64.397 90.9341C64.3968 90.7401 64.3413 90.5501 64.2369 90.3866C64.1244 90.2088 63.9691 90.0621 63.7852 89.96C63.7254 89.9149 63.6572 89.8822 63.5846 89.8637C63.512 89.8453 63.4365 89.8416 63.3624 89.8528C63.2617 89.8862 63.2111 89.9836 63.2111 90.1455C63.2173 90.2944 63.2675 90.4381 63.3552 90.5584C63.4968 90.7538 63.6614 90.9315 63.8453 91.0877C64.0406 91.2589 64.2216 91.4458 64.3863 91.6466C64.5051 91.7926 64.6028 91.9547 64.6764 92.1279C64.738 92.2794 64.7699 92.4412 64.7703 92.6047C64.7703 92.8625 64.6829 93.0191 64.5076 93.0731C64.3847 93.0924 64.2592 93.0871 64.1384 93.0573C64.0177 93.0275 63.904 92.974 63.8042 92.8997C63.6052 92.783 63.4252 92.6366 63.2704 92.4656C63.1136 92.2989 62.9846 92.1081 62.8883 91.9006C62.8028 91.7211 62.757 91.5253 62.7541 91.3265L63.1214 91.5386C63.1246 91.741 63.1894 91.9375 63.3073 92.1021C63.4362 92.2895 63.6061 92.445 63.8042 92.5568C63.9313 92.6525 64.0903 92.6955 64.2483 92.6769C64.3509 92.6458 64.4023 92.5523 64.4023 92.3964C64.4012 92.2369 64.3513 92.0817 64.2593 91.9515C64.1071 91.7495 63.9334 91.5646 63.7411 91.4002Z" fill="white"/>
<path d="M67.1925 91.6272V93.7928C67.2077 93.9049 67.1928 94.019 67.1495 94.1235C67.1061 94.2279 67.0358 94.319 66.9457 94.3874C66.8388 94.4338 66.7219 94.4524 66.6059 94.4416C66.4899 94.4309 66.3785 94.3911 66.2819 94.3259L66.1846 94.2741C65.8874 94.1048 65.6375 93.8634 65.458 93.5723C65.2812 93.2922 65.1861 92.9682 65.1835 92.637V90.4675L65.5458 90.6767V92.8332C65.5434 93.0551 65.6007 93.2736 65.7116 93.4658C65.8248 93.6603 65.9881 93.8207 66.1846 93.9304C66.3914 94.0498 66.5498 94.078 66.6598 94.0148C66.7697 93.951 66.8252 93.805 66.8252 93.5738V91.415L67.1925 91.6272Z" fill="white"/>
<path d="M69.9035 96.3774L69.5358 96.1652L68.1386 92.9038V95.3584L67.7701 95.1455V91.9609L68.1386 92.1731L69.5392 95.4474V92.9822L69.9035 93.1921V96.3774Z" fill="white"/>
<path d="M77.4427 97.5452L78.3498 100.667L79.2577 98.593L79.7322 98.8668V102.052L79.3664 101.841V100.601L79.4007 99.2812L78.4889 101.334L78.2091 101.172L77.2996 98.0752L77.3361 99.428V100.668L76.9696 100.457V97.2722L77.4427 97.5452Z" fill="white"/>
<path d="M82.5138 102.168C82.5258 102.421 82.479 102.674 82.3769 102.906C82.3429 102.986 82.2895 103.056 82.2214 103.11C82.1534 103.163 82.073 103.199 81.9876 103.214C81.7802 103.23 81.5736 103.175 81.4013 103.059C81.1747 102.926 80.9769 102.749 80.8196 102.538C80.647 102.31 80.5138 102.055 80.4257 101.784C80.3321 101.501 80.2836 101.205 80.282 100.908V100.678C80.2709 100.427 80.3185 100.176 80.4211 99.9466C80.4558 99.866 80.5099 99.7954 80.5787 99.7409C80.6475 99.6865 80.7287 99.65 80.815 99.6348C81.0205 99.6165 81.226 99.6691 81.3974 99.7838C81.6261 99.9181 81.8259 100.096 81.9852 100.309C82.1591 100.538 82.2916 100.796 82.3769 101.07C82.469 101.36 82.5152 101.663 82.5137 101.967L82.5138 102.168ZM82.1495 101.752C82.1578 101.413 82.0902 101.077 81.9518 100.768C81.836 100.508 81.6423 100.29 81.3975 100.145C81.1663 100.011 80.9843 100.007 80.8515 100.133C80.6922 100.338 80.6184 100.597 80.6454 100.855V101.089C80.6397 101.427 80.7085 101.761 80.8469 102.068C80.9611 102.332 81.1549 102.554 81.4013 102.702C81.6378 102.838 81.8205 102.845 81.9495 102.722C82.1075 102.512 82.1791 102.249 82.1495 101.988V101.752Z" fill="white"/>
<path d="M85.1961 105.206L84.8288 104.994L83.4311 101.733V104.188L83.0631 103.975V100.79L83.4311 101.002L84.8318 104.277V101.811L85.1961 102.021V105.206Z" fill="white"/>
<path d="M94.456 107.71L93.564 107.196V110.037L93.1998 109.827V106.986L92.3101 106.472V106.128L94.456 107.368V107.71Z" fill="white"/>
<path d="M96.8214 108.733V110.899C96.8364 111.011 96.8215 111.125 96.7781 111.23C96.7347 111.334 96.6643 111.425 96.5742 111.494C96.4673 111.54 96.3504 111.559 96.2343 111.548C96.1183 111.537 96.0069 111.497 95.9104 111.431L95.8131 111.38C95.5159 111.211 95.2661 110.97 95.0869 110.679C94.9098 110.399 94.8147 110.075 94.8124 109.743V107.573L95.1743 107.782V109.939C95.1723 110.161 95.2295 110.38 95.3401 110.572C95.4537 110.766 95.617 110.927 95.8131 111.037C96.0199 111.156 96.1788 111.184 96.2883 111.12C96.3986 111.057 96.4538 110.91 96.4541 110.68V108.521L96.8214 108.733Z" fill="white"/>
<path d="M98.9679 111.686L97.765 110.991V112.12L99.1626 112.926V113.27L97.3984 112.252V109.067L99.1428 110.074V110.417L97.765 109.622V110.648L98.9679 111.343V111.686Z" fill="white"/>
<path d="M107.226 116.92L107.279 117.371L107.357 117.038L107.907 115.133L108.215 115.311L108.751 117.843L108.827 118.272L108.885 117.877L109.317 115.947L109.685 116.159L109.012 118.956L108.679 118.764L108.106 116.112L108.063 115.844L108.019 116.062L107.425 118.041L107.092 117.848L106.422 114.276L106.787 114.486L107.226 116.92Z" fill="white"/>
<path d="M111.66 119.013L110.457 118.318V119.447L111.854 120.254V120.597L110.09 119.579V116.395L111.834 117.401V117.745L110.457 116.949V117.975L111.66 118.67V119.013Z" fill="white"/>
<path d="M112.309 120.86V117.675L113.093 118.127C113.339 118.271 113.556 118.459 113.733 118.681C114.106 119.146 114.311 119.723 114.317 120.319V120.523C114.33 120.766 114.277 121.008 114.164 121.224C114.122 121.303 114.059 121.369 113.984 121.417C113.908 121.464 113.821 121.492 113.732 121.496C113.5 121.496 113.273 121.429 113.078 121.304L112.309 120.86ZM112.675 118.23V120.728L113.06 120.95C113.342 121.113 113.562 121.139 113.719 121.028C113.876 120.917 113.954 120.676 113.954 120.304V120.117C113.96 119.78 113.884 119.447 113.732 119.146C113.591 118.867 113.372 118.634 113.102 118.476L112.675 118.23Z" fill="white"/>
<path d="M123.514 124.488L122.622 123.973V126.815L122.258 126.604V123.762L121.368 123.248V122.905L123.514 124.144V124.488Z" fill="white"/>
<path d="M126.058 128.798L125.691 128.586V127.114L124.291 126.306V127.778L123.925 127.566V124.382L124.291 124.593V125.963L125.691 126.77V125.401L126.058 125.613V128.798Z" fill="white"/>
<path d="M128.662 127.116V129.282C128.677 129.394 128.662 129.508 128.619 129.612C128.575 129.717 128.505 129.808 128.415 129.876C128.308 129.923 128.191 129.941 128.075 129.93C127.959 129.92 127.847 129.88 127.751 129.815L127.654 129.763C127.356 129.594 127.107 129.352 126.927 129.061C126.75 128.781 126.655 128.457 126.653 128.126V125.956L127.015 126.166V128.322C127.013 128.544 127.07 128.762 127.181 128.955C127.294 129.149 127.457 129.309 127.654 129.419C127.86 129.539 128.019 129.567 128.13 129.504C128.239 129.44 128.295 129.294 128.295 129.063V126.904L128.662 127.116Z" fill="white"/>
<path d="M138.807 134.751L137.642 134.079V135.486L137.276 135.274V132.089L138.995 133.082V133.425L137.642 132.644V133.735L138.807 134.408V134.751Z" fill="white"/>
<path d="M140.451 135.82L139.799 135.443V136.731L139.431 136.519V133.334L140.35 133.865C140.64 134.024 140.888 134.251 141.072 134.526C141.239 134.782 141.326 135.081 141.324 135.386C141.331 135.464 141.322 135.543 141.298 135.618C141.274 135.693 141.236 135.763 141.184 135.823C141.133 135.871 141.07 135.905 141.002 135.923C140.934 135.942 140.863 135.943 140.794 135.928L141.446 137.656V137.683L141.054 137.456L140.451 135.82ZM139.799 135.1L140.362 135.424C140.422 135.471 140.493 135.504 140.568 135.519C140.643 135.534 140.721 135.532 140.795 135.513C140.902 135.466 140.956 135.353 140.956 135.172C140.958 134.98 140.904 134.792 140.803 134.63C140.691 134.457 140.539 134.314 140.359 134.214L139.799 133.89L139.799 135.1Z" fill="white"/>
<path d="M142.231 138.135L141.864 137.924V134.739L142.231 134.95V138.135Z" fill="white"/>
<path d="M152.141 142.437C151.878 142.21 151.647 141.948 151.455 141.659C151.321 141.456 151.247 141.22 151.241 140.977C151.241 140.726 151.328 140.568 151.504 140.505C151.621 140.48 151.743 140.48 151.86 140.505C151.978 140.531 152.089 140.581 152.185 140.653C152.377 140.764 152.549 140.907 152.694 141.074C152.839 141.238 152.956 141.424 153.042 141.625C153.119 141.801 153.161 141.99 153.164 142.183L152.796 141.971C152.796 141.777 152.741 141.587 152.637 141.423C152.524 141.245 152.369 141.099 152.185 140.997C152.125 140.951 152.057 140.919 151.984 140.9C151.912 140.882 151.836 140.878 151.762 140.889C151.661 140.923 151.611 141.02 151.611 141.182C151.617 141.331 151.667 141.474 151.754 141.595C151.897 141.79 152.061 141.968 152.245 142.124C152.44 142.296 152.621 142.482 152.786 142.683C152.905 142.829 153.003 142.991 153.076 143.164C153.138 143.316 153.169 143.478 153.17 143.641C153.17 143.899 153.082 144.056 152.907 144.11C152.784 144.129 152.659 144.124 152.538 144.094C152.417 144.064 152.304 144.011 152.204 143.936C152.005 143.82 151.825 143.673 151.67 143.502C151.513 143.336 151.384 143.145 151.288 142.937C151.203 142.757 151.157 142.562 151.154 142.363L151.521 142.575C151.524 142.777 151.589 142.974 151.707 143.139C151.836 143.326 152.006 143.482 152.204 143.593C152.331 143.689 152.49 143.732 152.648 143.714C152.751 143.682 152.802 143.589 152.802 143.433C152.801 143.273 152.751 143.118 152.659 142.988C152.507 142.786 152.333 142.601 152.141 142.437Z" fill="white"/>
<path d="M155.172 144.773L154.009 144.102L153.747 144.785L153.37 144.566L154.43 141.993L154.75 142.179L155.812 145.976L155.436 145.759L155.172 144.773ZM154.119 143.823L155.063 144.367L154.591 142.604L154.119 143.823Z" fill="white"/>
<path d="M157.858 144.315L156.966 143.8V146.642L156.602 146.432V143.59L155.712 143.076V142.733L157.858 143.972V144.315Z" fill="white"/>
<path d="M107.318 112.442L32.7772 69.4062C30.3628 68.0122 28.4055 69.1281 28.4055 71.8987V80.6371C28.4902 82.1491 28.9302 83.6199 29.6898 84.93C30.4493 86.2402 31.5071 87.3528 32.7772 88.1775L107.318 131.213C107.35 131.232 107.382 131.246 107.414 131.264L111.689 139.311V119.983C111.605 118.471 111.165 117 110.405 115.69C109.645 114.379 108.588 113.267 107.318 112.442Z" fill="url(#paint4_linear)"/>
<path d="M112.078 140.873L107.125 131.552L32.5822 88.5148C31.2562 87.6523 30.1519 86.4897 29.3586 85.1212C28.5653 83.7527 28.1054 82.2167 28.0159 80.6374V71.8988C27.9571 71.2922 28.062 70.681 28.3198 70.1288C28.5775 69.5766 28.9786 69.1036 29.4812 68.759C30.434 68.2093 31.6731 68.3191 32.9715 69.0689L107.512 112.105C108.838 112.968 109.942 114.13 110.736 115.499C111.529 116.867 111.989 118.404 112.078 119.983V140.873ZM30.8165 69.1936C30.4855 69.1883 30.159 69.2711 29.8705 69.4335C29.4899 69.7132 29.1898 70.0885 29.0009 70.5214C28.8119 70.9543 28.7407 71.4295 28.7946 71.8987V80.6374C28.8766 82.0816 29.2974 83.4862 30.0231 84.7375C30.7487 85.9889 31.7588 87.0518 32.9715 87.8403L107.609 130.932L107.758 131.081L111.3 137.748V119.983C111.218 118.539 110.797 117.134 110.071 115.882C109.346 114.631 108.336 113.568 107.123 112.779L32.5822 69.7434C32.0513 69.4101 31.4428 69.2206 30.8165 69.1936Z" fill="url(#paint5_linear)"/>
<path d="M99.7429 119.274V120.232L42.0833 86.944V85.9862L99.7429 119.274Z" fill="url(#paint6_linear)"/>
<path d="M99.7429 114.812V115.77L42.0833 82.4824V81.5247L99.7429 114.812Z" fill="url(#paint7_linear)"/>
<path d="M190.216 163.67L195.812 160.44V160.44C198.489 158.909 202.189 159.142 206.277 161.502C214.444 166.217 221.065 177.637 221.065 187.009C221.065 191.738 219.378 195.04 216.658 196.547L211.232 199.68V197.322C209.482 196.994 207.804 196.356 206.277 195.441C199.648 191.614 194.039 183.37 192.161 175.39L190.216 176.513V163.67Z" fill="url(#paint8_linear)" fill-opacity="0.2"/>
<path d="M211.203 199.701C216.942 196.346 216.883 185.568 211.072 175.627C205.261 165.687 195.897 160.348 190.159 163.703C184.42 167.058 184.478 177.836 190.289 187.777C196.101 197.717 205.464 203.056 211.203 199.701Z" fill="url(#paint9_linear)"/>
<path d="M192.041 178.674L196.379 186.157C196.551 186.465 196.797 186.724 197.096 186.911C197.199 186.985 197.319 187.03 197.445 187.043C197.57 187.056 197.697 187.036 197.813 186.984L209.32 180.423C209.716 180.198 209.716 179.461 209.32 178.778C208.924 178.095 208.283 177.725 207.887 177.95L197.096 184.103L193.475 177.857C193.079 177.174 192.437 176.803 192.041 177.029C191.645 177.255 191.645 177.991 192.041 178.674L192.041 178.674Z" fill="white"/>
<defs>
<linearGradient id="paint0_linear" x1="237.118" y1="144.706" x2="121" y2="115.588" gradientUnits="userSpaceOnUse">
<stop stop-color="#A5DFFF"/>
<stop offset="1" stop-color="#1269B9"/>
</linearGradient>
<linearGradient id="paint1_linear" x1="31.1769" y1="100.765" x2="201.648" y2="134.693" gradientUnits="userSpaceOnUse">
<stop offset="0.53125" stop-color="#E6F6FF"/>
<stop offset="1" stop-color="#A0D3EF"/>
</linearGradient>
<linearGradient id="paint2_linear" x1="172.5" y1="180.5" x2="59.101" y2="193.68" gradientUnits="userSpaceOnUse">
<stop stop-color="#4F4F4F"/>
<stop offset="1" stop-color="#828282"/>
</linearGradient>
<linearGradient id="paint3_linear" x1="177.824" y1="110.294" x2="8.41231" y2="93.8824" gradientUnits="userSpaceOnUse">
<stop stop-color="#87D4FE"/>
<stop offset="1" stop-color="#1BADFF"/>
</linearGradient>
<linearGradient id="paint4_linear" x1="60.2779" y1="66.0639" x2="98.3666" y2="134.154" gradientUnits="userSpaceOnUse">
<stop stop-color="#D1EFFF"/>
<stop offset="0.776042" stop-color="#BDE8FF"/>
<stop offset="1" stop-color="#3BB9FF"/>
</linearGradient>
<linearGradient id="paint5_linear" x1="120.279" y1="114.043" x2="-8.63287" y2="103.598" gradientUnits="userSpaceOnUse">
<stop stop-color="#87D4FE"/>
<stop offset="1" stop-color="#1BADFF"/>
</linearGradient>
<linearGradient id="paint6_linear" x1="105.367" y1="107.551" x2="17.5939" y2="97.2316" gradientUnits="userSpaceOnUse">
<stop stop-color="#87D4FE"/>
<stop offset="1" stop-color="#1BADFF"/>
</linearGradient>
<linearGradient id="paint7_linear" x1="105.367" y1="103.09" x2="17.5939" y2="92.7701" gradientUnits="userSpaceOnUse">
<stop stop-color="#87D4FE"/>
<stop offset="1" stop-color="#1BADFF"/>
</linearGradient>
<linearGradient id="paint8_linear" x1="225.876" y1="179.466" x2="177.298" y2="176.433" gradientUnits="userSpaceOnUse">
<stop stop-color="#3BB9FF"/>
<stop offset="1" stop-color="#0D477C"/>
</linearGradient>
<linearGradient id="paint9_linear" x1="215.829" y1="179.112" x2="183.053" y2="196.541" gradientUnits="userSpaceOnUse">
<stop stop-color="#87D4FE"/>
<stop offset="1" stop-color="#1BADFF"/>
</linearGradient>
</defs>
</svg>
