<svg width="154" height="240" viewBox="0 0 154 240" fill="none" xmlns="http://www.w3.org/2000/svg">
<rect x="1.44125" y="0.5" width="118.529" height="239" rx="11.5" stroke="#0D477C"/>
<path d="M37.6472 0H84.706V5.41176C84.706 7.6209 82.9151 9.41177 80.706 9.41177H41.6472C39.438 9.41177 37.6472 7.6209 37.6472 5.41177V0Z" fill="#0D477C"/>
<rect y="59.2943" width="1.88235" height="16.9412" rx="0.941176" fill="#0D477C"/>
<rect y="40.4707" width="1.88235" height="16.9412" rx="0.941176" fill="#0D477C"/>
<rect x="119.529" y="40.4707" width="1.88235" height="14.1176" rx="0.941176" fill="#0D477C"/>
<rect x="72.4706" y="3.7644" width="1.88235" height="1.88235" rx="0.941176" fill="#0D477C"/>
<rect x="48" y="3.76453" width="22.5882" height="1.88235" rx="0.941176" fill="#0D477C"/>
<path d="M18.5 79.6484C18.5 77.7154 20.067 76.1484 22 76.1484H98.7059C100.639 76.1484 102.206 77.7154 102.206 79.6484V103.326L97.5144 99.6394C96.7216 99.0165 95.7425 98.6778 94.7342 98.6778H22C20.067 98.6778 18.5 97.1108 18.5 95.1778V79.6484Z" stroke="#0D477C"/>
<rect x="26.4717" y="82.2354" width="37.6471" height="0.941176" fill="#0D477C"/>
<rect x="26.4717" y="91.6494" width="68.7059" height="0.941176" fill="#0D477C"/>
<rect x="26.4717" y="86.9424" width="4.70588" height="0.941176" fill="#0D477C"/>
<rect x="34.001" y="86.9424" width="11.2941" height="0.941176" fill="#0D477C"/>
<path d="M18.5 152.119C18.5 150.186 20.067 148.619 22 148.619H98.7059C100.639 148.619 102.206 150.186 102.206 152.119V175.796L97.5144 172.11C96.7216 171.487 95.7425 171.149 94.7342 171.149H22C20.067 171.149 18.5 169.582 18.5 167.649V152.119Z" stroke="#0D477C"/>
<rect x="26.4717" y="154.706" width="28.2353" height="0.941176" fill="#0D477C"/>
<rect x="26.4717" y="159.413" width="12.2353" height="0.941176" fill="#0D477C"/>
<rect x="57.5312" y="154.706" width="15.0588" height="0.941176" fill="#0D477C"/>
<path d="M102.207 115.884C102.207 113.951 100.64 112.384 98.707 112.384H22.0011C20.0682 112.384 18.5011 113.951 18.5011 115.884V139.561L23.1926 135.875C23.9855 135.252 24.9645 134.913 25.9728 134.913H98.707C100.64 134.913 102.207 133.346 102.207 131.413V115.884Z" stroke="#0D477C"/>
<rect width="4.70588" height="0.941176" transform="matrix(-1 0 0 1 30.2363 127.885)" fill="#0D477C"/>
<rect width="15.0588" height="0.941176" transform="matrix(-1 0 0 1 40.5879 123.178)" fill="#0D477C"/>
<rect width="3.76471" height="0.941176" transform="matrix(-1 0 0 1 63.1758 118.471)" fill="#0D477C"/>
<rect width="31.0588" height="0.941176" transform="matrix(-1 0 0 1 56.5889 118.471)" fill="#0D477C"/>
<path d="M131.893 143.554L151.036 154.537C151.604 154.867 152.075 155.339 152.405 155.908C152.734 156.476 152.909 157.121 152.913 157.778V171.707C152.913 174.215 150.78 175.919 147.975 174.317L145.311 172.794L144.768 172.484L144.649 172.416L141.055 170.362L128.836 163.38C128.264 163.053 127.789 162.581 127.458 162.011C127.127 161.442 126.953 160.795 126.953 160.136V146.163C126.953 143.468 130.216 142.592 131.893 143.554Z" fill="#FF2C9C"/>
<path fill-rule="evenodd" clip-rule="evenodd" d="M148.417 156.377C148.836 156.719 149.177 157.147 149.418 157.631L149.418 157.631C149.617 158.017 149.749 158.434 149.809 158.864C149.829 159.01 149.838 159.158 149.839 159.306V173.235C149.839 173.453 149.781 173.668 149.672 173.857C149.563 174.046 149.407 174.203 149.218 174.312C149.03 174.422 148.815 174.48 148.597 174.481C148.379 174.481 148.165 174.425 147.975 174.316C150.78 175.919 152.913 174.214 152.913 171.707V157.777C152.911 157.136 152.744 156.506 152.428 155.948L152.427 155.948C152.099 155.361 151.619 154.873 151.036 154.537L131.893 143.554C130.216 142.592 126.953 143.468 126.953 146.163C126.953 145.945 127.011 145.73 127.12 145.541C127.229 145.352 127.385 145.195 127.574 145.085C127.763 144.976 127.978 144.918 128.196 144.917C128.414 144.917 128.629 144.974 128.818 145.083L147.962 156.065C148.121 156.156 148.272 156.26 148.415 156.375L148.417 156.377Z" fill="url(#paint0_linear)"/>
<path d="M145.311 172.794L144.768 172.484L145.311 172.794Z" fill="#FF2C9C"/>
<path d="M124.478 152.942L126.953 151.506V152.233L124.478 152.942Z" fill="#FF2C9C"/>
<path opacity="0.4" d="M124.478 152.942L126.953 151.506V152.233L124.478 152.942Z" fill="white"/>
<path d="M127.39 152.111L124.618 152.883C124.514 152.912 124.42 152.968 124.345 153.045C124.271 153.123 124.218 153.219 124.193 153.323C124.167 153.428 124.17 153.537 124.201 153.64C124.232 153.743 124.29 153.836 124.369 153.909L127.254 156.58L127.39 152.111Z" fill="#FF2C9C"/>
<path d="M135.548 153.536C135.285 153.346 134.977 153.229 134.654 153.196C134.331 153.163 134.005 153.216 133.709 153.349C132.688 153.926 132.683 155.817 133.697 157.57L134.288 158.597L137.949 164.938L141.638 162.84L142.232 162.497C143.253 161.92 143.258 160.029 142.244 158.276C141.808 157.486 141.177 156.82 140.41 156.343C140.147 156.153 139.838 156.036 139.515 156.003C139.193 155.97 138.867 156.023 138.571 156.156L137.973 156.492L137.382 155.47C136.946 154.679 136.315 154.013 135.548 153.536Z" fill="white"/>
<path d="M82.3914 58.0164L148.068 95.6829C149.613 96.5692 150.897 97.844 151.789 99.3791C152.681 100.914 153.151 102.656 153.151 104.428V141.01L150.665 135.977L80.6605 95.8276C79.1151 94.9413 77.8318 93.6665 76.9395 92.1313C76.0473 90.5962 75.5775 88.8548 75.5775 87.0821V61.9242C75.5775 61.1321 75.7874 60.354 76.1861 59.668C76.5848 58.982 77.1583 58.4124 77.8488 58.0164C78.5394 57.6203 79.3227 57.4118 80.1201 57.4118C80.9175 57.4118 81.7009 57.6203 82.3914 58.0164Z" fill="url(#paint1_linear)"/>
<path d="M82.3914 58.0164L148.068 95.6829C149.613 96.5692 150.897 97.844 151.789 99.3791C152.681 100.914 153.151 102.656 153.151 104.428V141.01L150.665 135.977L80.6605 95.8276C79.1151 94.9413 77.8318 93.6665 76.9395 92.1313C76.0473 90.5962 75.5775 88.8548 75.5775 87.0821V61.9242C75.5775 61.1321 75.7874 60.354 76.1861 59.668C76.5848 58.982 77.1583 58.4124 77.8488 58.0164C78.5394 57.6203 79.3227 57.4118 80.1201 57.4118C80.9175 57.4118 81.7009 57.6203 82.3914 58.0164Z" fill="url(#paint2_linear)"/>
<path d="M147.879 102.296V107.764C147.879 107.915 147.842 108.064 147.773 108.195C147.704 108.326 147.605 108.434 147.485 108.51C147.365 108.585 147.229 108.625 147.091 108.625C146.953 108.625 146.817 108.585 146.697 108.51L142.678 105.973C142.428 105.815 142.22 105.587 142.075 105.313C141.93 105.039 141.854 104.728 141.854 104.411V98.9426C141.854 98.7914 141.89 98.6429 141.959 98.5119C142.028 98.381 142.128 98.2723 142.248 98.1967C142.367 98.1211 142.503 98.0813 142.641 98.0813C142.78 98.0813 142.916 98.1211 143.035 98.1967L147.054 100.734C147.305 100.892 147.513 101.12 147.658 101.394C147.803 101.668 147.879 101.979 147.879 102.296Z" fill="url(#paint3_linear)" fill-opacity="0.2"/>
<path d="M144.449 101.929C144.207 101.638 144.061 101.266 144.035 100.872C144.035 100.364 144.409 100.19 144.871 100.483C145.104 100.636 145.3 100.847 145.445 101.1C145.591 101.352 145.68 101.638 145.706 101.935C145.706 102.273 145.54 102.463 145.292 102.465C145.6 102.747 145.853 103.093 146.039 103.484C146.224 103.874 146.338 104.301 146.373 104.739V106.366L143.368 104.455V102.829C143.349 102.678 143.367 102.525 143.419 102.384C143.472 102.243 143.558 102.12 143.668 102.029C143.779 101.937 143.909 101.879 144.046 101.862C144.184 101.844 144.323 101.867 144.449 101.929Z" fill="url(#paint4_linear)"/>
<path d="M98.494 72.5705L138.057 95.4033C138.296 95.5409 138.494 95.7387 138.631 95.977C138.769 96.2153 138.841 96.4856 138.841 96.7607V102.637C138.841 102.762 138.808 102.886 138.745 102.995C138.682 103.104 138.592 103.194 138.483 103.257C138.374 103.32 138.25 103.353 138.124 103.353C137.998 103.353 137.875 103.32 137.766 103.257L98.2026 80.4245C97.9642 80.2869 97.7663 80.0891 97.6286 79.8508C97.491 79.6125 97.4186 79.3422 97.4186 79.0671V73.1912C97.4186 73.0654 97.4517 72.9418 97.5146 72.8328C97.5776 72.7239 97.6681 72.6334 97.7771 72.5705C97.8861 72.5076 98.0097 72.4745 98.1355 72.4745C98.2614 72.4745 98.385 72.5076 98.494 72.5705Z" fill="url(#paint5_linear)"/>
<path d="M136.067 98.7244L103.205 80.0313C103.078 79.9699 102.967 79.882 102.878 79.7737C102.789 79.6655 102.725 79.5394 102.69 79.4043C102.69 79.2199 102.921 79.2015 103.205 79.3633L136.067 98.0563C136.193 98.1177 136.305 98.2056 136.394 98.3139C136.483 98.4222 136.547 98.5482 136.582 98.6833C136.582 98.8678 136.351 98.8862 136.067 98.7244Z" fill="#0D477C"/>
<path d="M91.3929 73.0754C91.3929 73.2612 91.1623 73.2798 90.8779 73.1168L80.6108 67.2336C80.4839 67.1718 80.3721 67.0832 80.2831 66.9742C80.1942 66.8651 80.1303 66.7381 80.0958 66.6021C80.0958 66.4163 80.3263 66.3977 80.6108 66.5607L90.8779 72.4439C91.0048 72.5057 91.1165 72.5942 91.2055 72.7033C91.2944 72.8124 91.3584 72.9394 91.3929 73.0754Z" fill="url(#paint6_linear)"/>
<path d="M100.432 95.6743C100.432 95.854 100.195 95.8719 99.9041 95.7143L80.6243 85.2828C80.4944 85.223 80.3798 85.1374 80.2887 85.0319C80.1976 84.9264 80.1321 84.8036 80.0968 84.6721C80.0968 84.4923 80.333 84.4745 80.6243 84.6321L99.9041 95.0635C100.034 95.1233 100.149 95.2089 100.24 95.3144C100.331 95.4199 100.396 95.5427 100.432 95.6743Z" fill="#3BB9FF"/>
<path d="M102.442 96.6856L147.374 122.905C147.499 122.967 147.608 123.055 147.695 123.164C147.782 123.273 147.845 123.4 147.879 123.536C147.879 123.721 147.653 123.739 147.374 123.577L102.442 97.3571C102.318 97.2953 102.208 97.207 102.121 97.0981C102.034 96.9893 101.971 96.8626 101.937 96.7268C101.937 96.5413 102.163 96.5229 102.442 96.6856Z" fill="#3BB9FF"/>
<path d="M147.367 119.81L80.6084 80.8009C80.4822 80.7382 80.3711 80.6484 80.2827 80.5378C80.1942 80.4273 80.1307 80.2985 80.0963 80.1606C80.0963 79.9722 80.3256 79.9535 80.6084 80.1187L147.367 119.128C147.493 119.19 147.604 119.28 147.693 119.391C147.781 119.501 147.845 119.63 147.879 119.768C147.879 119.956 147.65 119.975 147.367 119.81Z" fill="#3BB9FF"/>
<path d="M107.715 104.218L147.373 127.421C147.498 127.483 147.608 127.571 147.695 127.681C147.782 127.79 147.845 127.917 147.879 128.054C147.879 128.24 147.652 128.259 147.373 128.095L107.715 104.892C107.591 104.83 107.481 104.741 107.393 104.632C107.306 104.523 107.243 104.395 107.209 104.259C107.209 104.073 107.436 104.054 107.715 104.218Z" fill="#3BB9FF"/>
<path d="M147.879 115.253C147.879 115.437 147.651 115.455 147.37 115.293L122.781 101.118C122.655 101.056 122.545 100.968 122.457 100.86C122.369 100.752 122.306 100.626 122.272 100.491C122.272 100.307 122.5 100.289 122.781 100.451L147.37 114.627C147.496 114.688 147.606 114.776 147.694 114.884C147.782 114.992 147.845 115.118 147.879 115.253Z" fill="#3BB9FF"/>
<path d="M35.7099 79.1189L100.555 117.146C102.12 118.064 103.42 119.384 104.324 120.974C105.227 122.563 105.703 124.367 105.703 126.202V151.45C105.703 152.261 105.493 153.059 105.093 153.761C104.694 154.464 104.119 155.048 103.427 155.454C102.735 155.859 101.951 156.073 101.152 156.073C100.353 156.073 99.5678 155.859 98.8759 155.454L30.8359 115.553L28.8828 117.686V83.1225C28.8828 82.311 29.0931 81.5138 29.4926 80.811C29.8921 80.1082 30.4666 79.5246 31.1585 79.1189C31.8504 78.7131 32.6353 78.4995 33.4342 78.4995C34.2332 78.4995 35.018 78.7131 35.7099 79.1189Z" fill="url(#paint7_linear)"/>
<path d="M35.7099 79.1189L100.555 117.146C102.12 118.064 103.42 119.384 104.324 120.974C105.227 122.563 105.703 124.367 105.703 126.202V151.45C105.703 152.261 105.493 153.059 105.093 153.761C104.694 154.464 104.119 155.048 103.427 155.454C102.735 155.859 101.951 156.073 101.152 156.073C100.353 156.073 99.5678 155.859 98.8759 155.454L30.8359 115.553L28.8828 117.686V83.1225C28.8828 82.311 29.0931 81.5138 29.4926 80.811C29.8921 80.1082 30.4666 79.5246 31.1585 79.1189C31.8504 78.7131 32.6353 78.4995 33.4342 78.4995C34.2332 78.4995 35.018 78.7131 35.7099 79.1189Z" fill="url(#paint8_linear)"/>
<path d="M101.184 123.836V128.913C101.184 129.054 101.143 129.192 101.065 129.313C100.987 129.435 100.875 129.536 100.74 129.606C100.606 129.676 100.453 129.713 100.297 129.713C100.142 129.713 99.989 129.676 99.8543 129.606L95.3331 127.25C95.051 127.103 94.8167 126.892 94.6539 126.637C94.491 126.383 94.4053 126.094 94.4053 125.8V120.722C94.4053 120.582 94.4462 120.444 94.524 120.322C94.6018 120.201 94.7136 120.1 94.8484 120.029C94.9831 119.959 95.1359 119.922 95.2915 119.922C95.447 119.922 95.5998 119.959 95.7345 120.029L100.256 122.385C100.538 122.532 100.772 122.744 100.935 122.998C101.098 123.253 101.184 123.542 101.184 123.836Z" fill="url(#paint9_linear)" fill-opacity="0.2"/>
<path d="M97.2724 123.77C96.9696 123.479 96.7873 123.107 96.7549 122.713C96.7549 122.205 97.2225 122.031 97.7994 122.324C98.0902 122.477 98.3362 122.688 98.5176 122.941C98.699 123.193 98.8108 123.479 98.8439 123.776C98.8439 124.114 98.6356 124.304 98.3264 124.306C98.7104 124.588 99.0275 124.934 99.2594 125.325C99.4912 125.715 99.6333 126.142 99.6774 126.58V128.207L95.9213 126.296V124.67C95.8971 124.519 95.9191 124.366 95.985 124.225C96.0509 124.084 96.1583 123.961 96.2962 123.87C96.434 123.778 96.5972 123.72 96.7689 123.703C96.9405 123.685 97.1144 123.708 97.2724 123.77Z" fill="url(#paint10_linear)"/>
<path d="M51.0457 93.6585L90.6089 116.491C90.8472 116.629 91.0452 116.827 91.1828 117.065C91.3204 117.303 91.3929 117.574 91.3929 117.849V123.725C91.3929 123.85 91.3598 123.974 91.2968 124.083C91.2339 124.192 91.1434 124.282 91.0344 124.345C90.9254 124.408 90.8018 124.441 90.6759 124.441C90.5501 124.441 90.4265 124.408 90.3175 124.345L50.7543 101.512C50.5159 101.375 50.318 101.177 50.1803 100.939C50.0427 100.7 49.9702 100.43 49.9702 100.155V94.2791C49.9702 94.1533 50.0034 94.0297 50.0663 93.9208C50.1292 93.8118 50.2197 93.7214 50.3287 93.6585C50.4377 93.5956 50.5614 93.5625 50.6872 93.5625C50.8131 93.5625 50.9367 93.5956 51.0457 93.6585Z" fill="url(#paint11_linear)"/>
<path d="M44.6986 94.9159C44.6986 95.1017 44.4681 95.1203 44.1836 94.9573L33.9166 89.0741C33.7897 89.0123 33.6779 88.9237 33.5889 88.8147C33.5 88.7056 33.436 88.5786 33.4015 88.4425C33.4015 88.2567 33.6321 88.2382 33.9166 88.4012L44.1836 94.2843C44.3105 94.3462 44.4223 94.4347 44.5112 94.5438C44.6002 94.6529 44.6641 94.7799 44.6986 94.9159Z" fill="url(#paint12_linear)"/>
<path d="M89.1332 120.525C89.1332 120.709 88.9056 120.727 88.6248 120.565L64.0349 106.389C63.9096 106.328 63.7992 106.24 63.7114 106.132C63.6236 106.024 63.5605 105.898 63.5265 105.763C63.5265 105.579 63.7541 105.561 64.0349 105.723L88.6248 119.899C88.7501 119.96 88.8605 120.048 88.9483 120.156C89.036 120.264 89.0991 120.39 89.1332 120.525Z" fill="#0D477C"/>
<path d="M100.671 140.9L33.913 102.627C33.7868 102.565 33.6757 102.477 33.5873 102.369C33.4989 102.26 33.4353 102.134 33.401 101.999C33.401 101.814 33.6302 101.795 33.913 101.958L100.671 140.23C100.798 140.292 100.909 140.38 100.997 140.489C101.086 140.597 101.149 140.723 101.184 140.859C101.184 141.044 100.954 141.062 100.671 140.9Z" fill="#3BB9FF"/>
<path d="M101.184 137.086C101.184 137.279 100.956 137.298 100.675 137.128L76.0852 122.244C75.9599 122.18 75.8495 122.087 75.7617 121.974C75.6739 121.86 75.6108 121.728 75.5768 121.587C75.5768 121.393 75.8044 121.375 76.0852 121.545L100.675 136.429C100.8 136.493 100.911 136.586 100.999 136.699C101.086 136.813 101.149 136.945 101.184 137.086Z" fill="#3BB9FF"/>
<path d="M56.5034 123.048L100.675 149.247C100.801 149.31 100.911 149.401 100.999 149.512C101.086 149.623 101.149 149.753 101.184 149.892C101.184 150.082 100.956 150.101 100.675 149.934L56.5034 123.735C56.3782 123.672 56.2679 123.582 56.1801 123.47C56.0923 123.359 56.0292 123.229 55.9952 123.09C55.9952 122.901 56.2227 122.882 56.5034 123.048Z" fill="#3BB9FF"/>
<path d="M79.8591 132.837L100.667 144.744C100.794 144.806 100.906 144.894 100.996 145.004C101.085 145.113 101.149 145.24 101.184 145.376C101.184 145.563 100.952 145.581 100.667 145.418L79.8591 133.511C79.7318 133.449 79.6197 133.36 79.5304 133.251C79.4412 133.142 79.3771 133.015 79.3425 132.878C79.3425 132.692 79.5738 132.674 79.8591 132.837Z" fill="#3BB9FF"/>
<path d="M77.0834 131.82C77.0834 132.006 76.8553 132.024 76.5739 131.862L33.9108 107.15C33.7853 107.088 33.6747 106.999 33.5867 106.89C33.4987 106.781 33.4354 106.654 33.4013 106.518C33.4013 106.332 33.6294 106.314 33.9108 106.477L76.5739 131.189C76.6994 131.251 76.81 131.339 76.898 131.448C76.986 131.557 77.0492 131.684 77.0834 131.82Z" fill="#3BB9FF"/>
<path d="M101.184 153.249C101.16 152.933 101.079 152.629 100.948 152.361C100.817 152.093 100.64 151.868 100.43 151.706C100.014 151.394 99.6773 151.579 99.6773 152.119C99.7012 152.435 99.7817 152.739 99.9125 153.007C100.043 153.275 100.221 153.499 100.43 153.662C100.846 153.974 101.184 153.789 101.184 153.249Z" fill="white"/>
<path d="M82.3914 154.418L148.068 192.084C149.613 192.971 150.897 194.245 151.789 195.781C152.681 197.316 153.151 199.057 153.151 200.83V237.412L150.665 232.378L80.6605 192.229C79.1151 191.343 77.8318 190.068 76.9395 188.533C76.0473 186.998 75.5775 185.256 75.5775 183.484V158.326C75.5775 157.534 75.7874 156.755 76.1861 156.069C76.5848 155.383 77.1583 154.814 77.8488 154.418C78.5394 154.022 79.3227 153.813 80.1201 153.813C80.9175 153.813 81.7009 154.022 82.3914 154.418Z" fill="url(#paint13_linear)"/>
<path d="M82.3914 154.418L148.068 192.084C149.613 192.971 150.897 194.245 151.789 195.781C152.681 197.316 153.151 199.057 153.151 200.83V237.412L150.665 232.378L80.6605 192.229C79.1151 191.343 77.8318 190.068 76.9395 188.533C76.0473 186.998 75.5775 185.256 75.5775 183.484V158.326C75.5775 157.534 75.7874 156.755 76.1861 156.069C76.5848 155.383 77.1583 154.814 77.8488 154.418C78.5394 154.022 79.3227 153.813 80.1201 153.813C80.9175 153.813 81.7009 154.022 82.3914 154.418Z" fill="url(#paint14_linear)"/>
<path d="M147.879 198.697V204.165C147.879 204.317 147.842 204.465 147.773 204.596C147.704 204.727 147.605 204.836 147.485 204.911C147.365 204.987 147.229 205.027 147.091 205.027C146.953 205.027 146.817 204.987 146.697 204.911L142.678 202.374C142.428 202.216 142.22 201.988 142.075 201.714C141.93 201.44 141.854 201.129 141.854 200.812V195.344C141.854 195.193 141.89 195.044 141.959 194.913C142.028 194.782 142.128 194.674 142.248 194.598C142.367 194.522 142.503 194.483 142.641 194.483C142.78 194.483 142.916 194.522 143.035 194.598L147.054 197.135C147.305 197.293 147.513 197.521 147.658 197.795C147.803 198.069 147.879 198.38 147.879 198.697Z" fill="url(#paint15_linear)" fill-opacity="0.2"/>
<path d="M144.449 198.33C144.207 198.04 144.061 197.667 144.035 197.274C144.035 196.765 144.409 196.591 144.871 196.885C145.104 197.038 145.3 197.249 145.445 197.501C145.591 197.753 145.68 198.039 145.706 198.336C145.706 198.675 145.54 198.864 145.292 198.866C145.6 199.148 145.853 199.495 146.039 199.885C146.224 200.275 146.338 200.702 146.373 201.141V202.767L143.368 200.857V199.23C143.349 199.08 143.367 198.926 143.419 198.785C143.472 198.644 143.558 198.522 143.668 198.43C143.779 198.338 143.909 198.281 144.046 198.263C144.184 198.245 144.323 198.269 144.449 198.33Z" fill="url(#paint16_linear)"/>
<path d="M98.494 168.972L138.057 191.805C138.296 191.942 138.494 192.14 138.631 192.378C138.769 192.617 138.841 192.887 138.841 193.162V199.038C138.841 199.164 138.808 199.287 138.745 199.396C138.682 199.505 138.592 199.596 138.483 199.659C138.374 199.721 138.25 199.755 138.124 199.755C137.998 199.755 137.875 199.721 137.766 199.659L98.2025 176.826C97.9642 176.688 97.7663 176.49 97.6286 176.252C97.491 176.014 97.4186 175.744 97.4186 175.468V169.593C97.4186 169.467 97.4517 169.343 97.5146 169.234C97.5776 169.125 97.6681 169.035 97.7771 168.972C97.8861 168.909 98.0097 168.876 98.1355 168.876C98.2614 168.876 98.385 168.909 98.494 168.972Z" fill="url(#paint17_linear)"/>
<path d="M136.067 195.126L103.205 176.433C103.078 176.371 102.967 176.283 102.878 176.175C102.789 176.067 102.725 175.941 102.69 175.806C102.69 175.621 102.921 175.603 103.205 175.765L136.067 194.458C136.193 194.519 136.305 194.607 136.394 194.715C136.483 194.824 136.547 194.95 136.582 195.085C136.582 195.269 136.351 195.287 136.067 195.126Z" fill="#0D477C"/>
<path d="M91.3929 169.477C91.3929 169.663 91.1777 169.681 90.9122 169.518L81.3296 163.635C81.2111 163.573 81.1068 163.485 81.0238 163.376C80.9408 163.266 80.8811 163.139 80.8489 163.003C80.8489 162.818 81.0641 162.799 81.3296 162.962L90.9122 168.845C91.0306 168.907 91.135 168.996 91.218 169.105C91.301 169.214 91.3606 169.341 91.3929 169.477Z" fill="#3BB9FF"/>
<path d="M100.432 192.076C100.432 192.256 100.204 192.274 99.9236 192.116L81.3579 181.684C81.2328 181.625 81.1225 181.539 81.0348 181.433C80.947 181.328 80.884 181.205 80.8499 181.074C80.8499 180.894 81.0774 180.876 81.3579 181.034L99.9236 191.465C100.049 191.525 100.159 191.611 100.247 191.716C100.334 191.822 100.398 191.944 100.432 192.076Z" fill="#3BB9FF"/>
<path d="M102.442 193.088L147.374 219.307C147.499 219.369 147.608 219.457 147.695 219.566C147.782 219.675 147.845 219.802 147.879 219.938C147.879 220.123 147.653 220.141 147.374 219.979L102.442 193.759C102.318 193.697 102.208 193.609 102.121 193.5C102.034 193.391 101.971 193.265 101.937 193.129C101.937 192.943 102.163 192.925 102.442 193.088Z" fill="#3BB9FF"/>
<path d="M147.373 215.46L81.3559 177.187C81.2311 177.126 81.1212 177.038 81.0337 176.929C80.9463 176.821 80.8834 176.694 80.8495 176.559C80.8495 176.374 81.0762 176.356 81.3559 176.518L147.373 214.791C147.497 214.852 147.607 214.94 147.695 215.049C147.782 215.157 147.845 215.284 147.879 215.419C147.879 215.604 147.652 215.622 147.373 215.46Z" fill="#3BB9FF"/>
<path d="M107.715 200.619L147.373 223.822C147.498 223.884 147.608 223.973 147.695 224.082C147.782 224.191 147.845 224.319 147.879 224.455C147.879 224.642 147.652 224.66 147.373 224.497L107.715 201.294C107.591 201.232 107.481 201.143 107.393 201.033C107.306 200.924 107.243 200.797 107.209 200.66C107.209 200.474 107.436 200.456 107.715 200.619Z" fill="#3BB9FF"/>
<path d="M147.879 211.654C147.879 211.838 147.651 211.856 147.37 211.694L122.781 197.519C122.655 197.457 122.545 197.37 122.457 197.261C122.369 197.153 122.306 197.028 122.272 196.893C122.272 196.709 122.5 196.691 122.781 196.853L147.37 211.028C147.496 211.09 147.606 211.177 147.694 211.286C147.782 211.394 147.845 211.52 147.879 211.654Z" fill="#3BB9FF"/>
<path d="M149.385 227.809C149.349 227.493 149.228 227.189 149.032 226.921C148.836 226.653 148.57 226.429 148.255 226.266C147.631 225.954 147.126 226.139 147.126 226.679C147.161 226.995 147.282 227.299 147.478 227.567C147.675 227.835 147.941 228.059 148.255 228.222C148.879 228.534 149.385 228.349 149.385 227.809Z" fill="white"/>
<defs>
<linearGradient id="paint0_linear" x1="127.352" y1="139.47" x2="155.41" y2="173.353" gradientUnits="userSpaceOnUse">
<stop stop-color="#FF9CD1"/>
<stop offset="1" stop-color="#FF72BD"/>
</linearGradient>
<linearGradient id="paint1_linear" x1="73.1536" y1="98.3163" x2="115.598" y2="121.994" gradientUnits="userSpaceOnUse">
<stop stop-color="#333333"/>
<stop offset="1" stop-color="#4F4F4F"/>
</linearGradient>
<linearGradient id="paint2_linear" x1="71.6971" y1="113.376" x2="149.764" y2="127.054" gradientUnits="userSpaceOnUse">
<stop stop-color="#4F4F4F"/>
<stop offset="1" stop-color="#828282"/>
</linearGradient>
<linearGradient id="paint3_linear" x1="147.879" y1="103.353" x2="141.854" y2="103.353" gradientUnits="userSpaceOnUse">
<stop stop-color="#FF2C9C"/>
<stop offset="1" stop-color="#892CFF"/>
</linearGradient>
<linearGradient id="paint4_linear" x1="143.067" y1="104.135" x2="147.711" y2="103.973" gradientUnits="userSpaceOnUse">
<stop stop-color="#87D4FE"/>
<stop offset="1" stop-color="#1BADFF"/>
</linearGradient>
<linearGradient id="paint5_linear" x1="93.3786" y1="91.9194" x2="156.75" y2="85.9833" gradientUnits="userSpaceOnUse">
<stop stop-color="#87D4FE"/>
<stop offset="1" stop-color="#1BADFF"/>
</linearGradient>
<linearGradient id="paint6_linear" x1="93.9395" y1="67.9847" x2="79.9365" y2="75.5304" gradientUnits="userSpaceOnUse">
<stop offset="0.53125" stop-color="white"/>
<stop offset="1" stop-color="#D1EFFF"/>
</linearGradient>
<linearGradient id="paint7_linear" x1="26.4824" y1="116.456" x2="67.1729" y2="140.681" gradientUnits="userSpaceOnUse">
<stop stop-color="#333333"/>
<stop offset="1" stop-color="#4F4F4F"/>
</linearGradient>
<linearGradient id="paint8_linear" x1="25.04" y1="130.431" x2="102.031" y2="144.826" gradientUnits="userSpaceOnUse">
<stop stop-color="#4F4F4F"/>
<stop offset="1" stop-color="#828282"/>
</linearGradient>
<linearGradient id="paint9_linear" x1="101.184" y1="124.818" x2="94.4053" y2="124.818" gradientUnits="userSpaceOnUse">
<stop stop-color="#FF2C9C"/>
<stop offset="1" stop-color="#892CFF"/>
</linearGradient>
<linearGradient id="paint10_linear" x1="95.5445" y1="125.976" x2="101.345" y2="125.723" gradientUnits="userSpaceOnUse">
<stop stop-color="#87D4FE"/>
<stop offset="1" stop-color="#1BADFF"/>
</linearGradient>
<linearGradient id="paint11_linear" x1="45.9302" y1="113.007" x2="109.302" y2="107.071" gradientUnits="userSpaceOnUse">
<stop stop-color="#87D4FE"/>
<stop offset="1" stop-color="#1BADFF"/>
</linearGradient>
<linearGradient id="paint12_linear" x1="47.2452" y1="89.8252" x2="33.2422" y2="97.3709" gradientUnits="userSpaceOnUse">
<stop offset="0.53125" stop-color="white"/>
<stop offset="1" stop-color="#D1EFFF"/>
</linearGradient>
<linearGradient id="paint13_linear" x1="73.1536" y1="194.718" x2="115.598" y2="218.395" gradientUnits="userSpaceOnUse">
<stop stop-color="#333333"/>
<stop offset="1" stop-color="#4F4F4F"/>
</linearGradient>
<linearGradient id="paint14_linear" x1="71.6971" y1="209.778" x2="149.764" y2="223.455" gradientUnits="userSpaceOnUse">
<stop stop-color="#4F4F4F"/>
<stop offset="1" stop-color="#828282"/>
</linearGradient>
<linearGradient id="paint15_linear" x1="147.879" y1="199.755" x2="141.854" y2="199.755" gradientUnits="userSpaceOnUse">
<stop stop-color="#FF2C9C"/>
<stop offset="1" stop-color="#892CFF"/>
</linearGradient>
<linearGradient id="paint16_linear" x1="143.067" y1="200.536" x2="147.711" y2="200.374" gradientUnits="userSpaceOnUse">
<stop stop-color="#87D4FE"/>
<stop offset="1" stop-color="#1BADFF"/>
</linearGradient>
<linearGradient id="paint17_linear" x1="93.3786" y1="188.321" x2="156.75" y2="182.385" gradientUnits="userSpaceOnUse">
<stop stop-color="#87D4FE"/>
<stop offset="1" stop-color="#1BADFF"/>
</linearGradient>
</defs>
</svg>
